<?xml version="1.0" encoding="UTF-8" standalone="no"?>
<!-- Created with Inkscape (http://www.inkscape.org/) -->

<svg
   width="163.19897mm"
   height="116.51075mm"
   viewBox="0 0 163.19897 116.51075"
   version="1.1"
   id="svg1"
   xml:space="preserve"
   inkscape:version="1.4.2 (f4327f4, 2025-05-13)"
   sodipodi:docname="bed_inactive_icon.svg"
   xmlns:inkscape="http://www.inkscape.org/namespaces/inkscape"
   xmlns:sodipodi="http://sodipodi.sourceforge.net/DTD/sodipodi-0.dtd"
   xmlns="http://www.w3.org/2000/svg"
   xmlns:svg="http://www.w3.org/2000/svg"><sodipodi:namedview
     id="namedview1"
     pagecolor="#ffffff"
     bordercolor="#000000"
     borderopacity="0.25"
     inkscape:showpageshadow="2"
     inkscape:pageopacity="0.0"
     inkscape:pagecheckerboard="0"
     inkscape:deskcolor="#d1d1d1"
     inkscape:document-units="mm"
     inkscape:zoom="1"
     inkscape:cx="231.5"
     inkscape:cy="238.5"
     inkscape:window-width="1920"
     inkscape:window-height="1009"
     inkscape:window-x="-8"
     inkscape:window-y="-8"
     inkscape:window-maximized="1"
     inkscape:current-layer="layer1" /><defs
     id="defs1" /><g
     inkscape:label="Capa 1"
     inkscape:groupmode="layer"
     id="layer1"
     transform="translate(-23.402272,-91.822017)"><path
       style="fill:#999999;fill-opacity:1;stroke:#333333;stroke-width:0.07;stroke-linejoin:bevel"
       d="m 27.726947,153.53419 -2.80633,2.61924 0.187089,2.99342 0.374177,3.55468 1.683798,1.6838 31.805074,14.40583 121.607635,0.18709 2.61924,-2.24507 0.56126,-1.49671 0.56127,-2.43215 v -2.99342 l -1.12253,-2.05797 -1.30962,-0.74836 -2.61924,-1.6838 H 64.770504 l -30.121276,-12.34785 -2.619241,-1.30962 -2.057976,0.37418 z"
       id="path7" /><rect
       style="fill:#cccccc;fill-opacity:1;stroke:#666666;stroke-width:0.07;stroke-linejoin:bevel"
       id="rect7"
       width="159.58664"
       height="15.902536"
       x="25.669039"
       y="179.29657" /><path
       style="fill:#333333;fill-opacity:1;stroke:#4d4d4d"
       d="m 183.69085,202.475 v -5.68854 H 105.37419 27.057521 v 3.30729 l -0.09133,8.1477 -1.4946,-0.18266 -1.859914,0.27398 -0.209405,-38.15271 0.06457,-33.49498 2.003178,-0.0913 1.455209,0.27399 0.05997,6.73747 c 0.03432,3.85629 0.06275,7.40652 0.06615,7.88937 l 0.0062,0.87791 0.732991,-0.52193 c 1.324914,-0.94343 3.365444,-1.44701 5.299065,-1.30777 1.443761,0.10396 2.731589,0.52398 6.932527,2.26101 2.837656,1.17333 5.174861,2.06344 5.213676,2.07956 4.553615,1.89063 10.934697,4.48296 13.20515,5.57077 0.208317,0.0998 5.578032,2.70834 6.088679,2.72217 l 113.590713,0.3211 c 2.00098,0.0957 2.61474,0.24092 3.96875,0.93924 l 1.60172,0.82607 v -6.06625 -6.06625 h 1.45521 1.45521 v 27.51666 27.51667 h -1.45521 -1.45521 z m -2.57969,-8.86082 2.57969,-0.003 v -6.48229 -6.4823 h -78.3046 -78.304602 l -0.07821,4.43177 c -0.04302,2.43748 -0.04347,5.35266 -10e-4,6.47819 l 0.0772,2.04642 7.463423,0.0702 c 5.871163,0.0553 57.994065,0.0342 146.568109,-0.0593 z M 30.86953,190.84234 c -0.403304,-0.29956 -0.44576,-0.47104 -0.211298,-0.85341 0.281947,-0.4598 3.208426,-0.47851 74.848248,-0.47851 71.63982,0 74.56629,0.0187 74.84824,0.47851 0.79112,1.29019 4.60701,1.22759 -74.84777,1.22796 -63.550094,2.9e-4 -74.204752,-0.0532 -74.63742,-0.37455 z m 8.138279,-13.07821 c 0.339581,0.03 3.752732,0.0361 7.584781,0.0135 4.802801,-0.0284 6.938121,-0.12887 6.873242,-0.32351 -0.09966,-0.29898 -2.59646,-1.44666 -6.961436,-3.19989 l -3.703261,-1.54484 c -0.29402,0 -14.558914,-6.16378 -15.128287,-6.53684 l -0.615327,-0.40318 v 5.98355 5.98356 h 5.002313 c 5.034403,0 4.001888,0.0372 6.947975,0.0276 z m 78.469031,0.0414 c 0.49052,0.10503 6.64655,-0.32742 30.8958,-0.3259 34.44047,0.002 32.09499,0.13401 33.83776,-1.90202 2.30669,-2.69486 1.67179,-6.5627 -1.37085,-8.35127 l -1.24974,-0.73463 -25.65651,-0.0713 c -9.26712,-0.10714 -19.3795,0.13033 -28.27077,-0.13986 l -31.736232,0.0788 H 64.148147 l -4.588542,-1.95516 c -16.261951,-6.92915 -25.563759,-10.77143 -26.40059,-10.90525 -2.158794,-0.3452 -4.640629,1.07133 -5.608051,3.20085 -1.007155,2.21699 -0.343018,5.23768 1.451871,6.60353 0.458046,0.34855 3.392655,1.70219 6.521353,3.00808 7.311876,3.98394 15.594697,6.55297 23.441367,9.96032 0.567924,0.24779 1.423584,0.61919 1.901465,0.82533 0.730389,0.31507 5.134597,0.37542 27.632396,0.37867 24.433034,0.004 26.684194,0.37267 27.275394,0.34101 z m -61.315153,-5.05865 c -3.17558,-1.40782 -5.846756,-2.5589 -8.468239,-3.59273 l -9.788007,-4.16741 c -3.56526,-1.52656 -6.69065,-2.85051 -6.945312,-2.94211 -0.56817,-0.20435 -0.604693,-1.0591 -0.06441,-1.5075 0.325742,-0.27034 0.70057,-0.19822 2.05052,0.39455 0.908553,0.39894 4.211759,1.79277 7.340456,3.09739 3.128698,1.30462 5.779643,2.63812 6.10625,2.74806 0.29296,0.0986 0.615367,0.28609 0.813776,0.37602 2.639307,1.19622 3.884512,1.41383 8.6297,3.43959 l 6.803428,2.91041 h 8.352832 8.352832 c 0.397092,0.56092 0.862162,1.08671 1.157848,1.70908 0,0.0787 -4.077891,0.14103 -9.061979,0.13861 l -9.061979,-0.004 z m 63.527823,0.78854 c 1.12634,-0.005 1.33599,1.65645 -1.87857,1.5545 l -37.769611,0.14514 -0.745149,-1.70908 24.57592,-0.0228 15.28463,0.0161 m -1.34462,1.56932 c -2.76458,-1.68087 2.83646,-1.56814 3.09134,-1.55427 0.38869,0.0212 1.69218,-0.009 18.05223,-0.022 l 20.33348,-0.0371 -0.70915,1.877 -19.07663,-5.2e-4 c -12.5505,-3.4e-4 -19.51055,-0.20963 -19.71354,-0.21461 z m 40.76813,0.26262 c 0.16306,0.006 -3.88211,-1.80174 0.68431,-1.93017 0.24835,-0.007 9.89131,0.004 10.51402,0.24272 0.54254,0.20819 0.54254,1.3227 0,1.53089 z"
       id="path1"
       sodipodi:nodetypes="ccccccccccccsscsssssccsccccccccccccccccssccccssssssscsccscccscscssccsccssssssscsccccssssssscccsccccccsccccscccssccsscc" /><path
       id="rect1"
       style="fill:#666666;fill-opacity:1;stroke:#b3b3b3;stroke-width:4.052;stroke-dasharray:none;stroke-opacity:1"
       d="m 122.95123,95.07918 c -0.0628,6.83e-4 -0.12548,0.02574 -0.17311,0.07442 l -8.37262,8.55503 -8.3907,-8.380364 c -0.0964,-0.09627 -0.25152,-0.09586 -0.34778,5.17e-4 L 93.255891,107.75438 c -0.09626,0.0964 -0.09638,0.25152 -1e-6,0.34778 l 8.52092,8.51059 -8.751913,8.94261 c -0.09528,0.0974 -0.09374,0.25251 0.0036,0.34778 l 12.551683,12.28401 c 0.0973,0.0953 0.25251,0.0932 0.34778,-0.004 l 8.62325,-8.81083 8.80205,8.79171 c 0.0964,0.0963 0.25152,0.0959 0.34778,-5.1e-4 l 12.41113,-12.4256 c 0.0963,-0.0964 0.0964,-0.25153 0,-0.34778 l -8.93228,-8.92194 8.5013,-8.68681 c 0.0953,-0.0974 0.0932,-0.25251 -0.004,-0.34778 L 123.1259,95.149462 c -0.0487,-0.04763 -0.11182,-0.07096 -0.17467,-0.07028 z" /></g></svg>
