<?xml version="1.0" encoding="UTF-8" standalone="no"?>
<!-- Created with Inkscape (http://www.inkscape.org/) -->

<svg
   width="163.19897mm"
   height="116.51075mm"
   viewBox="0 0 163.19897 116.51075"
   version="1.1"
   id="svg1"
   xml:space="preserve"
   inkscape:version="1.3.2 (091e20e, 2023-11-25, custom)"
   sodipodi:docname="bed_reserved_icon.svg"
   xmlns:inkscape="http://www.inkscape.org/namespaces/inkscape"
   xmlns:sodipodi="http://sodipodi.sourceforge.net/DTD/sodipodi-0.dtd"
   xmlns="http://www.w3.org/2000/svg"
   xmlns:svg="http://www.w3.org/2000/svg"><sodipodi:namedview
     id="namedview1"
     pagecolor="#ffffff"
     bordercolor="#000000"
     borderopacity="0.25"
     inkscape:showpageshadow="2"
     inkscape:pageopacity="0.0"
     inkscape:pagecheckerboard="0"
     inkscape:deskcolor="#d1d1d1"
     inkscape:document-units="mm"
     inkscape:zoom="1.4142136"
     inkscape:cx="252.79067"
     inkscape:cy="101.46982"
     inkscape:window-width="1920"
     inkscape:window-height="1009"
     inkscape:window-x="-8"
     inkscape:window-y="-8"
     inkscape:window-maximized="1"
     inkscape:current-layer="layer1"
     showgrid="false" /><defs
     id="defs1" /><g
     inkscape:label="Capa 1"
     inkscape:groupmode="layer"
     id="layer1"
     transform="translate(-23.402272,-91.822017)"><path
       style="fill:#e3e34e;fill-opacity:1;stroke:#00b1d5;stroke-width:0.07;stroke-linejoin:bevel"
       d="m 27.726947,153.53419 -2.80633,2.61924 0.187089,2.99342 0.374177,3.55468 1.683798,1.6838 31.805074,14.40583 121.607635,0.18709 2.61924,-2.24507 0.56126,-1.49671 0.56127,-2.43215 v -2.99342 l -1.12253,-2.05797 -1.30962,-0.74836 -2.61924,-1.6838 H 64.770504 l -30.121276,-12.34785 -2.619241,-1.30962 -2.057976,0.37418 z"
       id="path7" /><rect
       style="fill:#ffef71;fill-opacity:1;stroke:#00b1d5;stroke-width:0.07;stroke-linejoin:bevel"
       id="rect7"
       width="159.58664"
       height="15.902536"
       x="25.669039"
       y="179.29657" /><path
       style="fill:#5d5700;fill-opacity:1"
       d="m 183.69085,202.475 v -5.68854 H 105.37419 27.057521 v 3.30729 l -0.09133,8.1477 -1.4946,-0.18266 -1.859914,0.27398 -0.209405,-38.15271 0.06457,-33.49498 2.003178,-0.0913 1.455209,0.27399 0.05997,6.73747 c 0.03432,3.85629 0.06275,7.40652 0.06615,7.88937 l 0.0062,0.87791 0.732991,-0.52193 c 1.324914,-0.94343 3.365444,-1.44701 5.299065,-1.30777 1.443761,0.10396 2.731589,0.52398 6.932527,2.26101 2.837656,1.17333 5.174861,2.06344 5.213676,2.07956 4.553615,1.89063 10.934697,4.48296 13.20515,5.57077 0.208317,0.0998 5.578032,2.70834 6.088679,2.72217 l 113.590713,0.3211 c 2.00098,0.0957 2.61474,0.24092 3.96875,0.93924 l 1.60172,0.82607 v -6.06625 -6.06625 h 1.45521 1.45521 v 27.51666 27.51667 h -1.45521 -1.45521 z m -2.57969,-8.86082 2.57969,-0.003 v -6.48229 -6.4823 h -78.3046 -78.304602 l -0.07821,4.43177 c -0.04302,2.43748 -0.04347,5.35266 -10e-4,6.47819 l 0.0772,2.04642 7.463423,0.0702 c 5.871163,0.0553 57.994065,0.0342 146.568109,-0.0593 z M 30.86953,190.84234 c -0.403304,-0.29956 -0.44576,-0.47104 -0.211298,-0.85341 0.281947,-0.4598 3.208426,-0.47851 74.848248,-0.47851 71.63982,0 74.56629,0.0187 74.84824,0.47851 0.79112,1.29019 4.60701,1.22759 -74.84777,1.22796 -63.550094,2.9e-4 -74.204752,-0.0532 -74.63742,-0.37455 z m 8.138279,-13.07821 c 0.339581,0.03 3.752732,0.0361 7.584781,0.0135 4.802801,-0.0284 6.938121,-0.12887 6.873242,-0.32351 -0.09966,-0.29898 -2.59646,-1.44666 -6.961436,-3.19989 l -3.703261,-1.54484 c -0.29402,0 -14.558914,-6.16378 -15.128287,-6.53684 l -0.615327,-0.40318 v 5.98355 5.98356 h 5.002313 c 5.034403,0 4.001888,0.0372 6.947975,0.0276 z m 78.469031,0.0414 c 0.49052,0.10503 6.64655,-0.32742 30.8958,-0.3259 34.44047,0.002 32.09499,0.13401 33.83776,-1.90202 2.30669,-2.69486 1.67179,-6.5627 -1.37085,-8.35127 l -1.24974,-0.73463 -25.65651,-0.0713 c -9.26712,-0.10714 -19.3795,0.13033 -28.27077,-0.13986 l -31.736232,0.0788 H 64.148147 l -4.588542,-1.95516 c -16.261951,-6.92915 -25.563759,-10.77143 -26.40059,-10.90525 -2.158794,-0.3452 -4.640629,1.07133 -5.608051,3.20085 -1.007155,2.21699 -0.343018,5.23768 1.451871,6.60353 0.458046,0.34855 3.392655,1.70219 6.521353,3.00808 7.311876,3.98394 15.594697,6.55297 23.441367,9.96032 0.567924,0.24779 1.423584,0.61919 1.901465,0.82533 0.730389,0.31507 5.134597,0.37542 27.632396,0.37867 24.433034,0.004 26.684194,0.37267 27.275394,0.34101 z m -61.315153,-5.05865 c -3.17558,-1.40782 -5.846756,-2.5589 -8.468239,-3.59273 l -9.788007,-4.16741 c -3.56526,-1.52656 -6.69065,-2.85051 -6.945312,-2.94211 -0.56817,-0.20435 -0.604693,-1.0591 -0.06441,-1.5075 0.325742,-0.27034 0.70057,-0.19822 2.05052,0.39455 0.908553,0.39894 4.211759,1.79277 7.340456,3.09739 3.128698,1.30462 5.779643,2.63812 6.10625,2.74806 0.29296,0.0986 0.615367,0.28609 0.813776,0.37602 2.639307,1.19622 3.884512,1.41383 8.6297,3.43959 l 6.803428,2.91041 h 8.352832 8.352832 c 0.397092,0.56092 0.862162,1.08671 1.157848,1.70908 0,0.0787 -4.077891,0.14103 -9.061979,0.13861 l -9.061979,-0.004 z m 63.527823,0.78854 c 1.12634,-0.005 1.33599,1.65645 -1.87857,1.5545 l -37.769611,0.14514 -0.745149,-1.70908 24.57592,-0.0228 15.28463,0.0161 m -1.34462,1.56932 c -2.76458,-1.68087 2.83646,-1.56814 3.09134,-1.55427 0.38869,0.0212 1.69218,-0.009 18.05223,-0.022 l 20.33348,-0.0371 -0.70915,1.877 -19.07663,-5.2e-4 c -12.5505,-3.4e-4 -19.51055,-0.20963 -19.71354,-0.21461 z m 40.76813,0.26262 c 0.16306,0.006 -3.88211,-1.80174 0.68431,-1.93017 0.24835,-0.007 9.89131,0.004 10.51402,0.24272 0.54254,0.20819 0.54254,1.3227 0,1.53089 z"
       id="path1"
       sodipodi:nodetypes="ccccccccccccsscsssssccsccccccccccccccccssccccssssssscsccscccscscssccsccssssssscsccccssssssscccsccccccsccccscccssccsscc" /><path
       style="fill:#ffdd55;stroke-width:0.866;stroke:#ff6600;stroke-dasharray:none"
       d="m 76.443384,140.22449 c -0.819494,-0.30747 -1.542868,-0.85889 -2.127534,-1.62177 -0.72723,-0.94889 -0.954578,-1.49795 -1.149643,-2.77648 -0.140694,-0.92211 0.137405,-2.45885 2.728099,-15.07572 1.586614,-7.72692 2.94593,-14.50282 3.0207,-15.05752 0.180245,-1.3372 0.637667,-2.39367 1.482719,-3.42442 1.317965,-1.60761 -0.443602,-1.5191 28.925835,-1.45333 l 26.36218,0.059 0.90079,0.67893 c 1.03591,0.78073 2.02839,2.43826 2.18531,3.64959 0.12776,0.98694 1.14758,5.71589 4.10732,19.04748 1.28373,5.78233 2.20419,10.34805 2.20419,10.93336 0,1.8247 -0.98003,3.68031 -2.45366,4.6459 l -0.74949,0.49106 -32.48901,0.0381 c -17.868967,0.021 -32.695478,-0.0396 -32.947806,-0.13404 z m 9.051575,-2.2012 c -0.359223,-1.00199 -0.937452,-3.70197 -3.214013,-15.00751 -1.345622,-6.68243 -2.501245,-12.07827 -2.568053,-11.99077 -0.191771,0.25118 -4.915655,23.54159 -4.915655,24.2359 0,0.92102 0.716789,2.07809 1.641833,2.65032 0.774679,0.47921 1.023571,0.50428 5.005858,0.50428 3.922632,0 4.181651,-0.025 4.05003,-0.39222 z m 56.299231,-0.11212 c 0.89787,-0.55542 1.64183,-1.72365 1.64183,-2.57818 0,-0.30293 -0.75095,-3.94409 -1.66879,-8.09146 -0.91784,-4.14735 -1.93602,-8.75095 -2.26262,-10.23019 -0.3266,-1.47923 -0.93974,-4.2528 -1.36251,-6.16347 -0.42275,-1.9107 -0.8459,-3.96617 -0.9403,-4.5677 -0.24068,-1.53388 -0.82315,-2.58076 -1.71041,-3.07417 -0.71924,-0.39998 -1.78879,-0.41705 -26.39764,-0.42179 -14.106416,-0.002 -25.914732,0.0603 -26.240709,0.14015 -0.744875,0.18247 -1.943574,1.55681 -2.125866,2.43743 -0.10512,0.50786 0.572967,4.17443 2.838374,15.34758 1.637075,8.07415 3.017098,14.93015 3.066715,15.23551 0.110751,0.68166 1.360902,2.17728 1.931909,2.31126 0.230129,0.054 12.117597,0.11194 26.416597,0.12865 l 25.9982,0.0305 z"
       id="path3"
       sodipodi:nodetypes="ssssssscssssscssssssssssssssssscsssscscs" /><path
       style="fill:#ffdd55;fill-opacity:1;stroke:#ff6600;stroke-width:0.866;stroke-dasharray:none"
       d="m 85.500682,138.14213 c 1.173916,1.93009 3.170014,2.18851 3.170014,2.18851"
       id="path4"
       sodipodi:nodetypes="cc" /><text
       xml:space="preserve"
       style="font-style:normal;font-variant:normal;font-weight:900;font-stretch:normal;font-size:21.5115px;font-family:Arial;-inkscape-font-specification:'Arial, Heavy';font-variant-ligatures:normal;font-variant-caps:normal;font-variant-numeric:normal;font-variant-east-asian:normal;text-align:center;text-anchor:middle;fill:#ffff00;stroke:#550000;stroke-width:0.9;stroke-dasharray:none"
       x="87.867134"
       y="127.56738"
       id="text1"
       transform="skewX(11.470802)"><tspan
         sodipodi:role="line"
         id="tspan1"
         style="font-style:normal;font-variant:normal;font-weight:900;font-stretch:normal;font-size:21.5115px;font-family:Arial;-inkscape-font-specification:'Arial, Heavy';font-variant-ligatures:normal;font-variant-caps:normal;font-variant-numeric:normal;font-variant-east-asian:normal;fill:#ffff00;stroke:#550000;stroke-width:0.9;stroke-dasharray:none"
         x="87.867134"
         y="127.56738">R</tspan></text></g></svg>
