<?xml version="1.0" encoding="UTF-8" standalone="no"?>
<!-- Created with Inkscape (http://www.inkscape.org/) -->

<svg
   width="163.19897mm"
   height="116.51075mm"
   viewBox="0 0 163.19897 116.51075"
   version="1.1"
   id="svg1"
   xml:space="preserve"
   inkscape:version="1.3.2 (091e20e, 2023-11-25, custom)"
   sodipodi:docname="bed_inactive-icon.svg"
   xmlns:inkscape="http://www.inkscape.org/namespaces/inkscape"
   xmlns:sodipodi="http://sodipodi.sourceforge.net/DTD/sodipodi-0.dtd"
   xmlns="http://www.w3.org/2000/svg"
   xmlns:svg="http://www.w3.org/2000/svg"><sodipodi:namedview
     id="namedview1"
     pagecolor="#ffffff"
     bordercolor="#000000"
     borderopacity="0.25"
     inkscape:showpageshadow="2"
     inkscape:pageopacity="0.0"
     inkscape:pagecheckerboard="0"
     inkscape:deskcolor="#d1d1d1"
     inkscape:document-units="mm"
     inkscape:zoom="1.4142136"
     inkscape:cx="295.92418"
     inkscape:cy="252.79067"
     inkscape:window-width="1920"
     inkscape:window-height="1009"
     inkscape:window-x="-8"
     inkscape:window-y="-8"
     inkscape:window-maximized="1"
     inkscape:current-layer="layer1" /><defs
     id="defs1" /><g
     inkscape:label="Capa 1"
     inkscape:groupmode="layer"
     id="layer1"
     transform="translate(-23.402272,-91.822017)"><path
       style="fill:#d18758;fill-opacity:1;stroke:#00b1d5;stroke-width:0.07;stroke-linejoin:bevel"
       d="m 120.69898,94.284037 -0.46772,11.318863 -11.5995,-0.0935 -0.18709,15.24773 11.69305,0.28063 v 11.13178 l 15.15418,0.0935 0.28063,-11.22532 11.41241,-0.8419 0.18709,-14.03165 -11.13178,-0.93544 -0.93544,-11.318863 z"
       id="path2" /><path
       style="fill:#d38d5e;fill-opacity:1;stroke:#00b1d5;stroke-width:0.07;stroke-linejoin:bevel"
       d="m 27.726947,153.53419 -2.80633,2.61924 0.187089,2.99342 0.374177,3.55468 1.683798,1.6838 31.805074,14.40583 121.607635,0.18709 2.61924,-2.24507 0.56126,-1.49671 0.56127,-2.43215 v -2.99342 l -1.12253,-2.05797 -1.30962,-0.74836 -2.61924,-1.6838 H 64.770504 l -30.121276,-12.34785 -2.619241,-1.30962 -2.057976,0.37418 z"
       id="path7" /><rect
       style="fill:#ff8671;fill-opacity:1;stroke:#00b1d5;stroke-width:0.07;stroke-linejoin:bevel"
       id="rect7"
       width="159.58664"
       height="15.902536"
       x="25.669039"
       y="179.29657" /><path
       style="fill:#a93800;fill-opacity:1"
       d="m 183.69085,202.475 v -5.68854 H 105.37419 27.057521 v 3.30729 l -0.09133,8.1477 -1.4946,-0.18266 -1.859914,0.27398 -0.209405,-38.15271 0.06457,-33.49498 2.003178,-0.0913 1.455209,0.27399 0.05997,6.73747 c 0.03432,3.85629 0.06275,7.40652 0.06615,7.88937 l 0.0062,0.87791 0.732991,-0.52193 c 1.324914,-0.94343 3.365444,-1.44701 5.299065,-1.30777 1.443761,0.10396 2.731589,0.52398 6.932527,2.26101 2.837656,1.17333 5.174861,2.06344 5.213676,2.07956 4.553615,1.89063 10.934697,4.48296 13.20515,5.57077 0.208317,0.0998 5.578032,2.70834 6.088679,2.72217 l 113.590713,0.3211 c 2.00098,0.0957 2.61474,0.24092 3.96875,0.93924 l 1.60172,0.82607 v -6.06625 -6.06625 h 1.45521 1.45521 v 27.51666 27.51667 h -1.45521 -1.45521 z m -2.57969,-8.86082 2.57969,-0.003 v -6.48229 -6.4823 h -78.3046 -78.304602 l -0.07821,4.43177 c -0.04302,2.43748 -0.04347,5.35266 -10e-4,6.47819 l 0.0772,2.04642 7.463423,0.0702 c 5.871163,0.0553 57.994065,0.0342 146.568109,-0.0593 z M 30.86953,190.84234 c -0.403304,-0.29956 -0.44576,-0.47104 -0.211298,-0.85341 0.281947,-0.4598 3.208426,-0.47851 74.848248,-0.47851 71.63982,0 74.56629,0.0187 74.84824,0.47851 0.79112,1.29019 4.60701,1.22759 -74.84777,1.22796 -63.550094,2.9e-4 -74.204752,-0.0532 -74.63742,-0.37455 z m 8.138279,-13.07821 c 0.339581,0.03 3.752732,0.0361 7.584781,0.0135 4.802801,-0.0284 6.938121,-0.12887 6.873242,-0.32351 -0.09966,-0.29898 -2.59646,-1.44666 -6.961436,-3.19989 l -3.703261,-1.54484 c -0.29402,0 -14.558914,-6.16378 -15.128287,-6.53684 l -0.615327,-0.40318 v 5.98355 5.98356 h 5.002313 c 5.034403,0 4.001888,0.0372 6.947975,0.0276 z m 78.469031,0.0414 c 0.49052,0.10503 6.64655,-0.32742 30.8958,-0.3259 34.44047,0.002 32.09499,0.13401 33.83776,-1.90202 2.30669,-2.69486 1.67179,-6.5627 -1.37085,-8.35127 l -1.24974,-0.73463 -25.65651,-0.0713 c -9.26712,-0.10714 -19.3795,0.13033 -28.27077,-0.13986 l -31.736232,0.0788 H 64.148147 l -4.588542,-1.95516 c -16.261951,-6.92915 -25.563759,-10.77143 -26.40059,-10.90525 -2.158794,-0.3452 -4.640629,1.07133 -5.608051,3.20085 -1.007155,2.21699 -0.343018,5.23768 1.451871,6.60353 0.458046,0.34855 3.392655,1.70219 6.521353,3.00808 7.311876,3.98394 15.594697,6.55297 23.441367,9.96032 0.567924,0.24779 1.423584,0.61919 1.901465,0.82533 0.730389,0.31507 5.134597,0.37542 27.632396,0.37867 24.433034,0.004 26.684194,0.37267 27.275394,0.34101 z m -61.315153,-5.05865 c -3.17558,-1.40782 -5.846756,-2.5589 -8.468239,-3.59273 l -9.788007,-4.16741 c -3.56526,-1.52656 -6.69065,-2.85051 -6.945312,-2.94211 -0.56817,-0.20435 -0.604693,-1.0591 -0.06441,-1.5075 0.325742,-0.27034 0.70057,-0.19822 2.05052,0.39455 0.908553,0.39894 4.211759,1.79277 7.340456,3.09739 3.128698,1.30462 5.779643,2.63812 6.10625,2.74806 0.29296,0.0986 0.615367,0.28609 0.813776,0.37602 2.639307,1.19622 3.884512,1.41383 8.6297,3.43959 l 6.803428,2.91041 h 8.352832 8.352832 c 0.397092,0.56092 0.862162,1.08671 1.157848,1.70908 0,0.0787 -4.077891,0.14103 -9.061979,0.13861 l -9.061979,-0.004 z m 63.527823,0.78854 c 1.12634,-0.005 1.33599,1.65645 -1.87857,1.5545 l -37.769611,0.14514 -0.745149,-1.70908 24.57592,-0.0228 15.28463,0.0161 m -1.34462,1.56932 c -2.76458,-1.68087 2.83646,-1.56814 3.09134,-1.55427 0.38869,0.0212 1.69218,-0.009 18.05223,-0.022 l 20.33348,-0.0371 -0.70915,1.877 -19.07663,-5.2e-4 c -12.5505,-3.4e-4 -19.51055,-0.20963 -19.71354,-0.21461 z m 40.76813,0.26262 c 0.16306,0.006 -3.88211,-1.80174 0.68431,-1.93017 0.24835,-0.007 9.89131,0.004 10.51402,0.24272 0.54254,0.20819 0.54254,1.3227 0,1.53089 z m -37.20704,-43.8783 13.10515,0.22603 v -5.37784 c 0,-7.06226 -0.5613,-6.4927 6.49319,-6.58878 l 5.28077,-0.0719 0.0709,-6.41615 0.0709,-6.41614 -4.96564,-0.0221 c -2.73111,-0.0121 -5.25131,-0.0531 -5.60045,-0.091 -1.24264,-0.13494 -1.34957,-0.64361 -1.34957,-6.41983 v -5.373384 h -5.77471 l -7.16316,-0.153375 -0.0267,6.081179 c 0,4.56336 -0.0383,4.95839 -0.52789,5.448 -0.49771,0.49771 -0.83805,0.52418 -5.95329,0.46302 l -5.42541,-0.0649 1.7e-4,6.54844 1.7e-4,6.54844 h 5.54125 c 6.87274,0 6.46858,-0.39468 6.365,4.96021 l -0.16766,8.66753 c 1.06877,0.47926 -1.84764,0.67142 -2.71515,0.24938 -0.69934,-0.34022 -0.13077,-7.95221 -0.80885,-10.86357 l -2.06306,0.14595 c -1.41883,-0.009 -3.84911,-0.002 -5.40063,0.014 -4.23236,0.0442 -3.93133,0.79165 -3.91433,-9.71963 0.0131,-8.12746 0.04,-8.58672 0.53029,-9.07703 0.47861,-0.47861 0.91377,-0.51644 5.9404,-0.51644 h 5.42396 v -2.38125 c 0,-2.035892 0.0972,-3.709681 0.0489,-5.622627 -0.11093,-3.607818 0.007,-3.792453 2.73983,-3.770085 2.39111,0.01957 1.61129,2e-6 2.79761,0.01961 0.21285,0.0035 3.20398,-0.10029 6.67171,-0.07166 5.90279,0.04873 6.32894,0.08481 6.68073,0.565642 0.29543,0.403796 0.37576,1.662296 0.37576,5.886979 V 103.653 h 5.42396 c 5.0266,0 5.46179,0.0378 5.94039,0.51643 0.4898,0.4898 0.51736,0.95155 0.53433,8.95359 0.0173,8.17432 6.5e-4,8.45908 -0.53564,9.14086 l -0.55353,0.7037 h -5.40475 -5.40476 v 5.40506 c 0,4.56091 -0.0649,5.46999 -0.41577,5.82083 l -16.70737,-0.31666 z m 1.91854,-1.90131 c -0.21986,-0.33644 -0.17187,-0.68437 -0.11129,-1.03149 0.0465,-0.26636 0.15511,-0.19171 0.31769,-0.28072 0.20941,-0.0752 1.70183,-0.0775 3.87547,-0.0775 l 3.66516,-0.18709 v -4.92125 -4.92125 c 0,0 -0.10114,-0.90884 0.28608,-1.31934 0.449,-0.476 1.51308,-0.47982 1.51308,-0.47982 h 5.70186 c 5.1227,0 5.72778,0.0463 5.95715,0.45618 0.16195,0.2894 0.16335,0.62798 0.004,0.92605 -0.22765,0.42537 -0.73896,0.46985 -5.40152,0.46985 -4.79729,0 -5.72029,-0.34146 -6.0667,0.17399 -0.28241,0.42021 -0.1417,1.23712 -0.1417,5.9908 0,3.61891 -0.2562,4.89493 -0.50459,5.21349 -0.18234,0.23385 -1.07821,0.24035 -2.92176,0.22676 -2.62292,-0.0193 -3.84725,0.0923 -5.50275,-0.12565 z M 111.34097,117.7191 c -0.0869,-0.27371 -0.082,-0.6956 0.0109,-0.93753 0.15042,-0.392 0.70547,-0.43205 5.09922,-0.368 l 4.93044,0.0719 c 0,0 0.66803,0.10329 0.64501,0.85654 -0.0207,0.67558 -0.64501,0.73096 -0.64501,0.73096 l -4.94128,0.0719 c -4.63912,0.0675 -4.95094,0.0415 -5.09923,-0.42575 z m 20.0153,-12.26679 c -0.21905,-0.21905 -0.3175,-1.56266 -0.3175,-4.33323 0,-3.34121 0.0704,-4.07414 0.41905,-4.363506 0.30413,-0.25241 0.53995,-0.271512 0.8599,-0.06966 0.37611,0.237288 0.44865,0.87437 0.49401,4.338806 0.0521,3.98268 -0.0806,4.74509 -0.8264,4.74509 -0.17136,0 -0.45444,-0.14287 -0.62906,-0.3175 z"
       id="path1"
       sodipodi:nodetypes="ccccccccccccsscsssssccsccccccccccccccccssccccssssssscsccscccscscssccsccssssssscsccccssssssscccsccccccsccccscccssccsscccccsscccccsccccsccccsscsccccsscssssssscsssscccsccccccsccccssscssssscccssccssccsssscsss" /><path
       style="fill:#a1edff;fill-opacity:1;stroke:#d40000;stroke-width:7.99000072;stroke-linejoin:bevel;stroke-dasharray:none"
       d="M 38.369365,99.118475 C 67.181018,130.36228 67.181018,130.36228 67.181018,130.36228"
       id="path3" /><path
       style="fill:#a1edff;fill-opacity:1;stroke:#d40000;stroke-width:9.39000061;stroke-linejoin:bevel;stroke-dasharray:none"
       d="M 66.279166,98.533327 C 37.467513,129.77714 37.467513,129.77714 37.467513,129.77714"
       id="path3-6" /></g></svg>
