<?xml version="1.0" encoding="UTF-8" standalone="no"?>
<!-- Created with Inkscape (http://www.inkscape.org/) -->

<svg
   width="163.19897mm"
   height="116.51075mm"
   viewBox="0 0 163.19897 116.51075"
   version="1.1"
   id="svg1"
   xml:space="preserve"
   inkscape:version="1.3.2 (091e20e, 2023-11-25, custom)"
   sodipodi:docname="bed_cleaning_icon.svg"
   xmlns:inkscape="http://www.inkscape.org/namespaces/inkscape"
   xmlns:sodipodi="http://sodipodi.sourceforge.net/DTD/sodipodi-0.dtd"
   xmlns="http://www.w3.org/2000/svg"
   xmlns:svg="http://www.w3.org/2000/svg"><sodipodi:namedview
     id="namedview1"
     pagecolor="#ffffff"
     bordercolor="#000000"
     borderopacity="0.25"
     inkscape:showpageshadow="2"
     inkscape:pageopacity="0.0"
     inkscape:pagecheckerboard="0"
     inkscape:deskcolor="#d1d1d1"
     inkscape:document-units="mm"
     inkscape:zoom="1.4142136"
     inkscape:cx="256.3262"
     inkscape:cy="202.58609"
     inkscape:window-width="1920"
     inkscape:window-height="1009"
     inkscape:window-x="-8"
     inkscape:window-y="-8"
     inkscape:window-maximized="1"
     inkscape:current-layer="layer1"
     showgrid="false" /><defs
     id="defs1" /><g
     inkscape:label="Capa 1"
     inkscape:groupmode="layer"
     id="layer1"
     transform="translate(-23.402272,-91.822017)"><rect
       style="fill:#5ae1ff;fill-opacity:1;stroke:#00b1d5;stroke-width:0.07;stroke-linejoin:bevel"
       id="rect7"
       width="159.58664"
       height="15.902536"
       x="25.086069"
       y="179.37952" /><path
       style="fill:#44b3ff;fill-opacity:1;stroke:#00b1d5;stroke-width:0.07;stroke-linejoin:bevel"
       d="m 28.266577,153.37419 -2.80633,2.61924 0.187089,2.99342 0.374177,3.55468 1.683798,1.6838 31.805074,14.40583 121.607635,0.18709 2.61924,-2.24507 0.56126,-1.49671 0.56127,-2.43215 v -2.99342 l -1.12253,-2.05797 -1.30962,-0.74836 -2.61924,-1.6838 H 65.310134 l -30.121276,-12.34785 -2.619241,-1.30962 -2.057976,0.37418 z"
       id="path7" /><path
       style="fill:#0067e3;fill-opacity:1"
       d="m 183.69085,202.475 v -5.68854 H 105.37419 27.057521 v 3.30729 l -0.09133,8.1477 -1.4946,-0.18266 -1.859914,0.27398 -0.209405,-38.15271 0.06457,-33.49498 2.003178,-0.0913 1.455209,0.27399 0.05997,6.73747 c 0.03432,3.85629 0.06275,7.40652 0.06615,7.88937 l 0.0062,0.87791 0.732991,-0.52193 c 1.324914,-0.94343 3.365444,-1.44701 5.299065,-1.30777 l 32.324773,12.69573 112.705972,0.25889 c 2.00098,0.0957 2.61474,0.24092 3.96875,0.93924 l 1.60172,0.82607 v -6.06625 -6.06625 h 1.45521 1.45521 v 27.51666 27.51667 h -1.45521 -1.45521 z m -2.57969,-8.86082 2.57969,-0.003 v -6.48229 -6.4823 h -78.3046 -78.304602 l -0.07821,4.43177 c -0.04302,2.43748 -0.04347,5.35266 -10e-4,6.47819 l 0.0772,2.04642 7.463423,0.0702 c 5.871163,0.0553 57.994065,0.0342 146.568109,-0.0593 z M 30.86953,190.84234 c -0.403304,-0.29956 -0.44576,-0.47104 -0.211298,-0.85341 0.281947,-0.4598 3.208426,-0.47851 74.848248,-0.47851 71.63982,0 74.56629,0.0187 74.84824,0.47851 0.79112,1.29019 4.60701,1.22759 -74.84777,1.22796 -63.550094,2.9e-4 -74.204752,-0.0532 -74.63742,-0.37455 z m 8.138279,-13.07821 c 0.339581,0.03 3.752732,0.0361 7.584781,0.0135 4.802801,-0.0284 6.938121,-0.12887 6.873242,-0.32351 -0.09966,-0.29898 -2.59646,-1.44666 -6.961436,-3.19989 l -3.703261,-1.54484 c -0.29402,0 -14.558914,-6.16378 -15.128287,-6.53684 l -0.615327,-0.40318 v 5.98355 5.98356 h 5.002313 c 5.034403,0 4.001888,0.0372 6.947975,0.0276 z m 78.469031,0.0414 c 0.49052,0.10503 6.64655,-0.32742 30.8958,-0.3259 34.44047,0.002 32.09499,0.13401 33.83776,-1.90202 2.30669,-2.69486 1.67179,-6.5627 -1.37085,-8.35127 l -1.24974,-0.73463 -25.65651,-0.0713 c -9.26712,-0.10714 -19.3795,0.13033 -28.27077,-0.13986 l -31.736232,0.0788 H 64.148147 l -4.588542,-1.95516 c -16.261951,-6.92915 -25.563759,-10.77143 -26.40059,-10.90525 -2.158794,-0.3452 -4.640629,1.07133 -5.608051,3.20085 -1.007155,2.21699 -0.343018,5.23768 1.451871,6.60353 0.458046,0.34855 3.392655,1.70219 6.521353,3.00808 7.311876,3.98394 15.594697,6.55297 23.441367,9.96032 0.567924,0.24779 1.423584,0.61919 1.901465,0.82533 0.730389,0.31507 5.134597,0.37542 27.632396,0.37867 24.433034,0.004 26.684194,0.37267 27.275394,0.34101 z m -61.315153,-5.05865 c -3.17558,-1.40782 -5.846756,-2.5589 -8.468239,-3.59273 l -9.788007,-4.16741 c -3.56526,-1.52656 -6.69065,-2.85051 -6.945312,-2.94211 -0.56817,-0.20435 -0.604693,-1.0591 -0.06441,-1.5075 0.325742,-0.27034 0.70057,-0.19822 2.05052,0.39455 0.908553,0.39894 4.211759,1.79277 7.340456,3.09739 3.128698,1.30462 5.779643,2.63812 6.10625,2.74806 0.29296,0.0986 0.615367,0.28609 0.813776,0.37602 2.639307,1.19622 3.884512,1.41383 8.6297,3.43959 l 6.803428,2.91041 h 8.352832 8.352832 c 0.397092,0.56092 0.862162,1.08671 1.157848,1.70908 0,0.0787 -4.077891,0.14103 -9.061979,0.13861 l -9.061979,-0.004 z m 63.527823,0.78854 c 1.12634,-0.005 1.33599,1.65645 -1.87857,1.5545 l -37.769611,0.14514 -0.745149,-1.70908 24.57592,-0.0228 15.28463,0.0161 m -1.34462,1.56932 c -2.76458,-1.68087 2.83646,-1.56814 3.09134,-1.55427 0.38869,0.0212 1.69218,-0.009 18.05223,-0.022 l 20.33348,-0.0371 -0.70915,1.877 -19.07663,-5.2e-4 c -12.5505,-3.4e-4 -19.51055,-0.20963 -19.71354,-0.21461 z m 40.76813,0.26262 c 0.16306,0.006 -3.88211,-1.80174 0.68431,-1.93017 0.24835,-0.007 9.89131,0.004 10.51402,0.24272 0.54254,0.20819 0.54254,1.3227 0,1.53089 z"
       id="path1"
       sodipodi:nodetypes="ccccccccccccsscscccsccccccccccccccccssccccssssssscsccscccscscssccsccssssssscsccccssssssscccsccccccsccccscccssccsscc" /><path
       style="fill:#d4aa00;stroke:#ffd42a;stroke-width:1.22162"
       d="m 106.94182,154.18554 c -0.49544,-0.41245 -0.66927,-1.05251 -0.92593,-3.40931 -0.36173,-3.32166 -0.80297,-5.19379 -1.7501,-7.42543 -1.94815,-4.59028 -5.298739,-8.55545 -9.42782,-11.15714 -3.645894,-2.29725 -7.042762,-3.43546 -11.288209,-3.78242 -2.834807,-0.23168 -3.62858,-0.65725 -3.622484,-1.94212 0.0076,-1.61202 0.877214,-2.24185 3.095639,-2.24223 2.813522,-4.8e-4 7.404174,-1.27579 10.247008,-2.8467 5.483286,-3.02998 9.884246,-8.27491 11.610356,-13.83692 0.1981,-0.63835 0.46796,-1.44716 0.59967,-1.79736 0.13172,-0.35022 0.3235,-1.65589 0.42619,-2.90154 0.28674,-3.478394 0.56828,-4.311471 1.60174,-4.739558 0.78007,-0.323102 0.98059,-0.297556 1.66301,0.21196 0.70334,0.525097 0.8087,0.861954 1.1253,3.597228 0.52364,4.52416 1.59993,7.6808 3.78637,11.10503 4.16485,6.52267 12.25538,11.2081 19.35356,11.2081 1.90538,0 3.06678,0.77287 3.06678,2.04084 0,1.39286 -0.86672,1.9115 -3.56394,2.13271 -5.80265,0.47587 -11.10424,2.81371 -15.09424,6.65608 -4.45631,4.29148 -6.68916,8.92114 -7.55098,15.65653 -0.30982,2.42132 -0.52472,3.22288 -0.95045,3.54514 -0.74745,0.56579 -1.66781,0.53786 -2.40147,-0.0729 z m 2.50731,-14.52699 c 1.12483,-2.33401 2.70278,-4.51015 4.95141,-6.82849 2.1122,-2.1777 3.96829,-3.55957 6.97601,-5.19367 1.70186,-0.92463 2.29819,-1.38329 2.02356,-1.55638 -0.21418,-0.13498 -1.10752,-0.6195 -1.98523,-1.07672 -5.12252,-2.66839 -9.63891,-7.29412 -12.3021,-12.59995 -0.42053,-0.83781 -0.86971,-1.5233 -0.99815,-1.5233 -0.12846,0 -0.51541,0.6202 -0.8599,1.37824 -1.99239,4.38411 -6.9353,9.74508 -11.035501,11.96885 -1.324098,0.71813 -2.684256,1.51591 -3.022575,1.77285 -0.601004,0.45644 -0.570476,0.48846 1.329863,1.39541 2.457253,1.17275 6.012993,3.84165 8.028893,6.0264 1.62896,1.76541 4.25906,5.65961 4.91115,7.27158 0.20982,0.51866 0.52885,0.93969 0.70896,0.93566 0.18013,-0.004 0.75325,-0.89076 1.27361,-1.97048 z"
       id="path3"
       sodipodi:nodetypes="csssscscsssssscssscsscccssscsssssssscc" /></g></svg>
