<?xml version="1.0" encoding="UTF-8" standalone="no"?>
<!-- Created with Inkscape (http://www.inkscape.org/) -->

<svg
   width="164.19897mm"
   height="73.208054mm"
   viewBox="0 0 164.19897 73.208054"
   version="1.1"
   id="svg1"
   xml:space="preserve"
   inkscape:version="1.3.2 (091e20e, 2023-11-25, custom)"
   sodipodi:docname="bed_occupied_icon.svg"
   xmlns:inkscape="http://www.inkscape.org/namespaces/inkscape"
   xmlns:sodipodi="http://sodipodi.sourceforge.net/DTD/sodipodi-0.dtd"
   xmlns="http://www.w3.org/2000/svg"
   xmlns:svg="http://www.w3.org/2000/svg"><sodipodi:namedview
     id="namedview1"
     pagecolor="#ffffff"
     bordercolor="#000000"
     borderopacity="0.25"
     inkscape:showpageshadow="2"
     inkscape:pageopacity="0.0"
     inkscape:pagecheckerboard="0"
     inkscape:deskcolor="#d1d1d1"
     inkscape:document-units="mm"
     inkscape:zoom="1.4142136"
     inkscape:cx="283.19626"
     inkscape:cy="95.812966"
     inkscape:window-width="1920"
     inkscape:window-height="1009"
     inkscape:window-x="-8"
     inkscape:window-y="-8"
     inkscape:window-maximized="1"
     inkscape:current-layer="layer1"
     showgrid="false" /><defs
     id="defs1" /><g
     inkscape:label="Capa 1"
     inkscape:groupmode="layer"
     id="layer1"
     transform="translate(-22.902269,-135.7033)"
     style="stroke:#aa0044"><rect
       style="fill:#ffaacc;fill-opacity:1;stroke:#aa0044;stroke-width:0.07;stroke-linejoin:bevel"
       id="rect7"
       width="159.58664"
       height="15.902536"
       x="25.086069"
       y="179.37952" /><path
       style="fill:#ff80b2;fill-opacity:1;stroke:#aa0044;stroke-width:0.07;stroke-linejoin:bevel"
       d="m 28.266577,153.37419 -2.80633,2.61924 0.187089,2.99342 0.374177,3.55468 1.683798,1.6838 31.805074,14.40583 121.607635,0.18709 2.61924,-2.24507 0.56126,-1.49671 0.56127,-2.43215 v -2.99342 l -1.12253,-2.05797 -1.30962,-0.74836 -2.61924,-1.6838 H 65.310134 l -30.121276,-12.34785 -2.619241,-1.30962 -2.057976,0.37418 z"
       id="path7" /><path
       style="fill:#d40055;fill-opacity:1;stroke:#aa0044;stroke-width:0.07;stroke-linejoin:bevel"
       d="m 109.46306,151.12912 -1.30962,2.05798 v 1.87089 l 1.30962,0.93544 2.80633,0.74835 2.24506,0.74836 0.93545,0.93544 0.18708,0.93545 v 1.30962 l -0.18708,1.87088 -0.74836,0.93545 -0.37417,0.74835 h 59.49419 l 0.18709,-13.09621 -0.56127,-1.4967 -0.93544,-0.56127 -0.74835,-0.56127 -1.49672,0.18709 -1.4967,1.6838 -1.30962,0.93544 z"
       id="path6" /><path
       style="fill:#ff2a7f;fill-opacity:1;stroke:#aa0044;stroke-width:0.07;stroke-linejoin:bevel"
       d="m 92.625079,149.8195 -0.18709,6.36102 14.780011,0.37418 0.18708,-6.54811 z"
       id="path5" /><path
       style="fill:#ffaacc;fill-opacity:1;stroke:#aa0044;stroke-width:0.07;stroke-linejoin:bevel"
       d="m 85.515709,156.5547 6.735194,0.18708 -0.18709,-5.42557 -10.476965,-0.18709 -4.677217,0.93545 -3.928861,2.43215 -3.367599,3.92886 -1.683797,3.18051 -1.309619,2.80633 44.714195,0.37418 2.80633,-1.12254 1.12253,-2.43215 v -2.24506 l -0.93544,-1.30962 -3.18051,-0.93545 -14.780009,0.18709 -7.670633,0.56127 z"
       id="path4" /><path
       style="fill:#ffaacc;fill-opacity:1;stroke:#aa0044;stroke-width:0.0619737;stroke-linejoin:bevel"
       id="path3"
       sodipodi:type="arc"
       sodipodi:cx="55.581516"
       sodipodi:cy="148.1357"
       sodipodi:rx="10.480985"
       sodipodi:ry="10.293906"
       sodipodi:start="0"
       sodipodi:end="6.2159467"
       sodipodi:open="true"
       sodipodi:arc-type="arc"
       d="m 66.062501,148.1357 a 10.480985,10.293906 0 0 1 -10.304811,10.29245 10.480985,10.293906 0 0 1 -10.651236,-9.94644 10.480985,10.293906 0 0 1 9.946741,-10.62683 10.480985,10.293906 0 0 1 10.985622,9.58919" /><path
       style="fill:#aa0044;fill-opacity:1;stroke:#aa0044"
       d="m 183.69085,202.475 v -5.68854 H 105.37419 27.057521 v 3.30729 l -0.09133,8.1477 -1.4946,-0.18266 -1.859914,0.27398 -0.209405,-38.15271 0.06457,-33.49498 2.003178,-0.0913 1.455209,0.27399 0.05997,6.73747 c 0.03432,3.85629 0.06275,7.40652 0.06615,7.88937 l 0.0062,0.87791 0.732991,-0.52193 c 1.324914,-0.94343 3.365444,-1.44701 5.299065,-1.30777 1.443761,0.10396 2.731589,0.52398 6.932527,2.26101 2.837656,1.17333 5.18381,2.10913 5.213676,2.07956 0.02987,-0.0296 -0.232799,-0.65367 -0.583699,-1.38687 -2.240444,-4.68142 -1.251732,-10.11977 2.519802,-13.86003 2.376579,-2.35687 5.052951,-3.42089 8.635502,-3.43312 4.701373,-0.0161 8.858949,2.67008 10.989477,7.10009 0.715355,1.48744 0.862217,2.13238 0.957278,4.20388 0.124343,2.70959 -0.167568,4.25947 -1.183607,6.28428 -1.388197,2.76646 -3.934055,5.01525 -6.761343,5.97238 -0.7692,0.2604 -1.384917,0.57097 -1.36826,0.69016 0.03197,0.22877 5.578032,2.70834 6.088679,2.72217 0.163972,0.004 0.987343,-1.15278 1.829714,-2.57161 2.835205,-4.77542 4.997914,-6.98524 8.631363,-8.8194 2.979164,-1.50388 4.840437,-1.83008 10.442151,-1.83008 h 5.072413 l 0.546378,-0.92604 0.546378,-0.92604 h 8.434586 c 9.09013,0 8.89106,-0.0294 9.39412,1.38906 0.15501,0.4371 1.7654,0.46302 28.77159,0.46302 h 28.6074 l 1.5155,-1.06306 c 2.60893,-1.83006 4.34133,-1.95187 5.96613,-0.41948 1.1867,1.1192 1.51162,2.49831 1.46316,6.21032 -0.0221,1.69258 -0.0305,4.34278 -0.0187,5.88933 l 0.0215,2.81191 2.36703,0.11317 c 2.00098,0.0957 2.61474,0.24092 3.96875,0.93924 l 1.60172,0.82607 v -6.06625 -6.06625 h 1.45521 1.45521 v 27.51666 27.51667 h -1.45521 -1.45521 z m -2.57969,-8.86082 2.57969,-0.003 v -6.48229 -6.4823 h -78.3046 -78.304602 l -0.07821,4.43177 c -0.04302,2.43748 -0.04347,5.35266 -10e-4,6.47819 l 0.0772,2.04642 7.463423,0.0702 c 5.871163,0.0553 57.994065,0.0342 146.568109,-0.0593 z M 30.86953,190.84234 c -0.403304,-0.29956 -0.44576,-0.47104 -0.211298,-0.85341 0.281947,-0.4598 3.208426,-0.47851 74.848248,-0.47851 71.63982,0 74.56629,0.0187 74.84824,0.47851 0.79112,1.29019 4.60701,1.22759 -74.84777,1.22796 -63.550094,2.9e-4 -74.204752,-0.0532 -74.63742,-0.37455 z m 8.138279,-13.07821 c 0.339581,0.03 3.752732,0.0361 7.584781,0.0135 4.802801,-0.0284 6.938121,-0.12887 6.873242,-0.32351 -0.09966,-0.29898 -2.59646,-1.44666 -6.961436,-3.19989 l -3.703261,-1.54484 c -0.29402,0 -14.558914,-6.16378 -15.128287,-6.53684 l -0.615327,-0.40318 v 5.98355 5.98356 h 5.002313 c 5.034403,0 4.001888,0.0372 6.947975,0.0276 z m 78.469031,0.0414 c 0.49052,0.10503 6.64655,-0.32742 30.8958,-0.3259 34.44047,0.002 32.09499,0.13401 33.83776,-1.90202 2.30669,-2.69486 1.67179,-6.5627 -1.37085,-8.35127 l -1.24974,-0.73463 -25.65651,-0.0713 c -9.26712,-0.10714 -19.3795,0.13033 -28.27077,-0.13986 l -31.736232,0.0788 H 64.148147 l -4.588542,-1.95516 c -16.261951,-6.92915 -25.563759,-10.77143 -26.40059,-10.90525 -2.158794,-0.3452 -4.640629,1.07133 -5.608051,3.20085 -1.007155,2.21699 -0.343018,5.23768 1.451871,6.60353 0.458046,0.34855 3.392655,1.70219 6.521353,3.00808 7.311876,3.98394 15.594697,6.55297 23.441367,9.96032 0.567924,0.24779 1.423584,0.61919 1.901465,0.82533 0.730389,0.31507 5.134597,0.37542 27.632396,0.37867 24.433034,0.004 26.684194,0.37267 27.275394,0.34101 z m -61.315153,-5.05865 c -3.17558,-1.40782 -5.846756,-2.5589 -8.468239,-3.59273 l -9.788007,-4.16741 c -3.56526,-1.52656 -6.69065,-2.85051 -6.945312,-2.94211 -0.56817,-0.20435 -0.604693,-1.0591 -0.06441,-1.5075 0.325742,-0.27034 0.70057,-0.19822 2.05052,0.39455 0.908553,0.39894 4.211759,1.79277 7.340456,3.09739 3.128698,1.30462 5.779643,2.63812 6.10625,2.74806 0.29296,0.0986 0.615367,0.28609 0.813776,0.37602 2.639307,1.19622 3.884512,1.41383 8.6297,3.43959 l 6.803428,2.91041 h 8.352832 8.352832 c 0.397092,0.56092 0.862162,1.08671 1.157848,1.70908 0,0.0787 -4.077891,0.14103 -9.061979,0.13861 l -9.061979,-0.004 z m 63.527823,0.78854 c 1.12634,-0.005 1.33599,1.65645 -1.87857,1.5545 l -37.769611,0.14514 -0.745149,-1.70908 24.57592,-0.0228 15.28463,0.0161 m -1.34462,1.56932 c -2.76458,-1.68087 2.83646,-1.56814 3.09134,-1.55427 0.38869,0.0212 1.69218,-0.009 18.05223,-0.022 l 20.33348,-0.0371 -0.70915,1.877 -19.07663,-5.2e-4 c -12.5505,-3.4e-4 -19.51055,-0.20963 -19.71354,-0.21461 z m 40.76813,0.26262 c 0.16306,0.006 -3.88211,-1.80174 0.68431,-1.93017 0.24835,-0.007 9.89131,0.004 10.51402,0.24272 0.54254,0.20819 0.54254,1.3227 0,1.53089 z m -28.65788,-12.15287 21.11692,-0.008 c 11.61431,-0.004 21.21424,-0.10488 21.33319,-0.22382 0.11894,-0.11895 0.18416,-2.874 0.14492,-6.12235 -0.0862,-7.13322 -0.0504,-7.06273 -2.64637,-5.21024 l -1.72549,1.23128 H 138.88156 109.6176 l -0.16587,0.66087 c -0.29852,1.1894 -0.0245,1.38879 2.05423,1.49482 1.62355,0.0828 2.13121,0.22875 3.12864,0.89933 2.00942,1.35094 2.97649,4.09184 2.30613,6.53613 l -0.19954,0.7276 h 6.36435 z m -6.14928,-1.69343 c -0.27683,-0.20242 -0.42144,-0.58987 -0.36621,-0.98115 l 0.0913,-0.64664 h 21.00554 c 19.4407,0 21.02657,0.0333 21.28784,0.44754 0.21624,0.34282 0.16778,0.57406 -0.20715,0.98835 -0.48501,0.53594 -0.67407,0.54076 -20.92162,0.53362 -16.04243,-0.006 -20.53047,-0.0791 -20.88967,-0.34172 z m -10.97207,1.34398 c 1.09909,-0.74067 1.51387,-1.95965 1.04883,-3.08235 -0.68791,-1.66076 -0.19193,-1.60919 -15.611054,-1.62336 l -14.031267,-0.0129 v -1.57398 -1.57398 h 3.307292 3.307291 v -1.05833 -1.05834 h -5.013425 c -4.607148,0 -5.182382,0.0534 -7.09835,0.65863 -2.423909,0.76572 -4.707097,2.18231 -6.455049,4.005 -1.337152,1.39433 -3.994422,5.49527 -3.731266,5.75842 0.08871,0.0887 9.886959,0.16129 21.773893,0.16129 h 21.612605 z m -53.99349,-5.90564 c 1.279778,-0.40636 2.971271,-1.62834 4.083261,-2.94987 2.98166,-3.5435 2.485328,-9.37354 -1.063254,-12.48924 -1.824158,-1.60163 -3.637606,-2.26452 -6.195007,-2.26452 -1.884419,0 -2.493263,0.11452 -3.756156,0.70649 -1.932675,0.90592 -3.772986,2.75244 -4.649798,4.66548 -1.013557,2.21139 -0.994529,5.10494 0.0486,7.39003 2.020412,4.42596 6.760108,6.45692 11.532357,4.94163 z m -3.680674,-1.27115 c -0.614376,-0.74028 -0.233506,-1.32331 1.002273,-1.53428 2.672016,-0.45614 4.86893,-2.32585 5.204219,-4.4291 0.341041,-2.13933 0.359226,-2.17314 1.121431,-2.08526 0.673047,0.0776 0.715839,0.1602 0.678165,1.30896 -0.04908,1.49649 -0.788618,3.23819 -1.92407,4.53139 -1.506572,1.71589 -5.336565,3.1065 -6.082018,2.20829 z m 51.041094,-2.5129 v -1.82314 l -0.8599,-0.0951 c -0.47294,-0.0523 -3.21138,-0.0605 -6.085417,-0.0181 l -5.225521,0.077 v 1.84125 1.84124 h 6.085418 6.08542 z"
       id="path1"
       sodipodi:nodetypes="ccccccccccccsscsssssscssssscssscccssscsssscssccccccccccccccccssccccssssssscsccscccscscssccsccssssssscsccccssssssscccsccccccsccccscccssccsscccssscccsssscsccscssscssssscccccccscssscssssssssssscsssssccscccccccc" /></g></svg>
