<?xml version="1.0" encoding="UTF-8" standalone="no"?>
<!-- Created with Inkscape (http://www.inkscape.org/) -->

<svg
   width="205.25023mm"
   height="46.859215mm"
   viewBox="0 0 205.25023 46.859215"
   version="1.1"
   id="svg1"
   xml:space="preserve"
   inkscape:version="1.3.2 (091e20e, 2023-11-25, custom)"
   sodipodi:docname="contagion_risk_icon.svg"
   xmlns:inkscape="http://www.inkscape.org/namespaces/inkscape"
   xmlns:sodipodi="http://sodipodi.sourceforge.net/DTD/sodipodi-0.dtd"
   xmlns:xlink="http://www.w3.org/1999/xlink"
   xmlns="http://www.w3.org/2000/svg"
   xmlns:svg="http://www.w3.org/2000/svg"><sodipodi:namedview
     id="namedview1"
     pagecolor="#ffffff"
     bordercolor="#000000"
     borderopacity="0.25"
     inkscape:showpageshadow="2"
     inkscape:pageopacity="0.0"
     inkscape:pagecheckerboard="0"
     inkscape:deskcolor="#d1d1d1"
     inkscape:document-units="mm"
     inkscape:zoom="1.0242632"
     inkscape:cx="350.49585"
     inkscape:cy="-95.190377"
     inkscape:window-width="1920"
     inkscape:window-height="1009"
     inkscape:window-x="-8"
     inkscape:window-y="-8"
     inkscape:window-maximized="1"
     inkscape:current-layer="layer1" /><defs
     id="defs1"><linearGradient
       id="linearGradient1"
       inkscape:collect="always"><stop
         style="stop-color:#0f00af;stop-opacity:1;"
         offset="0"
         id="stop1" /><stop
         style="stop-color:#12114e;stop-opacity:0;"
         offset="1"
         id="stop2" /></linearGradient><linearGradient
       inkscape:collect="always"
       xlink:href="#linearGradient1"
       id="linearGradient2"
       x1="2.3558578"
       y1="150.24913"
       x2="207.57587"
       y2="150.24913"
       gradientUnits="userSpaceOnUse"
       gradientTransform="translate(-209.83443,-300.5662)" /></defs><g
     inkscape:label="Capa 1"
     inkscape:groupmode="layer"
     id="layer1"
     transform="translate(-2.3407494,-126.81952)"><rect
       style="fill:url(#linearGradient2);stroke:#002255;stroke-width:0.692108;stroke-opacity:1"
       id="rect10-1"
       width="204.52791"
       height="46.034233"
       x="-207.13251"
       y="-173.33418"
       transform="rotate(179.9629)" /><path
       style="fill:#0044aa;stroke-width:0.232093"
       d="m 28.299515,171.6207 c -5.098206,-0.35258 -9.792327,-2.491 -13.334007,-6.07435 -3.508086,-3.54935 -5.6080084,-8.14621 -6.1162758,-13.38893 -0.3421036,-3.52874 0.4408652,-7.61602 2.1286698,-11.11216 0.723045,-1.49773 1.470565,-2.68005 2.602094,-4.11562 0.47815,-0.60663 2.0365,-2.1941 2.701704,-2.75218 3.020154,-2.53382 6.564899,-4.07931 10.584287,-4.61467 0.919029,-0.12241 1.13817,-0.13385 2.604246,-0.1359 1.959438,-0.002 3.096917,0.1091 4.699961,0.46205 4.048005,0.89123 7.602805,2.87683 10.447783,5.83579 2.036871,2.11849 3.606355,4.66257 4.596577,7.45097 0.941455,2.65103 1.350714,5.42469 1.230097,8.33685 -0.16325,3.94153 -1.36798,7.71424 -3.48375,10.90972 -2.397098,3.62035 -5.926675,6.42082 -9.988519,7.92522 -1.647821,0.6103 -3.644749,1.06714 -5.351855,1.22437 -0.787624,0.0725 -2.594136,0.0991 -3.321012,0.0489 z m 3.550144,-4.09014 c 2.267253,-0.28747 4.456036,-1.08021 6.460692,-2.33998 0.591172,-0.3715 1.534376,-1.04262 1.654778,-1.17744 0.08241,-0.0923 -0.209112,-0.39224 -11.763542,-12.10021 -6.5165,-6.60305 -11.869672,-11.99871 -11.89597,-11.99037 -0.07448,0.0236 -0.743921,1.00947 -1.140453,1.67953 -1.121497,1.89503 -1.864409,3.89006 -2.207397,5.92778 -0.183661,1.09113 -0.226906,1.75859 -0.198753,3.06748 0.03044,1.41508 0.156231,2.38934 0.485882,3.76315 0.64879,2.7038 1.772056,5.11828 3.281096,7.05276 0.484484,0.62108 1.777591,1.93413 2.383855,2.42062 2.404847,1.92975 5.381249,3.15069 8.959606,3.67529 1.038287,0.15221 2.870725,0.16206 3.980206,0.0213 z m -3.238921,-2.18997 c -0.200384,-0.0386 -0.365218,-0.19296 -0.470174,-0.44014 -0.115399,-0.2718 -0.09682,-0.39152 0.142886,-0.92184 0.364088,-0.80549 0.53808,-1.85272 0.540164,-3.251 0.0023,-1.54773 -0.109922,-2.07405 -0.462527,-2.16906 -0.327574,-0.0882 -0.556742,0.0754 -0.889221,0.63492 -0.283284,0.47672 -0.38762,0.86817 -0.406163,1.52373 -0.01798,0.63566 -0.07264,0.79615 -0.300897,0.8841 -0.382617,0.14742 -0.968441,-0.13011 -1.047827,-0.49634 -0.04573,-0.211 0.04669,-0.37998 0.361122,-0.66046 0.386964,-0.34514 0.637735,-0.86077 0.739189,-1.51998 0.127559,-0.82869 0.154474,-0.76444 -0.441091,-1.05267 -0.509557,-0.2466 -0.688528,-0.35067 -1.318129,-0.76652 -0.31707,-0.20943 -0.332123,-0.21402 -0.516869,-0.15795 -0.452342,0.13733 -1.130013,0.56265 -1.975834,1.24013 -0.705458,0.56503 -1.060366,1.00707 -1.456267,1.81379 -0.33051,0.67348 -0.584978,0.85941 -1.002652,0.73262 -0.208735,-0.0634 -0.592865,-0.45359 -0.698361,-0.70942 -0.146604,-0.35553 0.119617,-0.64788 0.852612,-0.9363 0.656522,-0.25831 1.452462,-0.97515 2.050594,-1.84678 0.324676,-0.47314 0.785927,-1.25644 0.877054,-1.48942 l 0.0807,-0.20632 -0.191199,-0.25366 c -0.252561,-0.33507 -0.489182,-0.71738 -0.673952,-1.08889 l -0.150507,-0.30262 -0.25018,4.6e-4 c -0.837558,0.002 -1.61177,0.47772 -3.058382,1.87953 -0.364323,0.35305 -0.374931,0.35919 -0.573414,0.33275 -0.299426,-0.0399 -0.560347,-0.34913 -0.733785,-0.86969 -0.235102,-0.70564 -0.167009,-1.09531 0.229902,-1.3156 0.158558,-0.088 0.196673,-0.0897 0.649312,-0.029 0.562355,0.0754 0.956109,0.047 1.563726,-0.11283 0.562618,-0.148 1.116215,-0.38291 1.520669,-0.64527 0.317294,-0.2058 0.325087,-0.21568 0.290034,-0.36752 -0.01973,-0.0858 -0.08052,-0.37314 -0.134912,-0.63847 l -0.09889,-0.4824 -0.167251,-0.0401 c -0.09199,-0.0219 -0.597306,-0.0437 -1.122935,-0.0481 -0.765989,-0.006 -1.03098,0.01 -1.334987,0.0784 -0.583994,0.13318 -0.969453,0.29762 -1.407492,0.60047 -0.354431,0.24504 -0.428437,0.27727 -0.636816,0.27727 -0.210653,0 -0.252972,-0.019 -0.3971,-0.17837 -0.33629,-0.37183 -0.370191,-0.94296 -0.07205,-1.21368 0.178862,-0.1624 0.327433,-0.16866 0.870822,-0.0366 0.218487,0.0532 0.552384,0.0966 0.741993,0.0969 0.973252,9.5e-4 2.50132,-0.54043 3.239096,-1.1476 l 0.286706,-0.23595 0.03503,-0.38538 c 0.01932,-0.21197 0.06589,-0.50516 0.103577,-0.65153 0.08108,-0.31487 0.07445,-0.32703 -0.319238,-0.58562 -0.386681,-0.25398 -0.864041,-0.44554 -1.74026,-0.69833 -1.250298,-0.36073 -1.338823,-0.37335 -2.576243,-0.36748 -1.064899,0.005 -1.109142,0.001 -1.236243,-0.0998 -0.631945,-0.5037 -0.07177,-1.68774 0.797712,-1.68619 0.307003,4.7e-4 0.561947,0.13891 1.094944,0.5942 0.519899,0.4441 1.029151,0.64087 2.096579,0.81006 l 0.358383,0.0569 5.755246,5.82701 c 4.996357,5.0587 5.732319,5.82179 5.581536,5.78732 -0.11266,-0.0257 -0.271159,-0.0165 -0.451154,0.0264 -0.152604,0.0363 -0.333421,0.0665 -0.401815,0.0669 -0.284641,0.001 -0.653586,0.40993 -0.849099,0.93945 -0.05276,0.1428 -0.193357,0.74715 -0.312496,1.34303 -0.246949,1.23508 -0.311282,2.02546 -0.220224,2.70544 0.10742,0.80214 0.115518,1.2763 0.02524,1.46926 -0.127976,0.2733 -0.477808,0.44368 -0.788124,0.38384 z m 4.834296,-2.28005 c -0.183472,-0.18591 -0.26417,-0.40437 -0.244722,-0.66248 0.07896,-1.04836 -0.0237,-1.86936 -0.328323,-2.6254 -0.168038,-0.41699 -0.150651,-0.41063 0.422692,0.15472 0.360419,0.35539 0.380271,0.3863 0.430932,0.67112 0.06919,0.38939 0.278984,0.8931 0.547024,1.31391 0.195096,0.3063 0.21496,0.36485 0.21496,0.63403 0,0.40286 -0.143553,0.52989 -0.660624,0.58465 -0.245686,0.0261 -0.295741,0.0167 -0.381939,-0.0706 z m 9.632386,-2.224 c 0.07706,-0.0999 0.290358,-0.41034 0.474117,-0.68997 1.641545,-2.49776 2.544534,-4.86491 2.909049,-7.62599 0.102416,-0.77549 0.116352,-2.69016 0.02561,-3.51039 -0.232169,-2.09806 -0.865534,-4.31467 -1.792233,-6.27227 -2.205921,-4.65989 -5.94417,-7.65665 -11.050554,-8.85863 -1.650263,-0.38846 -3.432076,-0.5869 -4.842108,-0.53926 -2.7697,0.0936 -5.280617,0.86895 -7.794595,2.40696 -0.452197,0.27666 -1.413639,0.94473 -1.686585,1.17198 l -0.139298,0.11596 11.84649,11.98981 c 6.515571,6.59439 11.860805,11.99061 11.878311,11.99159 0.01751,9.6e-4 0.0948,-0.0799 0.171826,-0.17979 z m -0.78704,-5.7714 c -0.136872,-0.05 -0.429837,-0.224 -0.65099,-0.38681 -0.579904,-0.42691 -1.28738,-0.68717 -2.373352,-0.87305 l -0.597303,-0.10225 -5.459372,-5.52991 c -3.002667,-3.04144 -5.459372,-5.5438 -5.459372,-5.56079 0,-0.0169 0.10182,-0.0463 0.226358,-0.0653 0.313854,-0.0476 0.45948,-0.13502 0.652693,-0.39144 0.205123,-0.27221 0.385416,-0.81081 0.485179,-1.4493 0.04156,-0.2663 0.118259,-0.72037 0.170301,-1.00901 0.177959,-0.98664 0.165478,-1.94194 -0.03275,-2.51143 -0.197836,-0.56821 -0.117901,-1.08319 0.207136,-1.3344 0.145351,-0.11234 0.217449,-0.13232 0.477497,-0.13232 0.285534,0 0.315736,0.0109 0.445724,0.15813 0.203146,0.2304 0.190976,0.50254 -0.05145,1.14838 -0.31976,0.85204 -0.45531,1.89088 -0.416713,3.19375 0.02561,0.86272 0.120735,1.58706 0.249509,1.8994 0.08027,0.19463 0.325942,0.35438 0.545404,0.35462 0.228358,2.4e-4 0.519954,-0.31928 0.760923,-0.83384 0.25438,-0.54318 0.298658,-0.76754 0.287523,-1.45695 -0.0083,-0.46535 0.0071,-0.62195 0.06848,-0.74146 0.0942,-0.18313 0.159178,-0.21165 0.482213,-0.21165 0.35038,0 0.672237,0.20622 0.744132,0.47678 0.06395,0.24072 0.02179,0.35822 -0.238158,0.6625 -0.435685,0.51007 -0.624732,0.93003 -0.737058,1.63739 -0.117186,0.73828 -0.117782,0.73592 0.176815,0.83185 0.349152,0.11367 1.337255,0.6034 1.697959,0.8415 0.165133,0.10897 0.337173,0.1982 0.382273,0.19819 0.242708,-1.1e-4 1.376769,-0.82326 2.115244,-1.53535 0.563815,-0.54366 0.841155,-0.92399 1.216948,-1.66883 0.170337,-0.33759 0.36635,-0.65897 0.435625,-0.71418 0.137647,-0.10969 0.44763,-0.1348 0.659113,-0.0534 0.159821,0.0616 0.541795,0.41998 0.628339,0.58957 0.204384,0.40048 0.0048,0.65474 -0.833475,1.06244 -0.332051,0.16147 -0.715275,0.37872 -0.8516,0.48279 -0.486715,0.37154 -1.227548,1.37017 -1.683072,2.26875 -0.374568,0.73889 -0.368196,0.69989 -0.153128,0.93769 0.21122,0.23354 0.583726,0.80067 0.793899,1.20867 0.167538,0.32524 0.210578,0.3358 0.723684,0.17742 0.713668,-0.22032 1.20242,-0.56925 2.121653,-1.51473 0.713036,-0.73341 0.813168,-0.7975 1.072978,-0.68681 0.164966,0.0702 0.463838,0.39784 0.662507,0.72609 0.113018,0.18673 0.141218,0.29705 0.161917,0.63305 0.02977,0.48273 -0.02572,0.65721 -0.254571,0.80049 -0.142898,0.0896 -0.250997,0.10173 -1.033691,0.1167 -0.936512,0.018 -1.08839,0.0465 -1.858328,0.35092 -0.495791,0.19596 -1.1086,0.58616 -1.079636,0.68743 0.01227,0.0426 0.07836,0.27049 0.147029,0.50649 0.06871,0.23599 0.124904,0.47845 0.124904,0.53879 0,0.2194 0.07634,0.23341 1.11172,0.20403 1.505961,-0.0427 1.926556,-0.16862 3.057747,-0.91515 0.146042,-0.0964 0.309032,-0.15793 0.456121,-0.17225 0.198562,-0.0194 0.250021,-0.005 0.388513,0.11379 0.203254,0.17332 0.290023,0.38528 0.289809,0.70799 -2.15e-4,0.30659 -0.118139,0.52986 -0.341889,0.64708 -0.145625,0.0763 -0.188307,0.0761 -0.696376,-0.005 -1.083339,-0.17211 -1.956757,0.0162 -3.333849,0.71803 -0.236527,0.12055 -0.518143,0.29605 -0.62579,0.38991 l -0.195727,0.17067 -0.03263,0.4747 c -0.01786,0.26107 -0.06347,0.61631 -0.101234,0.78942 l -0.0686,0.31471 0.129737,0.10884 c 0.378592,0.31771 0.99894,0.55019 2.215044,0.83006 1.002834,0.2308 1.31408,0.26348 2.095833,0.22007 1.298384,-0.0721 1.451369,-0.0476 1.658731,0.26443 0.136301,0.20516 0.14503,0.57443 0.02013,0.85228 -0.111946,0.24906 -0.426824,0.53611 -0.660065,0.60174 -0.232526,0.0654 -0.23124,0.0655 -0.52704,-0.0424 z M 25.213175,140.21003 c -0.224619,-0.23301 -0.509403,-0.57619 -0.632841,-0.7626 -0.12345,-0.18642 -0.272506,-0.40045 -0.331265,-0.47564 -0.146015,-0.18685 -0.15272,-0.62291 -0.01191,-0.73119 0.25719,-0.19685 0.854423,-0.29847 1.005836,-0.17115 0.197597,0.16619 0.230061,0.33175 0.236969,1.20851 0.0048,0.59991 0.02798,0.92156 0.07979,1.10153 0.04025,0.13981 0.07039,0.25421 0.06717,0.25421 -0.0036,0 -0.189725,-0.19067 -0.414343,-0.42367 z"
       id="path1" /></g></svg>
