<?xml version="1.0" encoding="UTF-8" standalone="no"?>
<!-- Created with Inkscape (http://www.inkscape.org/) -->

<svg
   width="185.67072mm"
   height="185.15408mm"
   viewBox="0 0 185.67072 185.15408"
   version="1.1"
   id="svg1"
   xml:space="preserve"
   inkscape:version="1.3.2 (091e20e, 2023-11-25, custom)"
   sodipodi:docname="default_patient.svg"
   xmlns:inkscape="http://www.inkscape.org/namespaces/inkscape"
   xmlns:sodipodi="http://sodipodi.sourceforge.net/DTD/sodipodi-0.dtd"
   xmlns="http://www.w3.org/2000/svg"
   xmlns:svg="http://www.w3.org/2000/svg"><sodipodi:namedview
     id="namedview1"
     pagecolor="#ffffff"
     bordercolor="#000000"
     borderopacity="0.25"
     inkscape:showpageshadow="2"
     inkscape:pageopacity="0.0"
     inkscape:pagecheckerboard="0"
     inkscape:deskcolor="#d1d1d1"
     inkscape:document-units="mm"
     inkscape:zoom="0.51213161"
     inkscape:cx="17.573608"
     inkscape:cy="547.71077"
     inkscape:window-width="1920"
     inkscape:window-height="1009"
     inkscape:window-x="-8"
     inkscape:window-y="-8"
     inkscape:window-maximized="1"
     inkscape:current-layer="layer1" /><defs
     id="defs1" /><g
     inkscape:label="Capa 1"
     inkscape:groupmode="layer"
     id="layer1"
     transform="translate(-13.849051,-39.163996)"><rect
       style="fill:#ffeeaa;fill-opacity:1;stroke:#ffffff;stroke-width:0.2;stroke-dasharray:none"
       id="rect3"
       width="185.47072"
       height="184.95409"
       x="13.949051"
       y="39.263996"
       ry="0.24587519" /><path
       style="fill:#502d16;fill-opacity:1"
       d="m 86.986086,210.64809 c -11.419504,-0.64712 -15.761506,-0.95467 -19.360483,-1.3713 -14.26228,-1.65105 -22.492285,-3.1525 -28.215277,-5.14748 -3.105295,-1.08248 -4.935349,-1.96724 -4.736058,-2.2897 0.09696,-0.15688 0.03124,-0.1956 -0.146047,-0.086 -0.177287,0.10957 -0.51976,0.002 -0.76105,-0.23949 -0.24129,-0.24129 -0.505681,-0.37174 -0.587536,-0.28988 -0.08185,0.0818 -0.705765,-0.48389 -1.386465,-1.25721 -0.998056,-1.13385 -1.237638,-1.63258 -1.237638,-2.57637 0,-1.37426 0.816641,-3.10239 2.178309,-4.60964 1.496374,-1.65635 4.702942,-4.09019 5.08098,-3.85655 0.205907,0.12726 0.254011,0.0735 0.123356,-0.13793 -0.202067,-0.32695 0.201622,-0.49229 0.871824,-0.35707 0.16509,0.0333 0.199717,-0.0399 0.07695,-0.16266 -0.326311,-0.32631 0.907857,-1.10069 1.349349,-0.84665 0.206072,0.11858 0.274231,0.10475 0.151464,-0.0307 -0.309137,-0.34115 0.894103,-1.13515 1.320685,-0.87151 0.199751,0.12345 0.26496,0.0827 0.154264,-0.0964 -0.43153,-0.69823 18.228333,-9.25666 19.445332,-8.91869 0.377675,0.10488 0.476082,0.0733 0.25536,-0.0819 -0.234504,-0.16492 0.286257,-0.49824 1.500813,-0.96062 1.022957,-0.38944 2.447179,-0.96939 3.164938,-1.28878 0.717758,-0.3194 1.501444,-0.50534 1.741524,-0.41322 0.24008,0.0921 0.373038,0.0648 0.295463,-0.0607 -0.07758,-0.12552 0.421933,-0.44731 1.110019,-0.71508 0.688087,-0.26778 2.736871,-1.0578 4.552854,-1.75561 5.309143,-2.0401 7.120152,-3.11058 9.40939,-5.56188 6.115343,-6.54824 6.894921,-17.12576 6.941892,-21.75646 0.04697,-4.6307 -0.740992,-4.06163 -1.40828,-4.74389 -0.214851,-0.21967 -0.300204,-0.55735 -0.189674,-0.7504 0.11053,-0.19305 0.09505,-0.25549 -0.0344,-0.13875 -0.12945,0.11674 -0.556517,-0.261 -0.949039,-0.83941 -1.263707,-1.86218 -4.657358,-7.98511 -4.508353,-8.13411 0.07935,-0.0794 -0.06327,-0.38665 -0.316922,-0.68289 -0.253653,-0.29625 -1.194677,-2.20962 -2.091166,-4.25195 -0.896489,-2.04233 -1.81153,-4.11854 -2.033425,-4.61381 -0.221895,-0.49527 -0.57953,-1.37324 -0.794745,-1.95106 -0.215214,-0.57781 -1.383532,-2.05253 -2.596261,-3.27715 -1.478737,-1.49324 -2.146101,-2.37998 -2.026248,-2.69232 0.09829,-0.25615 0.08213,-0.36913 -0.03593,-0.25108 -0.573495,0.5735 -3.593002,-8.37851 -4.134192,-12.25673 -0.406084,-2.910049 -0.339553,-6.266788 0.118597,-5.983636 0.125739,0.07771 0.210099,-0.09363 0.187466,-0.38076 -0.03052,-0.387139 0.191564,-0.524647 0.859337,-0.532086 0.900487,-0.01003 0.900487,-0.01003 1.291316,-4.502438 0.214955,-2.470823 0.663981,-5.97821 0.997835,-7.794193 0.333854,-1.815984 0.652614,-3.732221 0.708357,-4.258306 0.329902,-3.113553 4.711867,-14.311521 5.757346,-14.712708 0.21816,-0.08372 0.332359,-0.256243 0.253776,-0.383394 -0.148161,-0.239728 2.220641,-3.49324 3.501076,-4.808675 2.645751,-2.718068 6.599974,-5.563395 7.338009,-5.280184 0.244439,0.0938 0.371706,0.05287 0.282816,-0.09096 -0.15267,-0.247026 1.791177,-1.201357 3.432226,-1.685051 0.412724,-0.121648 0.887337,-0.329776 1.054697,-0.462506 0.167359,-0.132729 0.842725,-0.315868 1.500812,-0.406974 0.658088,-0.09111 2.412181,-0.38421 3.897981,-0.65134 5.28321,-0.949861 13.84857,-0.224622 19.06032,1.61386 2.41476,0.85182 5.41614,2.496671 5.19844,2.848908 -0.10753,0.173997 -0.0397,0.212975 0.15799,0.09079 0.7507,-0.463956 6.92259,5.140653 6.46907,5.874469 -0.12787,0.206898 -0.0791,0.260781 0.12304,0.135867 0.64887,-0.401025 4.5735,6.294321 5.96121,10.169701 1.7915,5.003072 3.31453,12.321762 3.71662,17.85967 0.43435,5.982178 0.49513,6.303412 1.19267,6.303412 1.48816,0 2.10838,3.128052 1.5012,7.571204 -0.53545,3.91824 -3.16232,11.63919 -3.95996,11.63919 -0.15665,0 -0.20906,0.12258 -0.11647,0.27239 0.21456,0.34717 -1.33049,2.72924 -1.77024,2.72924 -0.54965,0 -2.08292,1.5841 -2.61476,2.70146 -0.27503,0.57781 -0.86937,1.92854 -1.32075,3.00162 -0.45139,1.07309 -0.9147,2.0186 -1.02959,2.10114 -0.11488,0.0825 -0.30343,0.53605 -0.41899,1.00778 -0.44861,1.83128 -5.32814,11.12459 -7.63752,14.54606 -1.2696,1.88097 -1.78476,4.4248 -2.05016,10.12348 -0.26353,5.65858 0.73565,9.27665 3.82079,13.8352 0.79742,1.17826 1.35581,2.24673 1.24087,2.37439 -0.11494,0.12765 -0.0691,0.1528 0.10197,0.0559 0.17103,-0.0969 1.20862,0.72563 2.30576,1.82789 1.81875,1.82724 3.31341,2.79821 6.23808,4.05242 0.57781,0.24778 2.13115,0.92017 3.45187,1.49418 1.32071,0.57401 2.94159,1.20793 3.60195,1.40872 0.66035,0.20079 1.94355,0.70927 2.85154,1.12996 0.90799,0.42069 3.33931,1.4029 5.40293,2.18269 4.01725,1.51801 4.89083,1.89526 10.15442,4.38516 1.87042,0.88478 3.52507,1.6087 3.67699,1.6087 0.15192,0 0.27622,0.15758 0.27622,0.35018 0,0.19261 0.0769,0.27329 0.17091,0.17929 0.38443,-0.38444 10.63494,5.26555 10.63494,5.86188 0,0.13621 0.12138,0.17264 0.26972,0.081 0.14835,-0.0917 0.58733,0.16815 0.97553,0.57742 0.3882,0.40927 0.84511,0.74645 1.01537,0.7493 0.38264,0.006 3.46547,3.17585 4.11065,4.22614 0.87836,1.42986 0.28661,4.92377 -0.72774,4.29687 -0.19163,-0.11844 -0.24949,-0.0703 -0.13609,0.11316 0.3972,0.64267 -3.50726,3.17488 -5.49811,3.56576 -0.4076,0.08 -0.88505,0.26498 -1.06101,0.41102 -0.5436,0.45114 -6.78631,2.15147 -7.24826,1.97421 -0.23977,-0.092 -0.36797,-0.0573 -0.28488,0.0771 0.13181,0.21328 -4.62448,1.30629 -6.27322,1.4416 -0.33018,0.0271 -1.88352,0.26225 -3.45187,0.52256 -3.03545,0.50382 -12.16041,1.6243 -15.15821,1.86132 -12.10374,0.95699 -16.18799,1.10126 -33.46812,1.18222 -10.152993,0.0476 -20.418551,-0.0245 -22.812347,-0.16015 z m 24.744294,-56.78093 c 1.96747,-0.53659 4.85689,-2.24482 6.16052,-3.57056 1.52257,-1.5484 4.79662,-4.65101 4.6995,-5.71088 -0.0924,-1.00837 -1.83603,0.0895 -4.23733,1.89013 -3.05215,2.28871 -5.14628,3.34221 -7.86348,3.95588 -6.11999,1.38219 -12.257844,-0.35678 -17.203704,-4.87412 -0.566866,-0.51775 -2.202666,-1.78059 -2.372236,-1.78021 -0.420338,9.3e-4 0.566578,2.73779 0.980483,3.00001 0.182412,0.11557 0.986319,0.73856 1.15502,1.22658 0.283554,0.82025 3.446953,3.47052 3.874559,3.47052 0.103621,0 1.254203,0.69846 1.925411,0.99963 4.628707,2.07686 7.005967,2.99536 10.750147,1.97423 z"
       id="path3"
       sodipodi:nodetypes="csssscssssssssscssssssssssszsssscsssssscsssssssssssssssssssscssssssssssssssssssssssssssssscsssssssssssccsssssssssssss" /></g></svg>
