<?xml version="1.0" encoding="UTF-8" standalone="no"?>
<!-- Created with Inkscape (http://www.inkscape.org/) -->

<svg
   width="31.876101mm"
   height="39.217007mm"
   viewBox="0 0 31.876101 39.217007"
   version="1.1"
   id="svg1"
   xml:space="preserve"
   inkscape:version="1.3.2 (091e20e, 2023-11-25, custom)"
   sodipodi:docname="disabled_icon.svg"
   xmlns:inkscape="http://www.inkscape.org/namespaces/inkscape"
   xmlns:sodipodi="http://sodipodi.sourceforge.net/DTD/sodipodi-0.dtd"
   xmlns="http://www.w3.org/2000/svg"
   xmlns:svg="http://www.w3.org/2000/svg"><sodipodi:namedview
     id="namedview1"
     pagecolor="#ffffff"
     bordercolor="#000000"
     borderopacity="0.25"
     inkscape:showpageshadow="2"
     inkscape:pageopacity="0.0"
     inkscape:pagecheckerboard="0"
     inkscape:deskcolor="#d1d1d1"
     inkscape:document-units="mm"
     inkscape:zoom="4.0970529"
     inkscape:cx="68.829964"
     inkscape:cy="90.674934"
     inkscape:window-width="1920"
     inkscape:window-height="1009"
     inkscape:window-x="-8"
     inkscape:window-y="-8"
     inkscape:window-maximized="1"
     inkscape:current-layer="layer1" /><defs
     id="defs1" /><g
     inkscape:label="Capa 1"
     inkscape:groupmode="layer"
     id="layer1"
     transform="translate(-109.5174,-147.64863)"><path
       style="fill:#000000"
       d="m 120.02078,186.60461 c -1.53581,-0.30161 -4.3136,-1.61733 -5.65119,-2.67673 -0.59026,-0.46749 -1.58329,-1.5429 -2.20674,-2.3898 -3.98809,-5.41744 -3.41421,-12.82129 1.36419,-17.5999 0.90947,-0.9095 1.78366,-1.65364 1.94266,-1.65364 0.18419,0 0.28908,0.74428 0.28908,2.05137 0,1.91616 -0.0605,2.13639 -0.91719,3.34141 -1.43491,2.01823 -1.86361,3.41068 -1.84242,5.9843 0.0151,1.83611 0.14537,2.52677 0.7095,3.76229 0.91095,1.99509 2.85416,4.03312 4.82393,5.05931 1.47256,0.76715 1.79031,0.82952 4.24171,0.83249 2.46429,0.003 2.7738,-0.0577 4.41879,-0.86688 1.21834,-0.59928 2.21086,-1.35848 3.18891,-2.43926 l 1.42002,-1.56918 0.97421,1.27747 c 0.53581,0.7026 0.97421,1.41073 0.97421,1.57361 0,0.16288 -0.64711,0.94325 -1.43801,1.73415 -3.07939,3.0794 -7.81476,4.45821 -12.29166,3.57899 z m 15.54842,-6.26226 c -0.51395,-0.5457 -2.03478,-2.27211 -3.3796,-3.83646 l -2.44514,-2.84427 h -5.55799 -5.55798 l -0.75073,-0.75073 c -0.99822,-0.99822 -1.12122,-1.99761 -1.01549,-8.25089 0.10011,-5.92105 0.26694,-6.46493 2.28234,-7.44057 1.93522,-0.93682 3.99844,-0.35281 5.09248,1.44146 0.45671,0.74903 0.51566,1.35129 0.51653,5.27729 l 9.9e-4,4.43178 3.10886,0.004 c 1.93955,0.002 3.34848,0.12682 3.74597,0.33072 0.35041,0.17976 1.92112,2.21504 3.49045,4.52284 1.56934,2.30781 2.905,4.24768 2.96815,4.31082 0.0631,0.0632 0.5337,-0.0849 1.04569,-0.32909 0.58738,-0.28011 1.19119,-0.37857 1.63634,-0.26685 0.60239,0.15119 0.69345,0.2982 0.62323,1.00618 -0.0659,0.66407 -0.41439,1.08362 -1.75083,2.10759 -2.08003,1.5937 -2.77563,1.64283 -4.05327,0.28628 z m -16.71281,-24.96076 c -1.53824,-0.81181 -2.08693,-1.88885 -1.97508,-3.87694 0.0815,-1.44888 0.20052,-1.76276 0.9688,-2.55543 2.06256,-2.12802 5.70794,-1.55578 6.80427,1.06812 1.54244,3.69156 -2.27506,7.22348 -5.79799,5.36425 z"
       id="path1" /></g></svg>
