<?xml version="1.0" encoding="UTF-8" standalone="no"?>
<!-- Generator: Adobe Illustrator 21.0.0, SVG Export Plug-In . SVG Version: 6.00 Build 0)  -->

<svg
   version="1.1"
   id="Layer_1"
   x="0px"
   y="0px"
   viewBox="0 0 404.70001 282.60323"
   xml:space="preserve"
   sodipodi:docname="facility-active.svg"
   inkscape:version="1.3.2 (091e20e, 2023-11-25, custom)"
   width="404.70001"
   height="282.60324"
   xmlns:inkscape="http://www.inkscape.org/namespaces/inkscape"
   xmlns:sodipodi="http://sodipodi.sourceforge.net/DTD/sodipodi-0.dtd"
   xmlns="http://www.w3.org/2000/svg"
   xmlns:svg="http://www.w3.org/2000/svg"><defs
   id="defs52" /><sodipodi:namedview
   id="namedview52"
   pagecolor="#ffffff"
   bordercolor="#000000"
   borderopacity="0.25"
   inkscape:showpageshadow="2"
   inkscape:pageopacity="0.0"
   inkscape:pagecheckerboard="0"
   inkscape:deskcolor="#d1d1d1"
   inkscape:zoom="1.6962145"
   inkscape:cx="119.67826"
   inkscape:cy="205.4575"
   inkscape:window-width="1920"
   inkscape:window-height="1009"
   inkscape:window-x="-8"
   inkscape:window-y="-8"
   inkscape:window-maximized="1"
   inkscape:current-layer="Layer_1" />
<style
   type="text/css"
   id="style1">
	.st0{fill:#003E87;}
	.st1{fill:none;stroke:#FFFFFF;stroke-width:8;stroke-miterlimit:10;}
	.st2{fill:none;stroke:#000000;stroke-width:3;stroke-miterlimit:10;}
	.st3{fill:#FFFFFF;}
	.st4{fill:#6A8C91;stroke:#000000;stroke-width:3;stroke-miterlimit:10;}
	.st5{fill:#CDD9DA;stroke:#000000;stroke-width:3;stroke-miterlimit:10;}
	.st6{fill:#66B3BF;stroke:#000000;stroke-width:3;stroke-miterlimit:10;}
	.st7{fill:#CCE6EA;stroke:#000000;stroke-width:3;stroke-miterlimit:10;}
	.st8{fill:none;stroke:#1D1D1B;}
	.st9{fill:#8CC63F;}
	.st10{fill:none;stroke:#000000;stroke-width:3;}
	.st11{fill:#C0E28A;}
	.st12{fill:none;stroke:#666666;stroke-width:14;stroke-miterlimit:10;}
	.st13{fill:#FFFFFF;stroke:#050505;stroke-width:2;stroke-miterlimit:10;}
	.st14{fill:#65C8D0;stroke:#050505;stroke-width:2;stroke-miterlimit:10;}
	.st15{fill:#95A0A0;}
	.st16{fill:none;stroke:#050505;stroke-width:2;stroke-miterlimit:10;}
	.st17{fill:#95A0A0;stroke:#050505;stroke-width:2;stroke-miterlimit:10;}
	.st18{fill:#95A0A0;stroke:#050505;stroke-width:10;stroke-miterlimit:10;}
	.st19{fill:#FF0000;stroke:#050505;stroke-width:2;stroke-miterlimit:10;}
	.st20{fill:#FF0000;stroke:#000000;stroke-width:2;stroke-miterlimit:10;}
</style>

<g
   id="g36"
   transform="translate(-37.700001,-47.696759)">
	
	<rect
   x="50.200001"
   y="125.4"
   class="st5"
   width="379.79999"
   height="203.39999"
   id="rect5" />
	<rect
   x="39.200001"
   y="84.199997"
   class="st4"
   width="401.70001"
   height="40.5"
   id="rect6" />
	<g
   id="g17">
		<g
   id="g8">
			<rect
   x="64.900002"
   y="138.10001"
   class="st6"
   width="52.900002"
   height="52.900002"
   id="rect7" />
			<rect
   x="72.800003"
   y="146.3"
   class="st7"
   width="37.099998"
   height="36.5"
   id="rect8" />
		</g>
		<g
   id="g10">
			<rect
   x="139.3"
   y="138.10001"
   class="st6"
   width="52.900002"
   height="52.900002"
   id="rect9" />
			<rect
   x="147.2"
   y="146.3"
   class="st7"
   width="37.099998"
   height="36.5"
   id="rect10" />
		</g>
		<g
   id="g12">
			<rect
   x="213.60001"
   y="138.10001"
   class="st6"
   width="52.900002"
   height="52.900002"
   id="rect11" />
			<rect
   x="221.5"
   y="146.3"
   class="st7"
   width="37.099998"
   height="36.5"
   id="rect12" />
		</g>
		<g
   id="g14">
			<rect
   x="288"
   y="138.10001"
   class="st6"
   width="52.900002"
   height="52.900002"
   id="rect13" />
			<rect
   x="295.89999"
   y="146.3"
   class="st7"
   width="37.099998"
   height="36.5"
   id="rect14" />
		</g>
		<g
   id="g16">
			<rect
   x="362.29999"
   y="138.10001"
   class="st6"
   width="52.900002"
   height="52.900002"
   id="rect15" />
			<rect
   x="370.20001"
   y="146.3"
   class="st7"
   width="37.099998"
   height="36.5"
   id="rect16" />
		</g>
	</g>
	<g
   id="g27">
		<g
   id="g18">
			<rect
   x="64.900002"
   y="204.3"
   class="st6"
   width="52.900002"
   height="52.900002"
   id="rect17" />
			<rect
   x="72.800003"
   y="212.5"
   class="st7"
   width="37.099998"
   height="36.5"
   id="rect18" />
		</g>
		<g
   id="g20">
			<rect
   x="139.3"
   y="204.3"
   class="st6"
   width="52.900002"
   height="52.900002"
   id="rect19" />
			<rect
   x="147.2"
   y="212.5"
   class="st7"
   width="37.099998"
   height="36.5"
   id="rect20" />
		</g>
		<g
   id="g22">
			<rect
   x="213.60001"
   y="204.3"
   class="st6"
   width="52.900002"
   height="52.900002"
   id="rect21" />
			<rect
   x="221.5"
   y="212.5"
   class="st7"
   width="37.099998"
   height="36.5"
   id="rect22" />
		</g>
		<g
   id="g24">
			<rect
   x="288"
   y="204.3"
   class="st6"
   width="52.900002"
   height="52.900002"
   id="rect23" />
			<rect
   x="295.89999"
   y="212.5"
   class="st7"
   width="37.099998"
   height="36.5"
   id="rect24" />
		</g>
		<g
   id="g26">
			<rect
   x="362.29999"
   y="204.3"
   class="st6"
   width="52.900002"
   height="52.900002"
   id="rect25" />
			<rect
   x="370.20001"
   y="212.5"
   class="st7"
   width="37.099998"
   height="36.5"
   id="rect26" />
		</g>
	</g>
	<g
   id="g31"
   transform="translate(0.72952852,-4.2084368)">
		<g
   id="g29">
			<path
   class="st8"
   d="m 242.4,332.9 h -193 c 0,0 1.5,-53.5 47.7,-58.6 8.3,-0.9 16.1,2.4 22.9,6.6 6.7,-10.3 17.7,-16.9 30,-16.9 18.6,0 33.9,15 36.7,34.7 5.6,-4 12.2,-6.4 19.4,-6.2 36.3,0.7 36.3,40.4 36.3,40.4 z"
   id="path27" />
			<path
   class="st9"
   d="m 242.4,332.9 h -193 c 0,0 1.5,-53.5 47.7,-58.6 8.3,-0.9 16.1,2.4 22.9,6.6 6.7,-10.3 17.7,-16.9 30,-16.9 18.6,0 33.9,15 36.7,34.7 5.6,-4 12.2,-6.4 19.4,-6.2 36.3,0.7 36.3,40.4 36.3,40.4 z"
   id="path28" />
			<path
   class="st10"
   d="m 242.4,332.9 h -193 c 0,0 1.5,-53.5 47.7,-58.6 8.3,-0.9 16.1,2.4 22.9,6.6 6.7,-10.3 17.7,-16.9 30,-16.9 18.6,0 33.9,15 36.7,34.7 5.6,-4 12.2,-6.4 19.4,-6.2 36.3,0.7 36.3,40.4 36.3,40.4 z"
   id="path29" />
		</g>
		<g
   id="g30"
   transform="translate(0,-2)">
			<path
   class="st11"
   d="m 224.4,332.9 h -157 c 0,0 1.2,-29.4 38.8,-32.3 6.7,-0.5 13.1,1.3 18.7,3.6 5.5,-5.7 14.4,-9.3 24.4,-9.3 15.1,0 27.6,8.3 29.8,19.1 4.6,-2.2 10,-3.5 15.7,-3.4 29.6,0.4 29.6,22.3 29.6,22.3 z"
   id="path30" />
		</g>
	</g>
	<g
   id="g35"
   transform="translate(0,-1.5831264)">
		<g
   id="g33">
			<path
   class="st8"
   d="m 280.4,329.9 h 130 c 0,0 -1,-39.5 -32.1,-43.4 -5.6,-0.7 -10.9,1.8 -15.5,4.9 -4.5,-7.6 -11.9,-12.5 -20.2,-12.5 -12.5,0 -22.8,11.1 -24.7,25.6 -3.8,-2.9 -8.2,-4.7 -13,-4.6 -24.5,0.7 -24.5,30 -24.5,30 z"
   id="path31" />
			<path
   class="st9"
   d="m 280.4,329.9 h 130 c 0,0 -1,-39.5 -32.1,-43.4 -5.6,-0.7 -10.9,1.8 -15.5,4.9 -4.5,-7.6 -11.9,-12.5 -20.2,-12.5 -12.5,0 -22.8,11.1 -24.7,25.6 -3.8,-2.9 -8.2,-4.7 -13,-4.6 -24.5,0.7 -24.5,30 -24.5,30 z"
   id="path32" />
			<path
   class="st10"
   d="m 280.4,329.9 h 130 c 0,0 -1,-39.5 -32.1,-43.4 -5.6,-0.7 -10.9,1.8 -15.5,4.9 -4.5,-7.6 -11.9,-12.5 -20.2,-12.5 -12.5,0 -22.8,11.1 -24.7,25.6 -3.8,-2.9 -8.2,-4.7 -13,-4.6 -24.5,0.7 -24.5,30 -24.5,30 z"
   id="path33" />
		</g>
		<g
   id="g34"
   transform="translate(0,-1.667494)">
			<path
   class="st11"
   d="m 292.5,329.9 h 105.8 c 0,0 -0.8,-21.8 -26.1,-23.9 -4.5,-0.4 -8.8,1 -12.6,2.7 -3.7,-4.2 -9.7,-6.9 -16.5,-6.9 -10.2,0 -18.6,6.1 -20.1,14.1 -3.1,-1.6 -6.7,-2.6 -10.6,-2.5 -19.9,0.3 -19.9,16.5 -19.9,16.5 z"
   id="path34" />
		</g>
	</g>
	
</g>
<g
   id="g52"
   transform="matrix(1.937464,0,0,1.7588239,-249.88166,-24.946629)">
	
	
	
	
	
	
	
	
	
	
	
	<polygon
   class="st20"
   points="503.9,280.2 503.9,287.3 498.2,287.3 498.2,280.2 491.4,280.2 491.4,274.3 498.2,274.3 498.2,267.1 503.9,267.1 503.9,274.3 510.6,274.3 510.6,280.2 "
   id="polygon51"
   transform="matrix(1.9889391,0,0,1.7623599,-764.34182,-454.78027)" />
</g>
</svg>
