<?xml version="1.0" encoding="UTF-8" standalone="no"?>
<!-- Created with Inkscape (http://www.inkscape.org/) -->

<svg
   width="17.19792mm"
   height="40.121582mm"
   viewBox="0 0 17.19792 40.121583"
   version="1.1"
   id="svg1"
   xml:space="preserve"
   inkscape:version="1.3.2 (091e20e, 2023-11-25, custom)"
   sodipodi:docname="female_adult_icon.svg"
   xmlns:inkscape="http://www.inkscape.org/namespaces/inkscape"
   xmlns:sodipodi="http://sodipodi.sourceforge.net/DTD/sodipodi-0.dtd"
   xmlns="http://www.w3.org/2000/svg"
   xmlns:svg="http://www.w3.org/2000/svg"><sodipodi:namedview
     id="namedview1"
     pagecolor="#ffffff"
     bordercolor="#000000"
     borderopacity="0.25"
     inkscape:showpageshadow="2"
     inkscape:pageopacity="0.0"
     inkscape:pagecheckerboard="0"
     inkscape:deskcolor="#d1d1d1"
     inkscape:document-units="mm"
     inkscape:zoom="4.0970529"
     inkscape:cx="-5.3697135"
     inkscape:cy="64.070445"
     inkscape:window-width="1920"
     inkscape:window-height="1009"
     inkscape:window-x="-8"
     inkscape:window-y="-8"
     inkscape:window-maximized="1"
     inkscape:current-layer="layer1" /><defs
     id="defs1" /><g
     inkscape:label="Capa 1"
     inkscape:groupmode="layer"
     id="layer1"
     transform="translate(-112.92644,-149.20718)"><circle
       style="fill:#000000;stroke:#000000;stroke-width:3.19943;stroke-dasharray:none"
       id="path2"
       cx="121.37157"
       cy="152.58859"
       r="1.7816986" /><path
       style="fill:#000000"
       d="m 117.95352,188.79955 c -0.49709,-0.4971 -0.52916,-0.88195 -0.52916,-6.35 v -5.82084 l -0.59532,-0.0305 c -1.18972,-0.061 -1.33416,-0.109 -1.60224,-0.53259 -0.2763,-0.43657 -0.24785,-0.59063 1.97991,-10.72187 0.77598,-3.52893 0.84219,-5.05581 0.191,-4.40462 -0.15063,0.15063 -0.62286,2.34343 -1.0494,4.87289 -0.92137,5.46396 -1.03614,5.78963 -2.04037,5.78963 -0.92083,0 -1.3815,-0.43086 -1.3815,-1.29208 0,-1.01766 1.85533,-10.6523 2.16881,-11.26253 0.15321,-0.29825 0.52257,-0.81016 0.82079,-1.13758 0.52643,-0.57797 0.69059,-0.59531 5.63658,-0.59531 5.52826,0 5.49797,-0.008 6.31075,1.56424 0.38076,0.73632 2.26099,10.24241 2.26099,11.43118 0,0.36139 -0.14288,0.79995 -0.3175,0.97458 -0.47917,0.47916 -1.74339,0.38826 -2.02376,-0.14552 -0.13376,-0.25466 -0.56047,-2.42755 -0.94824,-4.82865 -0.75223,-4.65785 -1.03902,-5.69217 -1.49943,-5.40762 -0.38411,0.23739 -0.29832,0.76476 1.34788,8.28534 1.03399,4.72374 1.33926,6.56454 1.1408,6.87917 -0.27586,0.43732 -0.37255,0.47061 -1.53621,0.52879 l -0.66146,0.0331 v 5.82084 c 0,5.46805 -0.0321,5.8529 -0.52917,6.35 -0.29104,0.29104 -0.82682,0.52916 -1.19062,0.52916 -0.36381,0 -0.89959,-0.23812 -1.19063,-0.52916 -0.49709,-0.4971 -0.52916,-0.88195 -0.52916,-6.35 v -5.82084 h -0.66146 -0.66146 v 5.82084 c 0,5.46805 -0.0321,5.8529 -0.52917,6.35 -0.29104,0.29104 -0.82682,0.52916 -1.19062,0.52916 -0.36381,0 -0.89959,-0.23812 -1.19063,-0.52916 z"
       id="path3"
       sodipodi:nodetypes="csccssscssscscscsscscccscssscccscscc" /></g></svg>
