<?xml version="1.0" encoding="UTF-8" standalone="no"?>
<!-- Created with Inkscape (http://www.inkscape.org/) -->

<svg
   width="206.12328mm"
   height="46.726341mm"
   viewBox="0 0 206.12328 46.726341"
   version="1.1"
   id="svg1"
   inkscape:version="1.3.2 (091e20e, 2023-11-25, custom)"
   sodipodi:docname="heart_failure_level_icon.svg"
   xmlns:inkscape="http://www.inkscape.org/namespaces/inkscape"
   xmlns:sodipodi="http://sodipodi.sourceforge.net/DTD/sodipodi-0.dtd"
   xmlns="http://www.w3.org/2000/svg"
   xmlns:svg="http://www.w3.org/2000/svg">
  <sodipodi:namedview
     id="namedview1"
     pagecolor="#ffffff"
     bordercolor="#000000"
     borderopacity="0.25"
     inkscape:showpageshadow="2"
     inkscape:pageopacity="0.0"
     inkscape:pagecheckerboard="0"
     inkscape:deskcolor="#d1d1d1"
     inkscape:document-units="mm"
     inkscape:zoom="0.51213162"
     inkscape:cx="-209.90698"
     inkscape:cy="243.10157"
     inkscape:window-width="1920"
     inkscape:window-height="1009"
     inkscape:window-x="-8"
     inkscape:window-y="-8"
     inkscape:window-maximized="1"
     inkscape:current-layer="layer1" />
  <defs
     id="defs1" />
  <g
     inkscape:label="Capa 1"
     inkscape:groupmode="layer"
     id="layer1"
     transform="translate(-1.5874999,-124.88335)">
    <rect
       style="fill:#ffe680;stroke:#ffff00;stroke-width:0.692108"
       id="rect10-1"
       width="204.52791"
       height="46.034233"
       x="2.8368087"
       y="125.2294" />
    <rect
       style="fill:#ffffff;stroke:#800000;stroke-width:0.689901"
       id="rect9-3"
       width="19.752247"
       height="35.785606"
       x="8.0925531"
       y="130.6076" />
    <rect
       style="fill:#ffffff;stroke:#800000;stroke-width:0.698781"
       id="rect9-2-8"
       width="20.269051"
       height="35.776726"
       x="32.514191"
       y="130.61203" />
    <rect
       style="fill:#ffaaaa;stroke:#800000;stroke-width:0.707549"
       id="rect9-8-9"
       width="20.785967"
       height="35.76796"
       x="57.093445"
       y="130.61642" />
    <rect
       style="fill:#ffaaaa;stroke:#800000;stroke-width:0.689901"
       id="rect9-1-344"
       width="19.752247"
       height="35.785606"
       x="82.763123"
       y="130.6076" />
    <rect
       style="fill:#ff5555;stroke:#800000;stroke-width:0.685417"
       id="rect9-1-7-6"
       width="19.493889"
       height="35.790092"
       x="107.94855"
       y="130.60536" />
    <rect
       style="fill:#ff5555;stroke:#800000;stroke-width:0.689901"
       id="rect9-1-3-0"
       width="19.752247"
       height="35.785606"
       x="132.58846"
       y="130.6076" />
    <rect
       style="fill:#bd0000;stroke:#800000;stroke-width:0.689901;fill-opacity:1"
       id="rect9-1-34-66"
       width="19.752247"
       height="35.785606"
       x="157.48897"
       y="130.6076" />
    <rect
       style="fill:#bd0000;stroke:#800000;stroke-width:0.689901;fill-opacity:1"
       id="rect9-1-34-8-1"
       width="19.752247"
       height="35.785606"
       x="182.27611"
       y="130.6076" />
    <path
       style="fill:#ffffff;fill-opacity:1;stroke:none;stroke-width:0.152;stroke-dasharray:none"
       d="m 27.480035,132.32347 c -0.268317,0.0141 -0.493578,0.25214 -0.722815,0.32855 -0.06234,0.0208 -0.138359,-0.0294 -0.197131,0 -0.10642,0.0532 -0.221051,0.1613 -0.328551,0.19713 -0.04156,0.0139 -0.08986,-0.0139 -0.131422,0 -0.143152,-0.0246 -0.02191,0.10952 -0.06571,0.13142 -0.03918,0.0196 -0.09224,-0.0196 -0.131422,0 -0.01958,0.01 0.01548,0.0502 0,0.0657 -0.04632,0.0463 -0.21023,0.0919 -0.262842,0.19713 -0.01992,0.0398 -0.03817,0.1696 -0.06571,0.19714 -0.01548,0.0155 -0.05022,-0.0155 -0.06571,0 -0.01056,0.0106 -0.256045,0.31496 -0.26284,0.32855 -0.0098,0.0196 0.01548,0.0502 0,0.0657 -0.02846,0.0285 -0.220432,0.10315 -0.262842,0.13142 -0.127858,0.0852 -0.259678,0.26126 -0.394264,0.32855 -0.01958,0.01 -0.05022,-0.0155 -0.06571,0 -0.01548,0.0155 0.01548,0.0502 0,0.0657 -0.01548,0.0155 -0.05022,-0.0155 -0.06571,0 -0.07855,0.0785 -0.153358,0.24101 -0.19713,0.32855 -0.136737,0.27348 0.0045,-0.0703 -0.131422,0.0657 -0.01548,0.0155 0.0098,0.0461 0,0.0657 -0.03767,0.0753 -0.137107,0.0914 -0.197133,0.13142 -0.216789,0.14453 -0.40328,0.43163 -0.591394,0.52569 -0.289084,0.14454 -0.545068,0.71904 -0.722815,0.98566 -0.126135,0.1892 -0.324646,0.44826 -0.394264,0.6571 -0.01384,0.0416 0.01386,0.0899 0,0.13142 -0.04972,0.14917 -0.19163,0.31756 -0.26284,0.45997 -0.01959,0.0392 0.03098,0.10045 0,0.13143 -0.01549,0.0155 -0.05022,-0.0155 -0.06571,0 -0.07438,0.0744 -0.0825,0.29641 -0.131421,0.39426 -0.03827,0.0765 -0.09315,0.12059 -0.131421,0.19713 -0.01959,0.0392 0.01959,0.0922 0,0.13142 -0.04744,0.0949 -0.08399,0.16797 -0.131421,0.26284 -0.04358,0.0872 0.03108,0.23532 0,0.32856 -0.145359,0.43607 -0.06571,0.97763 -0.06571,1.44563 0,0.21296 -0.07117,1.04044 0,1.18278 0.139225,0.27846 0.383451,0.50407 0.525684,0.78853 0.0098,0.0196 -0.01549,0.0502 0,0.0657 0.09936,0.0994 0.391312,0.21805 0.525683,0.26284 0.08028,0.0268 0.337738,-0.0565 0.394263,0 0.01548,0.0155 -0.01958,0.0559 0,0.0657 0.03492,0.0175 0.944084,0.0139 0.985658,0 0.08567,-0.0286 0.177165,-0.0371 0.262842,-0.0657 0.05877,-0.0196 0.07265,-0.11183 0.131422,-0.13142 0.04156,-0.0139 0.09224,0.0196 0.131421,0 0.01958,-0.01 -0.0098,-0.0461 0,-0.0657 0.06049,-0.12097 0.136644,-0.0105 0.19713,-0.13142 0.04922,-0.0984 0.0077,-0.3072 0.06571,-0.39426 0.03437,-0.0515 0.09706,-0.0799 0.131422,-0.13142 0.442611,-0.66392 0.0011,-0.003 0.131421,-0.39427 0.01958,-0.0588 0.103716,-0.076 0.131421,-0.13142 0.0098,-0.0196 -0.01548,-0.0502 0,-0.0657 0.01548,-0.0155 0.04612,0.01 0.06571,0 0.09276,-0.0464 0.09753,-0.12935 0.131421,-0.19713 0.05404,-0.10808 0.208801,-0.0891 0.26284,-0.19713 0.0098,-0.0196 -0.01548,-0.0502 0,-0.0657 0.135959,-0.13596 -0.0053,0.20776 0.131421,-0.0657 0.0276,-0.0552 0.02959,-0.29243 0.06571,-0.32855 0.03463,-0.0346 0.104254,-0.025 0.131421,-0.0657 0.02429,-0.0365 -0.01958,-0.0922 0,-0.13142 0.0098,-0.0196 0.05022,0.0155 0.06571,0 0.01212,-0.0121 0.0536,-0.18503 0.06571,-0.19714 0.01548,-0.0155 0.05591,0.0196 0.06571,0 0.01958,-0.0392 -0.01386,-0.0899 0,-0.13142 0.0098,-0.0294 0.04381,-0.0438 0.06571,-0.0657 0.02191,-0.0438 0.05383,-0.0839 0.06571,-0.13142 0.01064,-0.0425 -0.01386,-0.0899 0,-0.13142 0.04625,-0.13876 0.184772,-0.27716 0.262842,-0.39426 0.03046,-0.0457 0.04025,-0.14621 0.06571,-0.19713 0.05928,-0.11856 0.205227,-0.21332 0.262843,-0.32856 0.01939,-0.0388 0.109625,-0.24104 0.131421,-0.26284 0.04302,-0.043 0.151855,-0.0409 0.19713,-0.13142 0.03692,-0.0738 0.11438,-0.28717 0.197134,-0.32855 0.01958,-0.01 0.05022,0.0155 0.06571,0 0.02606,-0.026 0.152212,-0.34934 0.197133,-0.39426 0.01548,-0.0155 0.05591,0.0196 0.06571,0 0.01958,-0.0392 -0.01958,-0.0922 0,-0.13142 0.0041,-0.008 0.169693,-0.0765 0.197133,-0.13143 0.05818,-0.11635 0.202018,-0.2069 0.26284,-0.32855 0.0098,-0.0196 -0.01548,-0.0502 0,-0.0657 0.01548,-0.0155 0.05022,0.0155 0.06571,0 0.01548,-0.0155 -0.01548,-0.0502 0,-0.0657 0.04037,-0.0404 0.153125,-0.0434 0.19713,-0.13142 0.0098,-0.0196 -0.01958,-0.0559 0,-0.0657 0.03918,-0.0196 0.09224,0.0196 0.131422,0 0.01958,-0.01 -0.01548,-0.0502 0,-0.0657 0.03123,-0.0312 0.231613,-0.10019 0.262842,-0.13142 0.01548,-0.0155 -0.01958,-0.0559 0,-0.0657 0.03918,-0.0196 0.08986,0.0139 0.131421,0 0.05877,-0.0196 0.07601,-0.10371 0.131421,-0.13142 0.170545,-0.0853 0.35514,-0.17757 0.525685,-0.26284 0.05541,-0.0277 0.07601,-0.10372 0.131419,-0.13142 0.0388,-0.0194 0.241046,-0.10963 0.262842,-0.13142 0.01426,-0.0143 0.0529,-0.12502 0.06571,-0.13143 0.03918,-0.0196 0.09224,0.0196 0.131421,0 0.01958,-0.01 0,-0.0438 0,-0.0657 0.02191,-0.0219 0.038,-0.0519 0.06571,-0.0657 0.03983,-0.0199 0.169596,-0.0382 0.197133,-0.0657 0.01548,-0.0155 -0.01548,-0.0502 0,-0.0657 0.0154,-0.0154 0.332566,-0.0452 0.394261,-0.0657 0.280705,-0.0936 0.478854,-0.36631 0.591394,-0.59139 0.04863,-0.0973 -0.04034,-0.30319 -0.06571,-0.32855 -0.0462,-0.0462 -1.596567,0.0462 -1.642763,0 -0.01548,-0.0155 0.01548,-0.0502 0,-0.0657 -0.03097,-0.031 -0.09224,0.0196 -0.131419,0 -0.0694,-0.0347 -0.132797,-0.0992 -0.197133,-0.13142 -0.104299,-0.0521 -0.153768,-0.21948 -0.197131,-0.26284 -0.01548,-0.0155 -0.05591,0.0196 -0.06571,0 -0.01958,-0.0392 0.01958,-0.0922 0,-0.13143 -0.0098,-0.0196 -0.05022,0.0155 -0.06571,0 -0.01548,-0.0155 0.01548,-0.0502 0,-0.0657 -0.0263,-0.0263 -0.0835,-0.0356 -0.131421,-0.13142 -0.01958,-0.0392 0.03097,-0.10044 0,-0.13142 -0.01548,-0.0155 -0.05022,0.0155 -0.06571,0 -0.01548,-0.0155 0.0098,-0.0461 0,-0.0657 -0.136734,-0.27347 0.0046,0.0703 -0.131418,-0.0657 -0.04441,-0.0444 0.0444,-0.087 0,-0.13142 -0.01548,-0.0155 -0.05022,0.0155 -0.06571,0 -0.01548,-0.0155 0.01548,-0.0502 0,-0.0657 -0.01548,-0.0155 -0.05022,0.0155 -0.06571,0 -0.0041,-0.004 -0.181538,-0.29736 -0.197133,-0.32855 -0.01958,-0.0392 0.01958,-0.0922 0,-0.13142 -0.101447,-0.2029 -0.142785,-0.53137 -0.394266,-0.65711 -0.149201,-0.0746 -0.316931,0.1113 -0.459973,0.19713 z"
       id="path2" />
    <path
       d="m 34.829706,166.57294 c -1.301,1.52995 -3.388298,2.27361 -6.380598,2.27361 -4.03e-4,0 -9.77e-4,0 -0.0017,0 -1.244989,-2e-4 -2.67275,-0.13384 -4.243382,-0.39718 -13.149833,-2.20482 -13.817234,-6.76049 -13.817234,-14.0113 0,-5.38421 3.42446,-7.30879 5.537898,-7.98385 -1.324544,-1.31279 -3.320066,-3.78489 -3.845772,-7.15 -0.628686,-4.02425 1.595002,-6.46019 2.739568,-7.42257 l -1.080108,-1.74476 c -0.184342,-0.29793 -0.149556,-0.68175 0.08569,-0.94136 l 1.523466,-1.68265 c 0.170976,-0.18906 0.423512,-0.28319 0.676048,-0.25293 0.253125,0.0303 0.475788,0.18139 0.597438,0.40543 l 1.361332,2.5061 0.555775,-0.12499 -0.294199,-2.58982 c -0.02516,-0.22246 0.0456,-0.44532 0.194757,-0.61237 0.149163,-0.16705 0.362395,-0.26256 0.586237,-0.26256 h 2.28068 c 0.429802,0 0.779814,0.3451 0.786102,0.7749 l 0.02593,1.8157 0.740116,-0.0251 0.335272,-2.28638 c 0.06113,-0.41585 0.440026,-0.71005 0.856463,-0.66799 l 1.953072,0.19652 c 0.426067,0.0429 0.739525,0.419 0.70474,0.84605 l -0.25509,3.1338 1.631754,1.99807 c 0.13678,0.16764 0.198491,0.38421 0.170584,0.59862 -0.02791,0.21441 -0.143071,0.40798 -0.318176,0.53514 -0.03519,0.0255 -3.532746,2.57782 -4.702662,4.77989 -0.697076,1.3124 -0.654824,2.67629 -0.252731,3.34507 0.106517,0.17726 0.232097,0.28751 0.327214,0.28751 l 0.02457,-0.002 c 0.144642,-0.09 0.355711,-0.74738 0.495441,-1.18249 0.299112,-0.93232 0.671725,-2.09241 1.557663,-3.16603 1.435422,-1.73906 3.747154,-3.05067 5.377531,-3.05067 0.509394,0 0.940572,0.12362 1.281542,0.36711 1.268573,0.90599 1.4311,3.85328 1.450556,4.73509 0.0083,0.37124 -0.244476,0.69767 -0.605887,0.78257 l -2.542454,0.59822 c -0.38912,0.0916 -1.060452,0.30029 -1.181512,0.66819 -0.07546,0.22934 -0.08529,0.95826 1.451342,2.76924 2.11108,2.48821 4.096381,5.27612 5.186707,11.97313 0.520399,3.1957 1.232804,7.57233 -0.973983,10.16706 z M 12.667509,145.32478 c -0.02339,-0.0409 -2.349464,-4.10699 -2.591387,-6.49242 -0.2185367,-2.15372 0.63065,-3.17153 0.65954,-3.20572 0.163116,-0.17943 0.234259,-0.42391 0.192792,-0.66288 -0.04147,-0.23898 -0.19063,-0.44533 -0.404646,-0.55951 -0.09414,-0.0503 -0.9494167,-0.49132 -1.9265421,-0.49132 -0.6532507,0 -1.2357534,0.20341 -1.6844211,0.58801 -1.1141034,0.95492 -0.9207214,4.67416 -0.6583614,7.10401 -0.6465677,0.64617 -1.4033891,2.24019 -1.8176641,6.04552 -0.629669,5.78473 2.9303932,9.72527 3.0823072,9.89015 0.152309,0.16528 0.363377,0.25372 0.5783757,0.25372 0.0027,0 0.0055,0 0.0082,0 0.4319627,-0.003 0.7815817,-0.35355 0.7815817,-0.7861 0,-0.0533 -0.0053,-0.10515 -0.01532,-0.15526 -0.045,-0.49426 -0.275922,-3.50012 0.4702867,-6.25738 0.7603564,-2.81031 3.0217774,-4.18934 3.0422164,-4.20152 0.37163,-0.21834 0.497996,-0.6955 0.282997,-1.0693 z"
       id="path1-4"
       style="fill:#d40000;stroke-width:0.196525" />
  </g>
</svg>
