<?xml version="1.0" encoding="UTF-8" standalone="no"?>
<!-- Created with Inkscape (http://www.inkscape.org/) -->

<svg
   width="205.25023mm"
   height="46.859215mm"
   viewBox="0 0 205.25023 46.859215"
   version="1.1"
   id="svg1"
   xml:space="preserve"
   inkscape:version="1.3.2 (091e20e, 2023-11-25, custom)"
   sodipodi:docname="infection_risk_icon.svg"
   xmlns:inkscape="http://www.inkscape.org/namespaces/inkscape"
   xmlns:sodipodi="http://sodipodi.sourceforge.net/DTD/sodipodi-0.dtd"
   xmlns:xlink="http://www.w3.org/1999/xlink"
   xmlns="http://www.w3.org/2000/svg"
   xmlns:svg="http://www.w3.org/2000/svg"><sodipodi:namedview
     id="namedview1"
     pagecolor="#ffffff"
     bordercolor="#000000"
     borderopacity="0.25"
     inkscape:showpageshadow="2"
     inkscape:pageopacity="0.0"
     inkscape:pagecheckerboard="0"
     inkscape:deskcolor="#d1d1d1"
     inkscape:document-units="mm"
     inkscape:zoom="1.0242632"
     inkscape:cx="350.49585"
     inkscape:cy="-95.190377"
     inkscape:window-width="1920"
     inkscape:window-height="1009"
     inkscape:window-x="-8"
     inkscape:window-y="-8"
     inkscape:window-maximized="1"
     inkscape:current-layer="layer1" /><defs
     id="defs1"><linearGradient
       id="linearGradient1"
       inkscape:collect="always"><stop
         style="stop-color:#2aba00;stop-opacity:1;"
         offset="0"
         id="stop1" /><stop
         style="stop-color:#124e11;stop-opacity:0;"
         offset="1"
         id="stop2" /></linearGradient><linearGradient
       inkscape:collect="always"
       xlink:href="#linearGradient1"
       id="linearGradient2"
       x1="2.3558578"
       y1="150.24913"
       x2="207.57587"
       y2="150.24913"
       gradientUnits="userSpaceOnUse"
       gradientTransform="translate(-209.83443,-300.5662)" /></defs><g
     inkscape:label="Capa 1"
     inkscape:groupmode="layer"
     id="layer1"
     transform="translate(-2.3407494,-126.81952)"><rect
       style="fill:url(#linearGradient2);stroke:#2d5016;stroke-width:0.692108"
       id="rect10-1"
       width="204.52791"
       height="46.034233"
       x="-207.13251"
       y="-173.33418"
       transform="rotate(179.9629)" /><path
       d="m 46.803504,147.93792 h -1.511495 c -3.554647,0 -5.335476,-4.29741 -2.821693,-6.8112 l 1.068216,-1.06962 a 1.9947534,1.9947534 0 0 0 -2.819589,-2.81888 l -1.068918,1.06751 c -2.513781,2.51308 -6.811198,0.73296 -6.811198,-2.82169 v -1.51149 a 1.9954551,1.9954551 0 0 0 -3.99091,0 v 1.51219 c 0,3.55465 -4.297417,5.33478 -6.811199,2.82169 L 20.9678,137.23822 a 1.9947534,1.9947534 0 0 0 -2.819588,2.81888 l 1.069619,1.06962 c 2.513782,2.51379 0.732953,6.8112 -2.821692,6.8112 h -1.512898 a 1.9954548,1.9954548 0 1 0 0,3.99021 h 1.511496 c 3.554644,0 5.335474,4.29812 2.821692,6.8119 l -1.068217,1.06892 a 1.9954548,1.9954548 0 0 0 2.819588,2.81959 l 1.068918,-1.06962 c 2.513782,-2.51378 6.811199,-0.73295 6.811199,2.82169 v 1.51079 a 1.9954551,1.9954551 0 0 0 3.99091,0 v -1.50939 c 0,-3.55464 4.297417,-5.33547 6.811198,-2.82169 l 1.068918,1.06822 a 1.9954548,1.9954548 0 0 0 2.819589,-2.81959 l -1.069619,-1.06892 c -2.513783,-2.51378 -0.732953,-6.8119 2.821693,-6.8119 h 1.510793 a 1.9954548,1.9954548 0 1 0 0,-3.99021 z m -18.20458,3.11768 a 3.3666724,3.3666724 0 1 1 3.366672,-3.36667 3.3666724,3.3666724 0 0 1 -3.366672,3.36667 z m 5.611121,3.92779 a 1.6833362,1.6833362 0 1 1 1.683336,-1.68334 1.6833362,1.6833362 0 0 1 -1.683336,1.68334 z"
       id="path1-7"
       style="fill:#165016;stroke-width:0.070139" /></g></svg>
