<?xml version="1.0" encoding="UTF-8" standalone="no"?>
<!-- Created with Inkscape (http://www.inkscape.org/) -->

<svg
   width="205.22002mm"
   height="46.726341mm"
   viewBox="0 0 205.22002 46.726341"
   version="1.1"
   id="svg1"
   inkscape:version="1.3.2 (091e20e, 2023-11-25, custom)"
   sodipodi:docname="kidney_failure_level_icon.svg"
   xmlns:inkscape="http://www.inkscape.org/namespaces/inkscape"
   xmlns:sodipodi="http://sodipodi.sourceforge.net/DTD/sodipodi-0.dtd"
   xmlns="http://www.w3.org/2000/svg"
   xmlns:svg="http://www.w3.org/2000/svg">
  <sodipodi:namedview
     id="namedview1"
     pagecolor="#ffffff"
     bordercolor="#000000"
     borderopacity="0.25"
     inkscape:showpageshadow="2"
     inkscape:pageopacity="0.0"
     inkscape:pagecheckerboard="0"
     inkscape:deskcolor="#d1d1d1"
     inkscape:document-units="mm"
     inkscape:zoom="0.72426347"
     inkscape:cx="387.98036"
     inkscape:cy="87.675277"
     inkscape:window-width="1920"
     inkscape:window-height="1009"
     inkscape:window-x="-8"
     inkscape:window-y="-8"
     inkscape:window-maximized="1"
     inkscape:current-layer="layer1" />
  <defs
     id="defs1">
    <clipPath
       clipPathUnits="userSpaceOnUse"
       id="clipPath27">
      <path
         d="M 0,500 H 500 V 0 H 0 Z"
         transform="translate(-306.36131,-247.5498)"
         id="path27" />
    </clipPath>
    <clipPath
       clipPathUnits="userSpaceOnUse"
       id="clipPath29">
      <path
         d="M 0,500 H 500 V 0 H 0 Z"
         transform="translate(-271.9756,-301.25831)"
         id="path29" />
    </clipPath>
    <clipPath
       clipPathUnits="userSpaceOnUse"
       id="clipPath31">
      <path
         d="M 0,500 H 500 V 0 H 0 Z"
         transform="translate(-261.8584,-153.9326)"
         id="path31" />
    </clipPath>
    <clipPath
       clipPathUnits="userSpaceOnUse"
       id="clipPath33">
      <path
         d="M 0,500 H 500 V 0 H 0 Z"
         transform="translate(-191.95851,-247.5498)"
         id="path33" />
    </clipPath>
    <clipPath
       clipPathUnits="userSpaceOnUse"
       id="clipPath35">
      <path
         d="M 0,500 H 500 V 0 H 0 Z"
         transform="translate(-226.34421,-301.25831)"
         id="path35" />
    </clipPath>
    <clipPath
       clipPathUnits="userSpaceOnUse"
       id="clipPath37">
      <path
         d="M 0,500 H 500 V 0 H 0 Z"
         transform="translate(-236.46241,-153.9326)"
         id="path37" />
    </clipPath>
  </defs>
  <g
     inkscape:label="Capa 1"
     inkscape:groupmode="layer"
     id="layer1"
     transform="translate(-2.1166666,-125.14793)">
    <rect
       style="fill:#d5ffd5;stroke:#d5ffd5;stroke-width:0.692108"
       id="rect10-1-8"
       width="204.52791"
       height="46.034233"
       x="2.4627206"
       y="125.49399" />
    <rect
       style="fill:#ffffff;stroke:#005500;stroke-width:0.689901"
       id="rect9-3-8"
       width="19.752247"
       height="35.785606"
       x="7.7184653"
       y="130.87218" />
    <rect
       style="fill:#ffffff;stroke:#005500;stroke-width:0.698781"
       id="rect9-2-8-2"
       width="20.269051"
       height="35.776726"
       x="32.140102"
       y="130.8766" />
    <rect
       style="fill:#afe9af;stroke:#005500;stroke-width:0.707549"
       id="rect9-8-9-9"
       width="20.785967"
       height="35.76796"
       x="56.719364"
       y="130.88101" />
    <rect
       style="fill:#afe9af;stroke:#005500;stroke-width:0.689901"
       id="rect9-1-344-1"
       width="19.752247"
       height="35.785606"
       x="82.389046"
       y="130.87218" />
    <rect
       style="fill:#37c837;stroke:#005500;stroke-width:0.685417"
       id="rect9-1-7-6-3"
       width="19.493889"
       height="35.790092"
       x="107.57447"
       y="130.86993" />
    <rect
       style="fill:#37c837;stroke:#005500;stroke-width:0.689901"
       id="rect9-1-3-0-5"
       width="19.752247"
       height="35.785606"
       x="132.21439"
       y="130.87218" />
    <rect
       style="fill:#00aa00;stroke:#005500;stroke-width:0.689901"
       id="rect9-1-34-66-9"
       width="19.752247"
       height="35.785606"
       x="157.1149"
       y="130.87218" />
    <rect
       style="fill:#00aa00;stroke:#005500;stroke-width:0.689901"
       id="rect9-1-34-8-1-8"
       width="19.752247"
       height="35.785606"
       x="181.90204"
       y="130.87218" />
    <path
       id="path26"
       d="m 0,0 c -32.78,-8.419 -37.55,23.218 -28.097,37.222 1.268,1.879 3.286,3.133 5.522,3.507 6.329,1.056 11.456,3.985 11.657,4.098 -5.081,-1.91 -9.737,-2.247 -13.637,-1.891 -2.045,3.502 -6.995,13.646 -2.822,23.895 0.93,2.282 3.092,3.803 5.544,4.048 7.153,0.714 13.292,4.224 13.511,4.349 -7.305,-2.748 -13.738,-2.234 -18.297,-1.102 l -0.005,0.005 c -4.999,3.391 -14.785,12.401 -8.219,28.017 8.6,20.457 41.824,23.601 58.766,-4.512 C 40.864,69.523 37.011,9.515 0,0"
       style="fill:#005500;fill-opacity:1;fill-rule:nonzero;stroke:#00aa00"
       transform="matrix(0.26733163,0,0,-0.26733163,45.137382,160.12994)"
       clip-path="url(#clipPath27)" />
    <path
       id="path28"
       d="m 0,0 c -5.399,0 -9.338,1.368 -11.892,4.105 -5.243,5.62 -1.801,14.219 -1.654,14.582 0.638,1.549 2.408,2.289 3.956,1.655 1.548,-0.634 2.288,-2.399 1.66,-3.946 C -7.969,16.297 -9.996,10.94 -7.445,8.229 -5.925,6.612 -0.268,3.561 19.39,10.073 20.982,10.6 22.695,9.737 23.222,8.148 23.749,6.559 22.887,4.842 21.297,4.316 12.609,1.438 5.537,0 0,0"
       style="fill:#005500;fill-opacity:1;fill-rule:nonzero;stroke:#00aa00"
       transform="matrix(0.26733163,0,0,-0.26733163,35.944997,145.77195)"
       clip-path="url(#clipPath29)" />
    <path
       id="path30"
       d="m 0,0 c -1.667,0 -3.023,1.347 -3.033,3.016 -0.006,1.1 -0.621,110.356 -0.621,129.148 0,4.518 1.673,8.292 4.838,10.912 8.184,6.774 24.011,3.86 24.68,3.735 1.646,-0.313 2.726,-1.9 2.413,-3.546 -0.312,-1.644 -1.897,-2.726 -3.543,-2.412 -3.793,0.711 -14.725,1.664 -19.687,-2.454 C 3.272,136.928 2.41,134.889 2.41,132.164 2.41,113.39 3.026,4.15 3.032,3.049 3.041,1.375 1.691,0.01 0.017,0 Z"
       style="fill:#005500;fill-opacity:1;fill-rule:nonzero;stroke:#00aa00"
       transform="matrix(0.26923546,0,0,-0.15826835,33.216862,169.0351)"
       clip-path="url(#clipPath31)" />
    <path
       id="path32"
       d="m 0,0 c 32.781,-8.419 37.55,23.218 28.097,37.222 -1.268,1.879 -3.286,3.133 -5.522,3.507 -6.328,1.056 -11.455,3.985 -11.657,4.098 5.082,-1.91 9.737,-2.247 13.637,-1.891 2.045,3.502 6.995,13.646 2.822,23.895 -0.929,2.282 -3.091,3.803 -5.544,4.048 -7.153,0.714 -13.292,4.224 -13.51,4.349 7.304,-2.748 13.738,-2.234 18.296,-1.102 l 0.006,0.005 c 4.999,3.391 14.784,12.401 8.218,28.017 C 26.244,122.605 -6.98,125.749 -23.922,97.636 -40.864,69.523 -37.01,9.515 0,0"
       style="fill:#005500;fill-opacity:1;fill-rule:nonzero;stroke:#00aa00"
       transform="matrix(0.26733163,0,0,-0.26733163,14.553894,160.12994)"
       clip-path="url(#clipPath33)" />
    <path
       id="path34"
       d="m 0,0 c 5.4,0 9.339,1.368 11.893,4.105 5.242,5.62 1.801,14.219 1.653,14.582 -0.637,1.549 -2.408,2.289 -3.956,1.655 C 8.043,19.708 7.303,17.943 7.93,16.396 7.969,16.297 9.996,10.94 7.446,8.229 5.925,6.612 0.268,3.561 -19.389,10.073 -20.982,10.6 -22.695,9.737 -23.221,8.148 -23.748,6.559 -22.886,4.842 -21.296,4.316 -12.609,1.438 -5.537,0 0,0"
       style="fill:#005500;fill-opacity:1;fill-rule:nonzero;stroke:#00aa00"
       transform="matrix(0.26733163,0,0,-0.26733163,23.74628,145.77195)"
       clip-path="url(#clipPath35)" />
    <path
       id="path36"
       d="m 0,0 c 1.667,0 3.023,1.347 3.032,3.016 0.006,1.1 0.622,110.356 0.622,129.148 0,4.518 -1.674,8.292 -4.839,10.912 -8.183,6.774 -24.011,3.86 -24.68,3.735 -1.645,-0.313 -2.726,-1.9 -2.413,-3.546 0.313,-1.644 1.898,-2.726 3.543,-2.412 3.793,0.711 14.726,1.664 19.688,-2.454 1.774,-1.471 2.636,-3.51 2.636,-6.235 C -2.411,113.39 -3.026,4.15 -3.032,3.049 -3.042,1.375 -1.691,0.01 -0.017,0 Z"
       style="fill:#005500;fill-opacity:1;fill-rule:nonzero;stroke:#00aa00"
       transform="matrix(0.26920979,0,0,-0.15954322,26.474367,169.22361)"
       clip-path="url(#clipPath37)" />
  </g>
</svg>
