<?xml version="1.0" encoding="UTF-8" standalone="no"?>
<!-- Created with Inkscape (http://www.inkscape.org/) -->

<svg
   width="16.138615mm"
   height="40.319473mm"
   viewBox="0 0 16.138615 40.319474"
   version="1.1"
   id="svg1"
   xml:space="preserve"
   inkscape:version="1.3.2 (091e20e, 2023-11-25, custom)"
   sodipodi:docname="male_adult_icon.svg"
   xmlns:inkscape="http://www.inkscape.org/namespaces/inkscape"
   xmlns:sodipodi="http://sodipodi.sourceforge.net/DTD/sodipodi-0.dtd"
   xmlns="http://www.w3.org/2000/svg"
   xmlns:svg="http://www.w3.org/2000/svg"><sodipodi:namedview
     id="namedview1"
     pagecolor="#ffffff"
     bordercolor="#000000"
     borderopacity="0.25"
     inkscape:showpageshadow="2"
     inkscape:pageopacity="0.0"
     inkscape:pagecheckerboard="0"
     inkscape:deskcolor="#d1d1d1"
     inkscape:document-units="mm"
     inkscape:zoom="4.0970529"
     inkscape:cx="-8.7868039"
     inkscape:cy="65.290834"
     inkscape:window-width="1920"
     inkscape:window-height="1009"
     inkscape:window-x="-8"
     inkscape:window-y="-8"
     inkscape:window-maximized="1"
     inkscape:current-layer="layer1" /><defs
     id="defs1" /><g
     inkscape:label="Capa 1"
     inkscape:groupmode="layer"
     id="layer1"
     transform="translate(-113.84677,-148.88429)"><path
       style="fill:#000000"
       d="m 118.4614,188.84463 c -0.49392,-0.36103 -0.51866,-0.90075 -0.64588,-14.08906 -0.13017,-13.49316 -0.1408,-13.71364 -0.66146,-13.71364 -0.50799,0 -0.53206,0.20044 -0.60132,5.00721 -0.0453,3.14693 -0.18026,5.13747 -0.36313,5.35781 -0.44569,0.53702 -1.74965,0.43544 -2.06895,-0.16117 -0.16508,-0.30846 -0.27389,-2.83275 -0.27389,-6.35389 v -5.84211 c 0.31753,-1.51423 0.52995,-1.58357 1.81038,-1.97661 l 5.64326,-0.0847 c 6.42636,-0.0965 7.37931,0.0617 8.16846,1.35592 0.47065,0.77189 0.51561,1.36481 0.51651,6.81184 7.1e-4,4.28887 -0.0883,6.05562 -0.31651,6.28385 -0.42439,0.42439 -1.66245,0.40416 -2.02535,-0.0331 -0.18287,-0.22034 -0.31777,-2.21088 -0.36312,-5.35781 -0.0693,-4.80677 -0.0933,-5.00721 -0.60132,-5.00721 -0.52149,0 -0.5301,0.19775 -0.59328,13.62604 -0.0636,13.5197 -0.0685,13.62965 -0.62462,14.08906 -0.67824,0.56027 -1.54406,0.59424 -2.23726,0.0878 -0.48353,-0.35327 -0.52133,-0.84493 -0.64588,-8.40052 -0.12866,-7.8048 -0.14683,-8.02528 -0.66146,-8.02528 -0.51463,0 -0.5328,0.22048 -0.66146,8.02528 -0.12455,7.55559 -0.16235,8.04725 -0.64588,8.40052 -0.65506,0.4786 -1.49293,0.47853 -2.14782,-1.8e-4 z"
       id="path1"
       sodipodi:nodetypes="ccsccssccccscscscccsssscc" /><circle
       style="fill:#000000;stroke:#000000;stroke-width:3.19943;stroke-dasharray:none"
       id="path2"
       cx="121.95279"
       cy="152.2657"
       r="1.7816986" /></g></svg>
