<?xml version="1.0" encoding="UTF-8" standalone="no"?>
<svg
   id="Capa_1"
   data-name="Capa 1"
   viewBox="0 0 208.17619 208.43672"
   version="1.1"
   sodipodi:docname="non_binary_icon.svg"
   width="208.17618"
   height="208.43672"
   inkscape:version="1.3.2 (091e20e, 2023-11-25, custom)"
   xmlns:inkscape="http://www.inkscape.org/namespaces/inkscape"
   xmlns:sodipodi="http://sodipodi.sourceforge.net/DTD/sodipodi-0.dtd"
   xmlns="http://www.w3.org/2000/svg"
   xmlns:svg="http://www.w3.org/2000/svg">
  <sodipodi:namedview
     id="namedview24"
     pagecolor="#ffffff"
     bordercolor="#000000"
     borderopacity="0.25"
     inkscape:showpageshadow="2"
     inkscape:pageopacity="0.0"
     inkscape:pagecheckerboard="0"
     inkscape:deskcolor="#d1d1d1"
     inkscape:zoom="3.224"
     inkscape:cx="104.52854"
     inkscape:cy="93.51737"
     inkscape:window-width="1920"
     inkscape:window-height="1009"
     inkscape:window-x="-8"
     inkscape:window-y="-8"
     inkscape:window-maximized="1"
     inkscape:current-layer="Capa_1" />
  <defs
     id="defs1">
    <style
       id="style1">.cls-1{fill:#fff;fill-rule:evenodd;}</style>
  </defs>
  <rect
     style="fill:#165016;stroke:none;stroke-width:2.47937"
     id="rect1"
     width="208.17618"
     height="208.43672"
     x="0"
     y="0"
     ry="45.285358" />
  <path
     d="M 142.37244,55.095868 C 130.72657,43.449991 115.46177,37.627551 100.19697,37.627551 c -15.264805,0 -30.529605,5.82244 -42.175483,17.468317 -11.645877,11.645878 -17.466319,26.910678 -17.466319,42.175478 0,15.264804 5.823438,30.529604 17.469316,42.175474 11.645878,11.64588 26.910678,17.46832 42.175476,17.46832 15.2648,0 30.5296,-5.82244 42.17548,-17.46832 11.64588,-11.64587 17.46532,-26.91067 17.46532,-42.175474 0,-15.2648 -5.82244,-30.5296 -17.46832,-42.175478 z M 100.19697,52.647627 A 44.483877,44.483877 0 0 1 131.75241,65.7179 44.487872,44.487872 0 0 1 144.82069,97.271346 44.487872,44.487872 0 0 1 131.75241,128.82479 44.484876,44.484876 0 0 1 100.19697,141.89607 44.48088,44.48088 0 0 1 68.643519,128.82479 44.484876,44.484876 0 0 1 55.572247,97.271346 44.484876,44.484876 0 0 1 68.643519,65.7179 44.479881,44.479881 0 0 1 100.19697,52.647627 Z"
     id="path21"
     style="stroke-width:0.0998875;fill:#e3e2db;stroke:none" />
  <path
     d="m 107.7075,141.89607 v 57.72395 a 4.9783905,4.9783905 0 0 1 -4.9684,4.96841 h -5.085269 a 4.9783905,4.9783905 0 0 1 -4.967403,-4.96841 v -57.72395 z"
     id="path22"
     style="stroke-width:0.0998875;fill:#e3e2db;stroke:none" />
  <path
     d="m 84.952143,173.07194 h 30.488647 a 4.9773916,4.9773916 0 0 1 4.9684,4.9654 v 5.08427 a 4.9773916,4.9773916 0 0 1 -4.9684,4.96841 H 84.952143 a 4.9773916,4.9773916 0 0 1 -4.967403,-4.96841 v -5.08427 a 4.9773916,4.9773916 0 0 1 4.967403,-4.9684 z"
     id="path23"
     style="stroke-width:0.0998875;fill:#e3e2db;stroke:none" />
  <path
     d="m 146.39192,12.603747 a 46.532568,46.532568 0 0 1 -13.20113,26.37628 46.514589,46.514589 0 0 1 -32.99383,13.6676 46.512591,46.512591 0 0 1 -32.993818,-13.6676 46.53956,46.53956 0 0 1 -13.202124,-26.37628 5.6216657,5.6216657 0 0 1 1.362464,-4.618796 5.6216657,5.6216657 0 0 1 4.383062,-1.9977489 h 6.011226 a 5.7645047,5.7645047 0 0 1 5.722552,4.8385479 29.045273,29.045273 0 0 0 8.130839,15.749255 29.024296,29.024296 0 0 0 20.589799,8.52839 29.027293,29.027293 0 0 0 20.5898,-8.52839 29.037282,29.037282 0 0 0 8.12185,-15.749255 5.7665025,5.7665025 0 0 1 5.72355,-4.8435423 h 6.01123 a 5.6196679,5.6196679 0 0 1 4.38206,1.997749 5.6176702,5.6176702 0 0 1 1.36247,4.6187953 z"
     id="path24"
     style="stroke-width:0.0998875;fill:#e3e2db;stroke:none" />
</svg>
