<?xml version="1.0" encoding="UTF-8" standalone="no"?>
<!-- Created with Inkscape (http://www.inkscape.org/) -->

<svg
   width="210mm"
   height="297mm"
   viewBox="0 0 210 297"
   version="1.1"
   id="svg1"
   inkscape:version="1.3.2 (091e20e, 2023-11-25, custom)"
   sodipodi:docname="patient_others_icon.svg"
   xmlns:inkscape="http://www.inkscape.org/namespaces/inkscape"
   xmlns:sodipodi="http://sodipodi.sourceforge.net/DTD/sodipodi-0.dtd"
   xmlns="http://www.w3.org/2000/svg"
   xmlns:svg="http://www.w3.org/2000/svg">
  <sodipodi:namedview
     id="namedview1"
     pagecolor="#ffffff"
     bordercolor="#000000"
     borderopacity="0.25"
     inkscape:showpageshadow="2"
     inkscape:pageopacity="0.0"
     inkscape:pagecheckerboard="0"
     inkscape:deskcolor="#d1d1d1"
     inkscape:document-units="mm"
     showgrid="false"
     inkscape:zoom="0.7117915"
     inkscape:cx="432.71098"
     inkscape:cy="417.95947"
     inkscape:window-width="1920"
     inkscape:window-height="1009"
     inkscape:window-x="-8"
     inkscape:window-y="-8"
     inkscape:window-maximized="1"
     inkscape:current-layer="layer1"
     showguides="true">
    <inkscape:grid
       id="grid8"
       units="mm"
       originx="0"
       originy="0"
       spacingx="0.99999998"
       spacingy="1"
       empcolor="#0099e5"
       empopacity="0.30196078"
       color="#0099e5"
       opacity="0.14901961"
       empspacing="5"
       enabled="true"
       visible="false" />
  </sodipodi:namedview>
  <defs
     id="defs1">
    <clipPath
       clipPathUnits="userSpaceOnUse"
       id="clipPath27">
      <path
         d="M 0,500 H 500 V 0 H 0 Z"
         transform="translate(-306.36131,-247.5498)"
         id="path27" />
    </clipPath>
    <clipPath
       clipPathUnits="userSpaceOnUse"
       id="clipPath31">
      <path
         d="M 0,500 H 500 V 0 H 0 Z"
         transform="translate(-261.8584,-153.9326)"
         id="path31" />
    </clipPath>
    <clipPath
       clipPathUnits="userSpaceOnUse"
       id="clipPath37">
      <path
         d="M 0,500 H 500 V 0 H 0 Z"
         transform="translate(-236.46241,-153.9326)"
         id="path37" />
    </clipPath>
    <clipPath
       clipPathUnits="userSpaceOnUse"
       id="clipPath33">
      <path
         d="M 0,500 H 500 V 0 H 0 Z"
         transform="translate(-191.95851,-247.5498)"
         id="path33" />
    </clipPath>
    <clipPath
       clipPathUnits="userSpaceOnUse"
       id="clipPath35">
      <path
         d="M 0,500 H 500 V 0 H 0 Z"
         transform="translate(-226.34421,-301.25831)"
         id="path35" />
    </clipPath>
    <clipPath
       clipPathUnits="userSpaceOnUse"
       id="clipPath29">
      <path
         d="M 0,500 H 500 V 0 H 0 Z"
         transform="translate(-271.9756,-301.25831)"
         id="path29" />
    </clipPath>
    <clipPath
       clipPathUnits="userSpaceOnUse"
       id="clipPath27-5">
      <path
         d="M 0,500 H 500 V 0 H 0 Z"
         transform="translate(-306.36131,-247.5498)"
         id="path27-4" />
    </clipPath>
    <clipPath
       clipPathUnits="userSpaceOnUse"
       id="clipPath29-2">
      <path
         d="M 0,500 H 500 V 0 H 0 Z"
         transform="translate(-271.9756,-301.25831)"
         id="path29-0" />
    </clipPath>
    <clipPath
       clipPathUnits="userSpaceOnUse"
       id="clipPath31-9">
      <path
         d="M 0,500 H 500 V 0 H 0 Z"
         transform="translate(-261.8584,-153.9326)"
         id="path31-7" />
    </clipPath>
    <clipPath
       clipPathUnits="userSpaceOnUse"
       id="clipPath33-3">
      <path
         d="M 0,500 H 500 V 0 H 0 Z"
         transform="translate(-191.95851,-247.5498)"
         id="path33-7" />
    </clipPath>
    <clipPath
       clipPathUnits="userSpaceOnUse"
       id="clipPath35-2">
      <path
         d="M 0,500 H 500 V 0 H 0 Z"
         transform="translate(-226.34421,-301.25831)"
         id="path35-6" />
    </clipPath>
    <clipPath
       clipPathUnits="userSpaceOnUse"
       id="clipPath37-0">
      <path
         d="M 0,500 H 500 V 0 H 0 Z"
         transform="translate(-236.46241,-153.9326)"
         id="path37-1" />
    </clipPath>
  </defs>
  <g
     inkscape:label="Capa 1"
     inkscape:groupmode="layer"
     id="layer1">
    <rect
       style="fill:#ffe680;stroke:#ffff00;stroke-width:0.692108"
       id="rect10-1"
       width="204.52791"
       height="46.034233"
       x="2.6875763"
       y="4.2888966" />
    <rect
       style="fill:#ffffff;stroke:#800000;stroke-width:0.689901"
       id="rect9-3"
       width="19.752247"
       height="35.785606"
       x="7.9433212"
       y="9.6670914" />
    <rect
       style="fill:#ffffff;stroke:#800000;stroke-width:0.698781"
       id="rect9-2-8"
       width="20.269051"
       height="35.776726"
       x="32.36496"
       y="9.6715164" />
    <rect
       style="fill:#ffaaaa;stroke:#800000;stroke-width:0.707549"
       id="rect9-8-9"
       width="20.785967"
       height="35.76796"
       x="56.944214"
       y="9.6759186" />
    <rect
       style="fill:#ffaaaa;stroke:#800000;stroke-width:0.689901"
       id="rect9-1-344"
       width="19.752247"
       height="35.785606"
       x="82.613892"
       y="9.6670914" />
    <rect
       style="fill:#ff5555;stroke:#800000;stroke-width:0.685417"
       id="rect9-1-7-6"
       width="19.493889"
       height="35.790092"
       x="107.79932"
       y="9.6648483" />
    <rect
       style="fill:#ff5555;stroke:#800000;stroke-width:0.689901"
       id="rect9-1-3-0"
       width="19.752247"
       height="35.785606"
       x="132.43922"
       y="9.6670914" />
    <rect
       style="fill:#c70000;fill-opacity:1;stroke:#800000;stroke-width:0.689901"
       id="rect9-1-34-66"
       width="19.752247"
       height="35.785606"
       x="157.33974"
       y="9.6670914" />
    <rect
       style="fill:#c70000;fill-opacity:1;stroke:#800000;stroke-width:0.689901"
       id="rect9-1-34-8-1"
       width="19.752247"
       height="35.785606"
       x="182.12688"
       y="9.6670914" />
    <path
       style="fill:#ffffff;fill-opacity:1;stroke:none;stroke-width:0.152;stroke-dasharray:none"
       d="m 27.264534,11.911013 c -0.268317,0.01414 -0.493578,0.25214 -0.722815,0.328553 -0.06234,0.02078 -0.138359,-0.02939 -0.197131,0 -0.10642,0.05321 -0.221051,0.161297 -0.328551,0.197131 -0.04156,0.01385 -0.08986,-0.01385 -0.131422,0 -0.143152,-0.02456 -0.02191,0.109518 -0.06571,0.131421 -0.03918,0.01959 -0.09224,-0.01959 -0.131422,0 -0.01958,0.0098 0.01548,0.05022 0,0.06571 -0.04632,0.04632 -0.21023,0.09191 -0.262842,0.197131 -0.01992,0.03983 -0.03817,0.169597 -0.06571,0.197132 -0.01548,0.01549 -0.05022,-0.01549 -0.06571,0 -0.01056,0.01057 -0.256045,0.31496 -0.26284,0.328552 -0.0098,0.01959 0.01548,0.05022 0,0.06571 -0.02846,0.02846 -0.220432,0.103148 -0.262842,0.131421 -0.127858,0.08524 -0.259678,0.261259 -0.394264,0.328552 -0.01958,0.0098 -0.05022,-0.01549 -0.06571,0 -0.01548,0.01549 0.01548,0.05022 0,0.06571 -0.01548,0.01549 -0.05022,-0.01549 -0.06571,0 -0.07855,0.07855 -0.153358,0.241006 -0.19713,0.328552 -0.136737,0.273472 0.0045,-0.07025 -0.131422,0.06571 -0.01548,0.01549 0.0098,0.04612 0,0.06571 -0.03767,0.07533 -0.137107,0.0914 -0.197133,0.131421 -0.216789,0.144527 -0.40328,0.431628 -0.591394,0.525684 -0.289084,0.144543 -0.545068,0.719039 -0.722815,0.985658 -0.126135,0.189202 -0.324646,0.44826 -0.394264,0.657104 -0.01384,0.04156 0.01386,0.08986 0,0.131421 -0.04972,0.14917 -0.19163,0.317554 -0.26284,0.459974 -0.01959,0.03918 0.03098,0.100445 0,0.131421 -0.01549,0.01549 -0.05022,-0.01549 -0.06571,0 -0.07438,0.07438 -0.0825,0.29641 -0.131421,0.394263 -0.03827,0.07654 -0.09315,0.120587 -0.131421,0.197131 -0.01959,0.03918 0.01959,0.09224 0,0.131421 -0.04744,0.09487 -0.08399,0.16797 -0.131421,0.262842 -0.04358,0.08717 0.03108,0.235316 0,0.328553 -0.145359,0.436077 -0.06571,0.977638 -0.06571,1.44563 0,0.212968 -0.07117,1.040448 0,1.182789 0.139225,0.278451 0.383451,0.50406 0.525684,0.788526 0.0098,0.01959 -0.01549,0.05022 0,0.06571 0.09936,0.09936 0.391312,0.218052 0.525683,0.262842 0.08028,0.02676 0.337738,-0.05653 0.394263,0 0.01548,0.01549 -0.01958,0.05591 0,0.06571 0.03492,0.01746 0.944084,0.01386 0.985658,0 0.08567,-0.02856 0.177165,-0.03715 0.262842,-0.06571 0.05877,-0.01959 0.07265,-0.11183 0.131422,-0.131421 0.04156,-0.01385 0.09224,0.01959 0.131421,0 0.01958,-0.0098 -0.0098,-0.04612 0,-0.06571 0.06049,-0.120974 0.136644,-0.01045 0.19713,-0.131421 0.04922,-0.09844 0.0077,-0.307201 0.06571,-0.394263 0.03437,-0.05155 0.09706,-0.07987 0.131422,-0.131421 0.442611,-0.663913 0.0011,-0.003 0.131421,-0.394263 0.01958,-0.05877 0.103716,-0.07601 0.131421,-0.131421 0.0098,-0.01959 -0.01548,-0.05022 0,-0.06571 0.01548,-0.01549 0.04612,0.0098 0.06571,0 0.09276,-0.04638 0.09753,-0.129353 0.131421,-0.197132 0.05404,-0.108081 0.208801,-0.08905 0.26284,-0.197131 0.0098,-0.01959 -0.01548,-0.05022 0,-0.06571 0.135959,-0.135957 -0.0053,0.207761 0.131421,-0.06571 0.0276,-0.0552 0.02959,-0.292431 0.06571,-0.328553 0.03463,-0.03463 0.104254,-0.02496 0.131421,-0.06571 0.02429,-0.03645 -0.01958,-0.09224 0,-0.131421 0.0098,-0.01959 0.05022,0.01549 0.06571,0 0.01212,-0.01211 0.0536,-0.185024 0.06571,-0.197132 0.01548,-0.01549 0.05591,0.01959 0.06571,0 0.01958,-0.03918 -0.01386,-0.08986 0,-0.131421 0.0098,-0.02939 0.04381,-0.04381 0.06571,-0.06571 0.02191,-0.04381 0.05383,-0.08391 0.06571,-0.131421 0.01064,-0.0425 -0.01386,-0.08986 0,-0.131421 0.04625,-0.138759 0.184772,-0.277157 0.262842,-0.394263 0.03046,-0.0457 0.04025,-0.146204 0.06571,-0.197131 0.05928,-0.118553 0.205227,-0.213321 0.262843,-0.328553 0.01939,-0.0388 0.109625,-0.241044 0.131421,-0.262842 0.04302,-0.04302 0.151855,-0.04087 0.19713,-0.131421 0.03692,-0.07384 0.11438,-0.287175 0.197134,-0.328552 0.01958,-0.0098 0.05022,0.01549 0.06571,0 0.02606,-0.02605 0.152212,-0.349344 0.197133,-0.394263 0.01548,-0.01549 0.05591,0.01959 0.06571,0 0.01958,-0.03918 -0.01958,-0.09224 0,-0.131421 0.0041,-0.0081 0.169693,-0.07654 0.197133,-0.131421 0.05818,-0.116357 0.202018,-0.206906 0.26284,-0.328553 0.0098,-0.01959 -0.01548,-0.05022 0,-0.06571 0.01548,-0.01549 0.05022,0.01549 0.06571,0 0.01548,-0.01549 -0.01548,-0.05022 0,-0.06571 0.04037,-0.04037 0.153125,-0.04341 0.19713,-0.13142 0.0098,-0.01959 -0.01958,-0.05592 0,-0.06571 0.03918,-0.01959 0.09224,0.01959 0.131422,0 0.01958,-0.0098 -0.01548,-0.05022 0,-0.06571 0.03123,-0.03123 0.231613,-0.100191 0.262842,-0.131421 0.01548,-0.01549 -0.01958,-0.05591 0,-0.06571 0.03918,-0.01959 0.08986,0.01385 0.131421,0 0.05877,-0.01959 0.07601,-0.103715 0.131421,-0.131421 0.170545,-0.08527 0.35514,-0.177569 0.525685,-0.262842 0.05541,-0.02771 0.07601,-0.103715 0.131419,-0.131421 0.0388,-0.0194 0.241046,-0.109623 0.262842,-0.131421 0.01426,-0.01426 0.0529,-0.125015 0.06571,-0.131421 0.03918,-0.01959 0.09224,0.01959 0.131421,0 0.01958,-0.0098 0,-0.04381 0,-0.06571 0.02191,-0.02191 0.038,-0.05186 0.06571,-0.06571 0.03983,-0.01991 0.169596,-0.03818 0.197133,-0.06571 0.01548,-0.01549 -0.01548,-0.05022 0,-0.06571 0.0154,-0.0154 0.332566,-0.04515 0.394261,-0.06571 0.280705,-0.09357 0.478854,-0.366313 0.591394,-0.591395 0.04863,-0.09725 -0.04034,-0.303187 -0.06571,-0.328552 -0.0462,-0.04619 -1.596567,0.0462 -1.642763,0 -0.01548,-0.01549 0.01548,-0.05022 0,-0.06571 -0.03097,-0.03098 -0.09224,0.01959 -0.131419,0 -0.0694,-0.0347 -0.132797,-0.09925 -0.197133,-0.131421 -0.104299,-0.05215 -0.153768,-0.219479 -0.197131,-0.262841 -0.01548,-0.01549 -0.05591,0.01959 -0.06571,0 -0.01958,-0.03918 0.01958,-0.09224 0,-0.131421 -0.0098,-0.01959 -0.05022,0.01549 -0.06571,0 -0.01548,-0.01549 0.01548,-0.05022 0,-0.06571 -0.0263,-0.0263 -0.0835,-0.03559 -0.131421,-0.131421 -0.01958,-0.03918 0.03097,-0.100445 0,-0.131421 -0.01548,-0.01549 -0.05022,0.01549 -0.06571,0 -0.01548,-0.01549 0.0098,-0.04612 0,-0.06571 -0.136734,-0.273472 0.0046,0.07025 -0.131418,-0.06571 -0.04441,-0.04441 0.0444,-0.08701 0,-0.131421 -0.01548,-0.01549 -0.05022,0.01549 -0.06571,0 -0.01548,-0.01549 0.01548,-0.05022 0,-0.06571 -0.01548,-0.01549 -0.05022,0.01549 -0.06571,0 -0.0041,-0.0041 -0.181538,-0.297363 -0.197133,-0.328553 -0.01958,-0.03918 0.01958,-0.09224 0,-0.131421 -0.101447,-0.202896 -0.142785,-0.53137 -0.394266,-0.65711 -0.149201,-0.0746 -0.316931,0.111307 -0.459973,0.197131 z"
       id="path2" />
    <path
       d="m 34.64568,46.008567 c -1.301,1.529952 -3.388298,2.273605 -6.380598,2.273605 -4.03e-4,0 -9.77e-4,0 -0.0017,0 C 27.018393,48.281976 25.590632,48.148339 24.02,47.884995 10.870167,45.680174 10.202766,41.12451 10.202766,33.873697 c 0,-5.384212 3.42446,-7.30879 5.537898,-7.983854 -1.324544,-1.31279 -3.320066,-3.784888 -3.845772,-7.149996 -0.628686,-4.024256 1.595002,-6.460192 2.739568,-7.422578 L 13.554352,9.5725143 C 13.37001,9.2745809 13.404796,8.8907661 13.640038,8.6311562 l 1.523466,-1.6826531 c 0.170976,-0.1890571 0.423512,-0.2831934 0.676048,-0.2529284 0.253125,0.030266 0.475788,0.1813935 0.597438,0.4054328 l 1.361332,2.5060952 0.555775,-0.1249905 -0.294199,-2.5898147 c -0.02516,-0.2224669 0.0456,-0.4453277 0.194757,-0.6123739 0.149163,-0.1670472 0.362395,-0.2625583 0.586237,-0.2625583 h 2.28068 c 0.429802,0 0.779814,0.3450982 0.786102,0.7749002 l 0.02593,1.8157011 0.740116,-0.025155 0.335272,-2.2863792 c 0.06113,-0.4158483 0.440026,-0.7100477 0.856463,-0.667991 l 1.953072,0.1965254 c 0.426067,0.042843 0.739525,0.4189933 0.70474,0.8460433 l -0.25509,3.1337986 1.631754,1.9980763 c 0.13678,0.167636 0.198491,0.384208 0.170584,0.598617 -0.02791,0.214409 -0.143071,0.407988 -0.318176,0.53514 -0.03519,0.02555 -3.532746,2.577827 -4.702662,4.779897 -0.697076,1.312398 -0.654824,2.676286 -0.252731,3.345063 0.106517,0.177266 0.232097,0.287516 0.327214,0.287516 l 0.02457,-0.002 c 0.144642,-0.09001 0.355711,-0.747387 0.495441,-1.182495 0.299112,-0.932317 0.671725,-2.092409 1.557663,-3.166029 1.435422,-1.739055 3.747154,-3.050666 5.377531,-3.050666 0.509394,0 0.940572,0.123614 1.281542,0.367109 1.268573,0.905983 1.4311,3.853279 1.450556,4.735089 0.0083,0.371237 -0.244476,0.697666 -0.605887,0.782565 l -2.542454,0.598224 c -0.38912,0.09158 -1.060452,0.300292 -1.181512,0.668188 -0.07546,0.229345 -0.08529,0.958259 1.451342,2.769241 2.11108,2.488211 4.096381,5.276126 5.186707,11.97313 0.520399,3.195702 1.232804,7.57233 -0.973983,10.167058 z M 12.483483,24.76041 c -0.02339,-0.04087 -2.349464,-4.106993 -2.5913864,-6.492421 -0.2185364,-2.153726 0.6306494,-3.171531 0.6595394,-3.205727 0.163116,-0.179428 0.234259,-0.423906 0.192792,-0.662881 -0.04147,-0.238974 -0.19063,-0.445328 -0.404646,-0.559509 -0.09414,-0.05031 -0.9494155,-0.491314 -1.9265399,-0.491314 -0.6532507,0 -1.2357534,0.203405 -1.6844201,0.588006 -1.1141034,0.954917 -0.9207214,4.674165 -0.6583617,7.104009 -0.6465677,0.646176 -1.4033882,2.240196 -1.817664,6.045523 -0.6296685,5.784733 2.9303924,9.725266 3.0823064,9.890151 0.152309,0.165278 0.3633767,0.253715 0.5783757,0.253715 0.0027,0 0.0055,0 0.0082,0 0.4319627,-0.0026 0.7815814,-0.353548 0.7815814,-0.786101 0,-0.05326 -0.0053,-0.105143 -0.01532,-0.155256 -0.045,-0.494263 -0.2759217,-3.500122 0.4702857,-6.257377 0.7603558,-2.810316 3.0217765,-4.189338 3.0422155,-4.201521 0.37163,-0.218341 0.497996,-0.695506 0.282997,-1.069297 z"
       id="path1-4"
       style="fill:#d40000;stroke-width:0.196525" />
    <rect
       style="fill:#d5ffd5;stroke:#d5ffd5;stroke-width:0.692108"
       id="rect10-1-8"
       width="204.52791"
       height="46.034233"
       x="2.6648269"
       y="67.5327" />
    <rect
       style="fill:#ffffff;stroke:#005500;stroke-width:0.689901"
       id="rect9-3-8"
       width="19.752247"
       height="35.785606"
       x="7.9205718"
       y="72.910896" />
    <rect
       style="fill:#ffffff;stroke:#005500;stroke-width:0.698781"
       id="rect9-2-8-2"
       width="20.269051"
       height="35.776726"
       x="32.342209"
       y="72.915321" />
    <rect
       style="fill:#afe9af;stroke:#005500;stroke-width:0.707549"
       id="rect9-8-9-9"
       width="20.785967"
       height="35.76796"
       x="56.921471"
       y="72.919724" />
    <rect
       style="fill:#afe9af;stroke:#005500;stroke-width:0.689901"
       id="rect9-1-344-1"
       width="19.752247"
       height="35.785606"
       x="82.591148"
       y="72.910896" />
    <rect
       style="fill:#37c837;stroke:#005500;stroke-width:0.685417"
       id="rect9-1-7-6-3"
       width="19.493889"
       height="35.790092"
       x="107.77657"
       y="72.908653" />
    <rect
       style="fill:#37c837;stroke:#005500;stroke-width:0.689901"
       id="rect9-1-3-0-5"
       width="19.752247"
       height="35.785606"
       x="132.41649"
       y="72.910896" />
    <rect
       style="fill:#00aa00;stroke:#005500;stroke-width:0.689901"
       id="rect9-1-34-66-9"
       width="19.752247"
       height="35.785606"
       x="157.317"
       y="72.910896" />
    <rect
       style="fill:#00aa00;stroke:#005500;stroke-width:0.689901"
       id="rect9-1-34-8-1-8"
       width="19.752247"
       height="35.785606"
       x="182.10414"
       y="72.910896" />
    <path
       id="path26"
       d="m 0,0 c -32.78,-8.419 -37.55,23.218 -28.097,37.222 1.268,1.879 3.286,3.133 5.522,3.507 6.329,1.056 11.456,3.985 11.657,4.098 -5.081,-1.91 -9.737,-2.247 -13.637,-1.891 -2.045,3.502 -6.995,13.646 -2.822,23.895 0.93,2.282 3.092,3.803 5.544,4.048 7.153,0.714 13.292,4.224 13.511,4.349 -7.305,-2.748 -13.738,-2.234 -18.297,-1.102 l -0.005,0.005 c -4.999,3.391 -14.785,12.401 -8.219,28.017 8.6,20.457 41.824,23.601 58.766,-4.512 C 40.864,69.523 37.011,9.515 0,0"
       style="fill:#005500;fill-opacity:1;fill-rule:nonzero;stroke:#00aa00"
       transform="matrix(0.26733163,0,0,-0.26733163,45.339488,102.16866)"
       clip-path="url(#clipPath27)" />
    <path
       id="path28"
       d="m 0,0 c -5.399,0 -9.338,1.368 -11.892,4.105 -5.243,5.62 -1.801,14.219 -1.654,14.582 0.638,1.549 2.408,2.289 3.956,1.655 1.548,-0.634 2.288,-2.399 1.66,-3.946 C -7.969,16.297 -9.996,10.94 -7.445,8.229 -5.925,6.612 -0.268,3.561 19.39,10.073 20.982,10.6 22.695,9.737 23.222,8.148 23.749,6.559 22.887,4.842 21.297,4.316 12.609,1.438 5.537,0 0,0"
       style="fill:#005500;fill-opacity:1;fill-rule:nonzero;stroke:#00aa00"
       transform="matrix(0.26733163,0,0,-0.26733163,36.147103,87.810662)"
       clip-path="url(#clipPath29)" />
    <path
       id="path30"
       d="m 0,0 c -1.667,0 -3.023,1.347 -3.033,3.016 -0.006,1.1 -0.621,110.356 -0.621,129.148 0,4.518 1.673,8.292 4.838,10.912 8.184,6.774 24.011,3.86 24.68,3.735 1.646,-0.313 2.726,-1.9 2.413,-3.546 -0.312,-1.644 -1.897,-2.726 -3.543,-2.412 -3.793,0.711 -14.725,1.664 -19.687,-2.454 C 3.272,136.928 2.41,134.889 2.41,132.164 2.41,113.39 3.026,4.15 3.032,3.049 3.041,1.375 1.691,0.01 0.017,0 Z"
       style="fill:#005500;fill-opacity:1;fill-rule:nonzero;stroke:#00aa00"
       transform="matrix(0.26923546,0,0,-0.15826835,33.418968,111.07383)"
       clip-path="url(#clipPath31)" />
    <path
       id="path32"
       d="m 0,0 c 32.781,-8.419 37.55,23.218 28.097,37.222 -1.268,1.879 -3.286,3.133 -5.522,3.507 -6.328,1.056 -11.455,3.985 -11.657,4.098 5.082,-1.91 9.737,-2.247 13.637,-1.891 2.045,3.502 6.995,13.646 2.822,23.895 -0.929,2.282 -3.091,3.803 -5.544,4.048 -7.153,0.714 -13.292,4.224 -13.51,4.349 7.304,-2.748 13.738,-2.234 18.296,-1.102 l 0.006,0.005 c 4.999,3.391 14.784,12.401 8.218,28.017 C 26.244,122.605 -6.98,125.749 -23.922,97.636 -40.864,69.523 -37.01,9.515 0,0"
       style="fill:#005500;fill-opacity:1;fill-rule:nonzero;stroke:#00aa00"
       transform="matrix(0.26733163,0,0,-0.26733163,14.756,102.16866)"
       clip-path="url(#clipPath33)" />
    <path
       id="path34"
       d="m 0,0 c 5.4,0 9.339,1.368 11.893,4.105 5.242,5.62 1.801,14.219 1.653,14.582 -0.637,1.549 -2.408,2.289 -3.956,1.655 C 8.043,19.708 7.303,17.943 7.93,16.396 7.969,16.297 9.996,10.94 7.446,8.229 5.925,6.612 0.268,3.561 -19.389,10.073 -20.982,10.6 -22.695,9.737 -23.221,8.148 -23.748,6.559 -22.886,4.842 -21.296,4.316 -12.609,1.438 -5.537,0 0,0"
       style="fill:#005500;fill-opacity:1;fill-rule:nonzero;stroke:#00aa00"
       transform="matrix(0.26733163,0,0,-0.26733163,23.948386,87.810662)"
       clip-path="url(#clipPath35)" />
    <path
       id="path36"
       d="m 0,0 c 1.667,0 3.023,1.347 3.032,3.016 0.006,1.1 0.622,110.356 0.622,129.148 0,4.518 -1.674,8.292 -4.839,10.912 -8.183,6.774 -24.011,3.86 -24.68,3.735 -1.645,-0.313 -2.726,-1.9 -2.413,-3.546 0.313,-1.644 1.898,-2.726 3.543,-2.412 3.793,0.711 14.726,1.664 19.688,-2.454 1.774,-1.471 2.636,-3.51 2.636,-6.235 C -2.411,113.39 -3.026,4.15 -3.032,3.049 -3.042,1.375 -1.691,0.01 -0.017,0 Z"
       style="fill:#005500;fill-opacity:1;fill-rule:nonzero;stroke:#00aa00"
       transform="matrix(0.26920979,0,0,-0.15954322,26.676473,111.26234)"
       clip-path="url(#clipPath37)" />
    <rect
       style="fill:#d7d7f4;stroke:#afafe9;stroke-width:0.692108"
       id="rect10-1-8-5"
       width="204.52791"
       height="46.034233"
       x="2.5205054"
       y="132.98053" />
    <rect
       style="fill:#ffffff;stroke:#0000aa;stroke-width:0.689901"
       id="rect9-3-8-7"
       width="19.752247"
       height="35.785606"
       x="7.7762585"
       y="138.35872" />
    <rect
       style="fill:#ffffff;stroke:#0000aa;stroke-width:0.698781"
       id="rect9-2-8-2-5"
       width="20.269051"
       height="35.776726"
       x="32.197887"
       y="138.36314" />
    <rect
       style="fill:#d5d5ff;stroke:#0000aa;stroke-width:0.707549"
       id="rect9-8-9-9-4"
       width="20.785967"
       height="35.76796"
       x="56.777142"
       y="138.36754" />
    <rect
       style="fill:#d5d5ff;stroke:#0000aa;stroke-width:0.689901"
       id="rect9-1-344-1-1"
       width="19.752247"
       height="35.785606"
       x="82.446815"
       y="138.35872" />
    <rect
       style="fill:#8080ff;stroke:#0000aa;stroke-width:0.685417"
       id="rect9-1-7-6-3-2"
       width="19.493889"
       height="35.790092"
       x="107.63224"
       y="138.35648" />
    <rect
       style="fill:#8080ff;stroke:#005500;stroke-width:0.689901"
       id="rect9-1-3-0-5-0"
       width="19.752247"
       height="35.785606"
       x="132.27217"
       y="138.35872" />
    <rect
       style="fill:#0066ff;stroke:#0000aa;stroke-width:0.689901"
       id="rect9-1-34-66-9-0"
       width="19.752247"
       height="35.785606"
       x="157.17268"
       y="138.35872" />
    <rect
       style="fill:#0066ff;stroke:#0000aa;stroke-width:0.689901"
       id="rect9-1-34-8-1-8-1"
       width="19.752247"
       height="35.785606"
       x="181.95982"
       y="138.35872" />
    <path
       style="fill:#0000ff;stroke:#0000ff;stroke-width:0.334135"
       d="m 13.193049,177.66844 c -0.40427,-0.0934 -0.542297,-0.14697 -0.870498,-0.33787 -0.316717,-0.18422 -0.705684,-0.56065 -0.898988,-0.87002 -0.246731,-0.39487 -0.939067,-2.01397 -1.222834,-3.21287 -0.199426,-0.84257 -0.332457,-1.11874 -0.490035,-1.80506 -0.9544201,-4.22321 -0.9795034,-8.36388 -0.075885,-12.52608 0.2905772,-1.33843 0.859994,-3.19617 1.3312,-4.34309 0.05191,-0.12636 0.135984,-0.33312 0.186829,-0.45947 0.05084,-0.12636 0.139455,-0.33312 0.196916,-0.45948 0.05746,-0.12635 0.155432,-0.34296 0.217719,-0.48134 0.1431,-0.31795 0.673155,-1.37651 0.805256,-1.60815 0.0549,-0.0963 0.158232,-0.28335 0.229624,-0.41571 0.323298,-0.59944 1.017247,-1.69275 1.513728,-2.38488 0.301984,-0.42099 1.058656,-1.42959 1.099765,-1.46593 0.0136,-0.012 0.113005,-0.13019 0.220871,-0.26256 0.107864,-0.13238 0.215897,-0.26281 0.240075,-0.28987 0.02419,-0.0271 0.152259,-0.17456 0.28463,-0.32777 0.729433,-0.8443 1.869084,-1.97944 2.735272,-2.72444 0.529377,-0.45532 0.553775,-0.47561 0.765464,-0.63666 0.108303,-0.0824 0.216606,-0.17213 0.240674,-0.19943 0.02406,-0.0273 0.220983,-0.18106 0.437593,-0.34169 0.216606,-0.16062 0.413522,-0.3072 0.43759,-0.32573 0.02406,-0.0185 0.159185,-0.0894 0.30026,-0.1577 0.569413,-0.27531 1.194606,-0.35108 1.758987,-0.21318 0.885311,0.21631 1.530715,0.71555 1.903891,1.47271 0.310578,0.63015 0.303382,0.49895 0.303382,5.53134 v 4.49296 l -0.645449,0.64029 c -0.717549,0.71183 -0.886514,0.83493 -1.249458,0.91027 -0.435512,0.0904 -0.671428,0.0132 -1.554744,-0.50875 -0.17648,-0.10428 -0.327732,-0.1896 -0.336122,-0.1896 -0.0084,0 -0.30706,-0.17336 -0.663713,-0.38523 -0.356652,-0.21187 -0.677997,-0.39972 -0.714097,-0.41743 -0.03609,-0.0177 -0.105142,-0.056 -0.153425,-0.0852 -0.04828,-0.0291 -0.225507,-0.13149 -0.393831,-0.22745 -0.168327,-0.096 -0.345432,-0.19856 -0.393565,-0.22802 -0.04814,-0.0295 -0.117057,-0.0681 -0.153156,-0.0859 -0.0361,-0.0178 -0.208972,-0.11702 -0.384156,-0.22051 -0.175184,-0.10349 -0.337636,-0.18817 -0.361012,-0.18817 -0.02339,0 -0.0425,-0.0178 -0.0425,-0.0395 0,-0.0217 -0.05415,-0.0613 -0.120339,-0.0878 -0.06619,-0.0265 -0.218795,-0.10791 -0.339133,-0.18079 -0.120336,-0.0729 -0.268023,-0.15609 -0.328195,-0.18486 -0.06016,-0.0288 -0.122066,-0.0702 -0.137553,-0.0921 -0.01547,-0.0218 -0.131833,-0.0496 -0.258553,-0.0618 -0.275455,-0.0264 -0.537603,0.0936 -0.690017,0.31603 -0.136423,0.1991 -0.134799,0.61845 0.003,0.79511 0.11785,0.151 0.303237,0.31994 0.353201,0.32186 0.01978,6.7e-4 0.062,0.026 0.09384,0.0561 0.03184,0.0301 0.230099,0.17284 0.440567,0.31725 0.210468,0.14441 0.493153,0.34273 0.628184,0.44073 0.235622,0.171 1.109468,0.78338 2.289419,1.60438 0.604791,0.42082 0.718013,0.53396 0.760402,0.75991 0.06836,0.36441 -0.115725,0.65848 -0.552964,0.88334 -0.107063,0.055 -0.224198,0.11859 -0.260301,0.14118 -0.121148,0.0758 -0.721304,0.41912 -0.787663,0.45058 -0.0361,0.0171 -0.124716,0.07 -0.196916,0.1175 -0.0722,0.0476 -0.170663,0.10671 -0.218798,0.13153 -0.04814,0.0249 -0.176129,0.0969 -0.284432,0.16006 -0.108307,0.0632 -0.255991,0.14746 -0.328195,0.18724 -0.0722,0.0397 -0.214575,0.12558 -0.316385,0.19066 -0.101809,0.0651 -0.193715,0.11835 -0.20424,0.11835 -0.01053,0 -0.163526,0.0853 -0.340003,0.18955 -0.17648,0.10425 -0.41933,0.24439 -0.539665,0.31143 -0.777398,0.43304 -1.985537,1.14648 -2.07178,1.22344 -0.154064,0.1375 -0.225578,0.30526 -0.225578,0.52917 0,0.23468 0.0698,0.38656 0.261329,0.56869 0.124894,0.11876 0.165415,0.13111 0.43056,0.13128 0.210776,1.3e-4 0.347801,-0.0263 0.489608,-0.0947 0.308133,-0.14842 1.08072,-0.51368 1.465934,-0.69307 0.192539,-0.0896 0.492836,-0.22966 0.667328,-0.31112 0.488689,-0.22814 0.971067,-0.45232 1.236196,-0.57453 0.132371,-0.0611 0.486821,-0.22807 0.787664,-0.37123 0.818122,-0.38931 0.95887,-0.43923 1.151759,-0.40848 0.219807,0.0351 0.365307,0.13468 0.493691,0.33805 0.120716,0.19123 0.129391,0.34377 0.04346,0.76426 -0.03381,0.16541 -0.0939,0.48781 -0.13355,0.71645 -0.03965,0.22864 -0.09345,0.52892 -0.119544,0.66728 -0.03956,0.20968 -0.03541,0.2831 0.02493,0.44108 0.144253,0.37772 0.511196,0.57126 0.877843,0.463 0.388685,-0.11476 0.449778,-0.23388 0.794726,-1.54948 0.114608,-0.43709 0.187333,-0.71044 0.256279,-0.96325 0.0361,-0.13237 0.09624,-0.35377 0.133636,-0.49201 0.2316,-0.85609 0.626304,-1.65659 1.084072,-2.19863 0.07114,-0.0842 0.734528,-0.76359 1.474197,-1.50969 1.34518,-1.35686 1.492881,-1.52951 1.675607,-1.9586 l 0.09767,-0.22936 0.02188,-10.43656 0.02188,-10.43656 1.991044,-0.0121 c 1.095074,-0.007 2.035347,-9.3e-4 2.0895,0.0117 l 0.09846,0.0239 v 10.38255 c 0,10.30897 6.68e-4,10.38434 0.08851,10.63436 0.04868,0.1385 0.144119,0.34117 0.212092,0.45037 0.06797,0.10921 0.743835,0.82226 1.501913,1.58456 1.573626,1.58238 1.823913,1.88563 2.156554,2.61286 0.182668,0.39935 0.41793,1.12295 0.547222,1.68312 0.01944,0.0842 0.07799,0.31069 0.130096,0.50323 0.331102,1.36479 0.122223,1.43744 1.254698,1.90236 0.349925,0.14366 0.541518,-0.35728 0.541518,-0.71433 v -0.23204 c -0.03481,-0.31537 -0.0292,-0.23005 -0.05904,-0.48774 -0.02837,-0.24479 -0.268343,-1.21739 -0.227626,-1.43445 0.03691,-0.19677 0.25018,-0.43713 0.44486,-0.50138 0.209493,-0.0692 0.386391,-0.0278 0.883721,0.20612 0.516974,0.24325 2.198735,1.02606 2.590094,1.20563 0.156442,0.0718 0.461661,0.21498 0.678267,0.31822 0.21661,0.10325 0.531676,0.25098 0.700151,0.32829 0.16847,0.0773 0.40477,0.19118 0.525109,0.25304 0.167071,0.0859 0.287627,0.11325 0.509967,0.11574 0.262677,0.003 0.307555,-0.01 0.458576,-0.13213 0.196613,-0.15899 0.306382,-0.44666 0.261575,-0.68551 -0.05745,-0.30622 -0.181906,-0.41283 -1.116983,-0.95679 -0.491329,-0.28582 -0.898325,-0.51967 -0.904436,-0.51967 -0.0061,0 -0.211237,-0.11815 -0.455838,-0.26255 -0.244597,-0.14441 -0.451359,-0.26256 -0.459469,-0.26256 -0.0081,0 -0.208347,-0.11422 -0.444967,-0.25382 -0.236618,-0.1396 -0.459754,-0.26781 -0.495856,-0.28492 -0.0361,-0.0171 -0.124713,-0.0701 -0.196916,-0.11765 -0.0722,-0.0477 -0.160817,-0.10055 -0.196916,-0.11765 -0.0361,-0.0171 -0.25271,-0.14138 -0.481351,-0.27619 -0.228643,-0.13479 -0.445249,-0.25962 -0.481352,-0.27741 -0.0361,-0.0178 -0.105023,-0.0562 -0.153158,-0.0855 -0.04814,-0.0292 -0.235271,-0.13789 -0.415854,-0.24153 -0.400551,-0.22986 -0.524966,-0.39736 -0.524966,-0.70673 0,-0.29917 0.106906,-0.45556 0.492946,-0.72111 0.3779,-0.25995 1.449223,-1.01041 2.028543,-1.42098 0.223677,-0.15852 0.536481,-0.37684 0.695118,-0.48513 0.158641,-0.10831 0.324228,-0.22646 0.367976,-0.26256 0.04375,-0.0361 0.269544,-0.19363 0.501778,-0.35007 0.325701,-0.21941 0.442083,-0.32512 0.509054,-0.46235 0.170482,-0.34938 0.08385,-0.71317 -0.222697,-0.93524 -0.304267,-0.2204 -0.573063,-0.18735 -1.068902,0.13143 -0.0722,0.0464 -0.185428,0.10607 -0.251613,0.13256 -0.06619,0.0265 -0.120339,0.0659 -0.120339,0.0877 0,0.0217 -0.02211,0.0395 -0.04915,0.0395 -0.02703,0 -0.189491,0.0849 -0.361013,0.18862 -0.171522,0.10374 -0.341393,0.20298 -0.377496,0.22051 -0.0361,0.0175 -0.105143,0.0558 -0.153424,0.0849 -0.04828,0.0291 -0.225505,0.13149 -0.393832,0.22744 -0.168324,0.096 -0.345429,0.19856 -0.393564,0.22801 -0.04814,0.0295 -0.117058,0.0681 -0.153158,0.0859 -0.0361,0.0178 -0.25271,0.14262 -0.481352,0.27742 -0.228641,0.13479 -0.445247,0.25908 -0.481351,0.27618 -0.0361,0.0171 -0.124713,0.0701 -0.196916,0.11765 -0.0722,0.0476 -0.160816,0.10055 -0.196916,0.11767 -0.0361,0.0171 -0.203481,0.11249 -0.371952,0.21197 -0.347878,0.20539 -0.776921,0.44675 -0.945061,0.53165 -0.351213,0.17733 -0.886794,0.15399 -1.248418,-0.0545 -0.0993,-0.0572 -0.469036,-0.39186 -0.821619,-0.74363 l -0.641064,-0.63956 0.01206,-4.68944 0.01206,-4.68945 0.101416,-0.28444 c 0.268397,-0.75275 0.72518,-1.2713 1.414708,-1.60605 0.866125,-0.42049 1.597012,-0.4169 2.466975,0.0121 0.217168,0.10709 0.443621,0.23931 0.503231,0.29384 0.05961,0.0545 0.285606,0.23587 0.502215,0.40301 0.216606,0.16714 0.403678,0.31496 0.41571,0.32848 0.01203,0.0135 0.119534,0.10269 0.238884,0.19814 0.119353,0.0955 0.249525,0.20309 0.28927,0.2392 0.258357,0.23465 0.730115,0.6338 0.81102,0.71151 1.219532,1.1715 1.018012,0.97849 1.31865,1.30496 0.114618,0.1252 0.267471,0.28935 0.339675,0.36478 0.0722,0.0754 0.267378,0.29417 0.433727,0.48609 0.166346,0.19192 0.318958,0.35552 0.339134,0.36354 0.647791,0.82876 1.30746,1.68976 1.906411,2.56743 0.401553,0.60066 1.062138,1.66237 1.062138,1.70711 0,0.0102 0.08369,0.16196 0.185976,0.33715 0.102285,0.17518 0.36949,0.69265 0.593784,1.14994 0.392242,0.79967 0.478105,0.98263 0.595593,1.26901 0.02964,0.0722 0.08425,0.20019 0.121408,0.28444 0.03716,0.0842 0.101591,0.24176 0.14319,0.35007 0.04161,0.1083 0.09571,0.23495 0.120242,0.28144 0.02452,0.0464 0.06066,0.1351 0.08029,0.19692 0.01961,0.0618 0.107063,0.3093 0.194299,0.54998 0.08724,0.24068 0.174536,0.49667 0.193993,0.56886 0.01944,0.0722 0.05552,0.18052 0.08015,0.24068 0.02463,0.0602 0.07598,0.21771 0.11412,0.35008 0.03813,0.13237 0.108782,0.36867 0.156984,0.52511 0.217579,0.70611 0.551096,2.16278 0.721364,3.15066 0.07537,0.43729 0.216991,1.5455 0.296378,2.31923 0.07637,0.74432 0.07611,4.07307 -3.34e-4,4.81351 -0.305026,2.95294 -0.891639,5.45112 -1.758984,7.65786 -0.05203,0.13237 -0.110538,0.28991 -0.130025,0.35008 -0.11513,0.35546 -0.416673,0.95199 -0.616977,1.22051 -0.127616,0.17108 -0.24324,0.31115 -0.256944,0.31126 -0.0137,1.1e-4 -0.08399,0.0549 -0.156191,0.12185 -0.163067,0.15109 -0.518814,0.36954 -0.722029,0.44337 -0.255924,0.093 -0.881715,0.22231 -1.06988,0.22112 -0.269813,-0.002 -0.8463,-0.14552 -1.139958,-0.28436 -0.144403,-0.0683 -0.607157,-0.3826 -1.028341,-0.69849 -0.421181,-0.31589 -0.864244,-0.64088 -0.984579,-0.72218 -0.120339,-0.0813 -0.228642,-0.15944 -0.240677,-0.17361 -0.02392,-0.0282 -0.258019,-0.18559 -0.328194,-0.22068 -0.02406,-0.012 -0.216499,-0.13495 -0.427633,-0.27314 -1.254343,-0.82103 -2.682298,-1.57266 -4.339665,-2.28425 -0.311528,-0.13376 -0.582237,-0.2432 -0.60157,-0.2432 -0.07833,0 -0.63765,-0.28502 -0.801176,-0.40828 -0.549916,-0.41449 -0.847934,-0.8403 -1.077107,-1.539 -0.04535,-0.13823 -0.0629,-1.21017 -0.08352,-5.09795 -0.02587,-4.88129 -0.0269,-4.9257 -0.121064,-5.25458 -0.162473,-0.56748 -0.393259,-1.05812 -0.677604,-1.44057 -0.209313,-0.28153 -3.074761,-3.11262 -3.134438,-3.15066 -0.395411,-0.25201 -0.835998,-0.27595 -1.316989,-0.05 -0.216496,0.11315 -2.844986,2.6952 -3.174135,3.11806 -0.227931,0.29282 -0.496713,0.79185 -0.62194,1.1547 -0.233985,0.678 -0.229771,0.57569 -0.229771,5.5793 0,5.13531 0.0067,5.00163 -0.280727,5.62305 -0.185227,0.4005 -0.564561,0.84165 -0.933336,1.08544 -0.269613,0.17823 -0.44342,0.26146 -0.952017,0.45588 -0.09627,0.0368 -0.234112,0.0933 -0.306315,0.12548 -0.612744,0.27337 -0.732601,0.32424 -0.763969,0.32424 -0.04317,0 -2.080218,1.02231 -2.157467,1.08275 -0.0298,0.0234 -0.172337,0.10602 -0.316743,0.18379 -0.570997,0.3075 -2.212331,1.36655 -2.494271,1.60938 -0.02406,0.0207 -0.135819,0.1008 -0.248336,0.17794 -0.112517,0.0772 -0.230667,0.16583 -0.262553,0.19707 -0.177219,0.17368 -0.970693,0.72934 -1.195719,0.83736 -0.303518,0.14568 -0.912172,0.28942 -1.201162,0.28366 -0.109523,-0.003 -0.352014,-0.0393 -0.538873,-0.0825 z"
       id="path1"
       sodipodi:nodetypes="cssscsssssssssssssssscsssscssssssssscssscsssssccssssssssssssssscsssssssssssssssssssssscccsccscssssssscsssssssscsssssssssssssssssssssssssssssssssssssssscccssssssscssssssssscssssssssssscsssssscsssssssssscssssssssssssssssssccc" />
  </g>
</svg>
