<?xml version="1.0" encoding="UTF-8" standalone="no"?>
<!-- Created with Inkscape (http://www.inkscape.org/) -->

<svg
   width="205.22002mm"
   height="46.726341mm"
   viewBox="0 0 205.22002 46.726341"
   version="1.1"
   id="svg1"
   xml:space="preserve"
   inkscape:version="1.3.2 (091e20e, 2023-11-25, custom)"
   sodipodi:docname="postoperative_level_icon.svg"
   xmlns:inkscape="http://www.inkscape.org/namespaces/inkscape"
   xmlns:sodipodi="http://sodipodi.sourceforge.net/DTD/sodipodi-0.dtd"
   xmlns="http://www.w3.org/2000/svg"
   xmlns:svg="http://www.w3.org/2000/svg"><sodipodi:namedview
     id="namedview1"
     pagecolor="#ffffff"
     bordercolor="#000000"
     borderopacity="0.25"
     inkscape:showpageshadow="2"
     inkscape:pageopacity="0.0"
     inkscape:pagecheckerboard="0"
     inkscape:deskcolor="#d1d1d1"
     inkscape:document-units="mm"
     inkscape:zoom="0.2560658"
     inkscape:cx="-285.08297"
     inkscape:cy="107.39427"
     inkscape:window-width="1920"
     inkscape:window-height="1009"
     inkscape:window-x="-8"
     inkscape:window-y="-8"
     inkscape:window-maximized="1"
     inkscape:current-layer="layer1" /><defs
     id="defs1" /><g
     inkscape:label="Capa 1"
     inkscape:groupmode="layer"
     id="layer1"
     transform="translate(-1.7464114,-15.815743)"><rect
       style="fill:#c6e9af;stroke:#447821;stroke-width:0.692108"
       id="rect10-1"
       width="204.52791"
       height="46.034233"
       x="2.0924654"
       y="16.161797" /><rect
       style="fill:#ffffff;stroke:#2d5016;stroke-width:0.689901"
       id="rect9-3"
       width="19.752247"
       height="35.785606"
       x="7.3482027"
       y="21.539993" /><rect
       style="fill:#ffffff;stroke:#2d5016;stroke-width:0.698781"
       id="rect9-2-8"
       width="20.269051"
       height="35.776726"
       x="31.769848"
       y="21.544426" /><rect
       style="fill:#44aa00;stroke:#2d5016;stroke-width:0.707549"
       id="rect9-8-9"
       width="20.785967"
       height="35.76796"
       x="56.349102"
       y="21.54882" /><rect
       style="fill:#44aa00;stroke:#2d5016;stroke-width:0.689901"
       id="rect9-1-344"
       width="19.752247"
       height="35.785606"
       x="82.018784"
       y="21.539993" /><rect
       style="fill:#225500;stroke:#2d5016;stroke-width:0.685417"
       id="rect9-1-7-6"
       width="19.493889"
       height="35.790092"
       x="107.20421"
       y="21.537758" /><rect
       style="fill:#225500;stroke:#2d5016;stroke-width:0.689901"
       id="rect9-1-3-0"
       width="19.752247"
       height="35.785606"
       x="131.8441"
       y="21.539993" /><rect
       style="fill:#112b00;fill-opacity:1;stroke:#2d5016;stroke-width:0.689901"
       id="rect9-1-34-66"
       width="19.752247"
       height="35.785606"
       x="156.74461"
       y="21.539993" /><rect
       style="fill:#112b00;fill-opacity:1;stroke:#2d5016;stroke-width:0.689901"
       id="rect9-1-34-8-1"
       width="19.752247"
       height="35.785606"
       x="181.53175"
       y="21.539993" /><rect
       style="fill:#ffffff;stroke:#ffffff;stroke-width:0.152"
       id="rect1"
       width="4.8404055"
       height="2.8311808"
       x="11.050738"
       y="21.27952"
       ry="0.24587519" /><rect
       style="fill:#ffffff;stroke:#ffffff;stroke-width:0.175108"
       id="rect1-0"
       width="2.8690648"
       height="6.3392229"
       x="26.395489"
       y="32.346588"
       ry="0.55053276" /><rect
       style="fill:#ffffff;stroke:#ffffff;stroke-width:0.29331"
       id="rect1-0-8"
       width="2.7508621"
       height="18.550356"
       x="31.042473"
       y="30.699982"
       ry="1.6110142" /><rect
       style="fill:#ffffff;stroke:#ffffff;stroke-width:0.29331"
       id="rect1-0-8-3"
       width="2.7508621"
       height="18.550356"
       x="49.567356"
       y="32.032299"
       ry="1.6110142" /><rect
       style="fill:#ffffff;stroke:#ffffff;stroke-width:0.280755"
       id="rect1-0-8-0"
       width="2.7634175"
       height="16.919001"
       x="24.659286"
       y="33.487278"
       ry="1.4693384" /><path
       style="fill:#002b00;stroke:#002b00;stroke-width:0.42904"
       d="m 59.631188,58.219819 0.331819,-0.331822 V 43.283635 28.679273 l -0.331819,-0.331806 c -0.435423,-0.435436 -1.095838,-0.459892 -1.563255,-0.05789 l -0.318502,0.273913 -0.05676,6.792498 -0.05676,6.792498 H 40.100465 22.565016 l -7.576964,-7.889402 -7.5769597,-7.889419 -0.00304,-3.439507 c -0.00253,-2.841316 -0.032946,-3.49718 -0.1746016,-3.77106 -0.2159139,-0.417545 -0.4916875,-0.566292 -1.04139,-0.561701 -0.4727926,0.0034 -0.7219917,0.146164 -0.9254328,0.528131 -0.098905,0.185709 -0.1320538,5.082213 -0.1320538,19.50522 v 19.257265 l 0.3318189,0.331823 c 0.3542497,0.354253 0.9447227,0.44639 1.3772207,0.214924 0.5227246,-0.279753 0.5612959,-0.567726 0.5612959,-4.191103 V 50.832522 H 32.548732 57.692673 v 3.527746 3.527745 l 0.331819,0.331823 c 0.260237,0.260242 0.433539,0.331822 0.803351,0.331822 0.369809,0 0.543111,-0.07156 0.803345,-0.331822 z M 7.40479,47.522064 v -1.040109 l 4.512284,0.07511 c 2.481761,0.04135 13.796533,0.07511 25.143945,0.07528 l 20.631654,1.69e-4 v 0.964883 0.964901 H 32.548732 7.40479 Z m 47.060533,-7.465426 c 0.487037,-0.118315 1.020572,-0.451976 1.272231,-0.795529 0.436001,-0.595187 0.479476,-0.972512 0.47691,-4.139237 -0.0022,-2.751997 -0.02468,-3.124259 -0.212717,-3.530446 -0.244689,-0.528502 -0.728441,-1.013054 -1.182759,-1.184703 -0.216222,-0.08169 -3.302059,-0.120678 -9.542433,-0.120678 h -9.222869 l -0.259594,-0.351114 c -0.481571,-0.651357 -0.976329,-0.779073 -3.018327,-0.779073 -1.542546,0 -1.887918,0.03257 -2.291708,0.21587 -0.572737,0.260023 -1.122738,0.976479 -1.228025,1.599666 l -0.076,0.449817 h -1.700756 -1.700754 l -1.212324,-1.164939 c -2.938829,-2.823966 -3.430589,-3.261411 -4.007004,-3.564405 -0.545699,-0.286825 -0.725771,-0.321105 -1.689222,-0.321594 -1.261371,-4.39e-4 -1.892468,0.239955 -2.670633,1.018117 -0.789008,0.788997 -1.018664,1.403898 -1.018664,2.727389 0,1.692344 0.04015,1.7487 3.855291,5.408314 1.746784,1.675583 3.356285,3.136394 3.57667,3.246253 0.348218,0.173574 0.824382,0.204596 3.635917,0.236934 l 3.235226,0.03713 0.33365,0.339924 c 0.760778,0.775056 -0.201254,0.71892 12.664009,0.738886 6.3995,0.01013 11.792247,-0.02009 11.983882,-0.06667 z M 31.129774,38.23214 c -0.216831,-0.216832 -0.227033,-0.378372 -0.227033,-3.595208 0,-2.974821 0.02194,-3.392434 0.187867,-3.57578 0.164055,-0.18127 0.379123,-0.207583 1.696314,-0.207583 1.430099,0 1.517622,0.0135 1.685157,0.252293 0.150164,0.214384 0.176711,0.751477 0.176711,3.575763 0,4.103878 0.16181,3.777558 -1.873025,3.777558 -1.267603,0 -1.443175,-0.02414 -1.645991,-0.227043 z m -7.739435,-1.055148 c -0.395147,-0.177725 -6.184921,-5.80677 -6.399625,-6.221969 -0.223453,-0.432112 -0.206189,-1.323559 0.03479,-1.796144 0.494992,-0.970724 1.761854,-1.424675 2.670912,-0.957052 0.225743,0.116121 1.141026,0.904899 2.03396,1.752817 0.892929,0.847936 2.018897,1.907911 2.50214,2.355482 l 0.878635,0.813775 h 2.044421 2.044422 v 2.100049 2.100067 l -2.752779,-0.0051 c -1.89315,-0.0034 -2.847738,-0.04776 -3.056872,-0.141945 z M 15.152532,26.945561 c 1.480104,-0.528198 2.227535,-2.302181 1.92443,-4.567551 -0.238913,-1.785612 -0.973678,-2.943969 -2.272921,-3.583258 -0.684905,-0.337004 -0.84897,-0.371047 -1.778174,-0.368937 -0.946406,0.0017 -1.077842,0.03156 -1.741763,0.389343 -0.787536,0.424448 -1.3562618,1.013644 -1.7503405,1.813325 -0.2139004,0.43407 -0.255952,0.705907 -0.255952,1.654571 0,1.046067 0.026431,1.18288 0.336651,1.742961 0.4796575,0.865978 1.0905625,1.518416 1.9668195,2.100556 1.317263,0.875109 2.593706,1.167825 3.57125,0.81899 z m -1.996101,-1.883944 c -0.693113,-0.326269 -1.724342,-1.262375 -2.01216,-1.826541 -0.242505,-0.475353 -0.287392,-1.270933 -0.09973,-1.767619 0.271113,-0.71757 1.240773,-1.390329 2.011339,-1.395476 0.459154,-0.0034 1.124616,0.265913 1.481573,0.598883 0.779272,0.726886 1.127476,2.428429 0.754192,3.685403 -0.318138,1.0713 -0.929099,1.273128 -2.135219,0.70535 z"
       id="path1"
       sodipodi:nodetypes="scccssccccccccccsscssscccccsssccssccccccsssssscsscscccsscssssscscsssssssssssscsssccccccsssssscsssssssscsss" /><ellipse
       style="fill:#002b00;stroke:#002b00;stroke-width:0.992;fill-opacity:1;stroke-opacity:1"
       id="path3"
       cx="13.390784"
       cy="22.665373"
       rx="2.1462178"
       ry="2.9225092" /><path
       style="fill:#002b00;fill-opacity:1;stroke:#002b00;stroke-width:0.992;stroke-opacity:1"
       d="m 16.8156,28.05375 -0.913285,2.648524 6.849632,7.397602 7.214944,-0.182657 0.09133,-5.75369 h -4.749077 l -5.479705,-5.023063 z"
       id="path4" /></g></svg>
