<?xml version="1.0" encoding="UTF-8" standalone="no"?>
<!-- Created with Inkscape (http://www.inkscape.org/) -->

<svg
   width="205.22002mm"
   height="46.726341mm"
   viewBox="0 0 205.22002 46.726341"
   version="1.1"
   id="svg1"
   xml:space="preserve"
   inkscape:version="1.3.2 (091e20e, 2023-11-25, custom)"
   sodipodi:docname="risk_care_icon.svg"
   xmlns:inkscape="http://www.inkscape.org/namespaces/inkscape"
   xmlns:sodipodi="http://sodipodi.sourceforge.net/DTD/sodipodi-0.dtd"
   xmlns="http://www.w3.org/2000/svg"
   xmlns:svg="http://www.w3.org/2000/svg"><sodipodi:namedview
     id="namedview1"
     pagecolor="#ffffff"
     bordercolor="#000000"
     borderopacity="0.25"
     inkscape:showpageshadow="2"
     inkscape:pageopacity="0.0"
     inkscape:pagecheckerboard="0"
     inkscape:deskcolor="#d1d1d1"
     inkscape:document-units="mm"
     inkscape:zoom="1.0242632"
     inkscape:cx="310.46708"
     inkscape:cy="-95.190377"
     inkscape:window-width="1920"
     inkscape:window-height="1009"
     inkscape:window-x="-8"
     inkscape:window-y="-8"
     inkscape:window-maximized="1"
     inkscape:current-layer="layer1" /><defs
     id="defs1" /><g
     inkscape:label="Capa 1"
     inkscape:groupmode="layer"
     id="layer1"
     transform="translate(-2.3558579,-126.88596)"><rect
       style="fill:#cccccc;stroke:#0000ff;stroke-width:0.692108"
       id="rect10-1"
       width="204.52791"
       height="46.034233"
       x="2.7019119"
       y="127.23202" /><path
       style="fill:#0044aa;stroke-width:0.193605"
       d="m 103.43921,166.69588 c -4.280913,-0.29218 -8.222519,-2.06425 -11.196433,-5.03372 -2.945705,-2.94129 -4.708989,-6.75065 -5.135776,-11.09521 -0.287261,-2.92422 0.37019,-6.31129 1.787423,-9.20849 0.607134,-1.24115 1.234819,-2.22092 2.184952,-3.41056 0.401498,-0.5027 1.710029,-1.81822 2.268594,-2.28069 2.535993,-2.09974 5.51248,-3.38046 8.88752,-3.82411 0.7717,-0.10144 0.95571,-0.11092 2.18676,-0.11261 1.64532,-0.002 2.60045,0.0904 3.94651,0.38289 3.39907,0.73855 6.384,2.38398 8.7729,4.83603 1.71034,1.75556 3.02822,3.86381 3.8597,6.17451 0.79053,2.19687 1.13418,4.49537 1.0329,6.90863 -0.13708,3.26629 -1.14868,6.39268 -2.92527,9.04073 -2.01282,3.00013 -4.97657,5.32084 -8.38726,6.56751 -1.38366,0.50575 -3.06046,0.88433 -4.4939,1.01462 -0.66136,0.0601 -2.17827,0.0821 -2.78862,0.0405 z m 2.98102,-3.38944 c 1.90379,-0.23822 3.74169,-0.89515 5.42498,-1.9391 0.4964,-0.30786 1.2884,-0.86401 1.3895,-0.97573 0.0692,-0.0765 -0.17559,-0.32504 -9.87773,-10.02727 -5.47184,-5.47185 -9.966845,-9.94316 -9.988927,-9.93625 -0.06254,0.0196 -0.624663,0.83654 -0.957627,1.3918 -0.94171,1.57039 -1.565526,3.22364 -1.853529,4.91227 -0.154218,0.90421 -0.190531,1.45732 -0.166891,2.54198 0.02556,1.17266 0.131185,1.98001 0.40799,3.11847 0.544783,2.2406 1.487978,4.24144 2.755103,5.84452 0.406817,0.51468 1.492626,1.60278 2.0017,2.00593 2.019326,1.59916 4.518581,2.61093 7.523291,3.04566 0.87184,0.12614 2.41052,0.1343 3.34214,0.0177 z m -2.71969,-1.81479 c -0.16826,-0.032 -0.30667,-0.1599 -0.3948,-0.36474 -0.0969,-0.22524 -0.0813,-0.32444 0.11998,-0.76392 0.30572,-0.66749 0.45182,-1.53532 0.45357,-2.69405 0.002,-1.28258 -0.0923,-1.71874 -0.38838,-1.79747 -0.27506,-0.0731 -0.46749,0.0625 -0.74667,0.52615 -0.23787,0.39505 -0.32548,0.71944 -0.34105,1.26269 -0.0151,0.52677 -0.061,0.65976 -0.25266,0.73265 -0.32128,0.12216 -0.81319,-0.10782 -0.87985,-0.41132 -0.0384,-0.17485 0.0392,-0.31488 0.30323,-0.54731 0.32493,-0.28601 0.5355,-0.71331 0.62069,-1.25959 0.10711,-0.68672 0.12971,-0.63348 -0.37038,-0.87233 -0.42787,-0.20435 -0.57815,-0.2906 -1.10682,-0.6352 -0.26624,-0.17355 -0.27888,-0.17736 -0.43401,-0.13089 -0.379827,0.1138 -0.94886,0.46626 -1.659088,1.02767 -0.592365,0.46823 -0.890378,0.83455 -1.222812,1.50307 -0.277526,0.5581 -0.491201,0.71218 -0.841917,0.60711 -0.175273,-0.0525 -0.497823,-0.37588 -0.586407,-0.58789 -0.123102,-0.29462 0.100442,-0.53689 0.71593,-0.77589 0.551275,-0.21407 1.219617,-0.8081 1.721863,-1.53041 0.272627,-0.39208 0.659935,-1.04119 0.736454,-1.23426 l 0.06776,-0.17097 -0.160548,-0.21021 c -0.212073,-0.27767 -0.410761,-0.59448 -0.56591,-0.90235 l -0.12638,-0.25077 -0.210074,3.8e-4 c -0.703289,0.002 -1.353387,0.39588 -2.568093,1.55754 -0.305918,0.29256 -0.314825,0.29766 -0.481489,0.27575 -0.251425,-0.0331 -0.470518,-0.28932 -0.616152,-0.7207 -0.197413,-0.58476 -0.140236,-0.90767 0.193046,-1.09022 0.13314,-0.0729 0.165144,-0.0743 0.545221,-0.024 0.472204,0.0625 0.802835,0.0389 1.313045,-0.0935 0.472424,-0.12265 0.937274,-0.31732 1.27689,-0.53472 0.266429,-0.17055 0.272973,-0.17874 0.243539,-0.30457 -0.01656,-0.0711 -0.06761,-0.30921 -0.113284,-0.52908 l -0.08304,-0.39977 -0.140439,-0.0332 c -0.07724,-0.0182 -0.501553,-0.0362 -0.942918,-0.0399 -0.643193,-0.005 -0.865704,0.008 -1.120975,0.065 -0.490374,0.11036 -0.81404,0.24663 -1.181857,0.4976 -0.297612,0.20306 -0.359754,0.22977 -0.534728,0.22977 -0.176883,0 -0.212418,-0.0157 -0.333441,-0.14781 -0.282379,-0.30813 -0.310845,-0.78142 -0.0605,-1.00576 0.150189,-0.13458 0.274943,-0.13976 0.731221,-0.0304 0.183461,0.044 0.463831,0.0801 0.623044,0.0803 0.81723,7.9e-4 2.100333,-0.44785 2.719836,-0.951 l 0.240745,-0.19553 0.02942,-0.31936 c 0.01622,-0.17565 0.05533,-0.41861 0.08697,-0.53991 0.06808,-0.26093 0.06251,-0.27101 -0.268061,-0.4853 -0.324692,-0.21047 -0.725527,-0.36921 -1.461279,-0.57869 -1.049863,-0.29893 -1.124196,-0.30939 -2.163245,-0.30453 -0.894186,0.004 -0.931336,10e-4 -1.038061,-0.0827 -0.530639,-0.41741 -0.06027,-1.39861 0.669831,-1.39732 0.257787,3.9e-4 0.471861,0.11511 0.919413,0.4924 0.436554,0.36802 0.864168,0.53108 1.760476,0.67129 l 0.300931,0.0471 4.832623,4.82876 c 4.19539,4.19207 4.81337,4.82443 4.68676,4.79587 -0.0946,-0.0213 -0.22769,-0.0137 -0.37883,0.0219 -0.12814,0.0301 -0.27997,0.0551 -0.3374,0.0554 -0.23901,0.001 -0.54881,0.33971 -0.71298,0.77851 -0.0443,0.11834 -0.16236,0.61916 -0.2624,1.11295 -0.20736,1.02349 -0.26138,1.67848 -0.18492,2.24196 0.0902,0.66472 0.097,1.05765 0.0212,1.21756 -0.10746,0.22648 -0.40121,0.36767 -0.66178,0.31808 z m 4.05931,-1.88945 c -0.15406,-0.15406 -0.22182,-0.33509 -0.20549,-0.54898 0.0663,-0.86876 -0.0199,-1.54912 -0.27569,-2.17563 -0.1411,-0.34556 -0.1265,-0.34029 0.35493,0.12821 0.30264,0.29451 0.31931,0.32012 0.36185,0.55615 0.0581,0.32268 0.23426,0.7401 0.45933,1.08881 0.16382,0.25383 0.1805,0.30235 0.1805,0.52542 0,0.33384 -0.12054,0.43911 -0.55472,0.48449 -0.2063,0.0216 -0.24833,0.0139 -0.32071,-0.0585 z m 8.08822,-1.84299 c 0.0647,-0.0828 0.24381,-0.34005 0.39811,-0.57177 1.37839,-2.06986 2.13662,-4.03148 2.4427,-6.31955 0.086,-0.64263 0.0977,-2.2293 0.0215,-2.90901 -0.19495,-1.73863 -0.72678,-3.57551 -1.50492,-5.19774 -1.85229,-3.86158 -4.99126,-6.34495 -9.27904,-7.34102 -1.38571,-0.32191 -2.88188,-0.48635 -4.06587,-0.44687 -2.32569,0.0776 -4.434082,0.72008 -6.545044,1.99461 -0.379705,0.22926 -1.187018,0.78289 -1.416209,0.9712 l -0.116967,0.0961 9.94738,9.93578 c 5.47106,5.46468 9.9594,9.93645 9.9741,9.93726 0.0147,7.9e-4 0.0796,-0.0662 0.14428,-0.14899 z m -0.66087,-4.78268 c -0.11493,-0.0414 -0.36093,-0.18562 -0.54663,-0.32054 -0.48694,-0.35378 -1.081,-0.56945 -1.99288,-0.72348 l -0.50155,-0.0847 -4.58418,-4.58255 c -2.52131,-2.5204 -4.58418,-4.59407 -4.58418,-4.60815 0,-0.014 0.0855,-0.0384 0.19007,-0.0541 0.26354,-0.0395 0.38582,-0.11189 0.54806,-0.32438 0.17224,-0.22558 0.32363,-0.67191 0.4074,-1.20102 0.0349,-0.22068 0.0993,-0.59695 0.143,-0.83615 0.14943,-0.81762 0.13895,-1.60926 -0.0275,-2.08119 -0.16612,-0.47086 -0.099,-0.89762 0.17393,-1.10579 0.12205,-0.0931 0.18259,-0.10966 0.40095,-0.10966 0.23976,0 0.26512,0.009 0.37427,0.13105 0.17058,0.19092 0.16036,0.41644 -0.0432,0.95164 -0.2685,0.70608 -0.38232,1.56695 -0.34991,2.64661 0.0215,0.71493 0.10138,1.31518 0.20951,1.57401 0.0674,0.16129 0.27369,0.29367 0.45797,0.29387 0.19175,2e-4 0.4366,-0.26458 0.63894,-0.69099 0.2136,-0.45013 0.25078,-0.63605 0.24143,-1.20736 -0.007,-0.38563 0.006,-0.5154 0.0575,-0.61443 0.0791,-0.15176 0.13366,-0.17539 0.40491,-0.17539 0.29421,0 0.56447,0.17089 0.62484,0.39509 0.0537,0.19949 0.0183,0.29686 -0.19998,0.54901 -0.36584,0.42269 -0.52458,0.77071 -0.6189,1.35688 -0.0984,0.61181 -0.0989,0.60985 0.14847,0.68934 0.29318,0.0942 1.12288,0.50003 1.42576,0.69735 0.13866,0.0903 0.28312,0.16424 0.32099,0.16423 0.2038,-9e-5 1.15606,-0.68222 1.77615,-1.27232 0.47343,-0.45053 0.70631,-0.7657 1.02186,-1.38294 0.14303,-0.27975 0.30762,-0.54608 0.36579,-0.59183 0.11558,-0.0909 0.37587,-0.1117 0.55345,-0.0442 0.1342,0.051 0.45494,0.34802 0.52761,0.48856 0.17162,0.33187 0.004,0.54257 -0.69986,0.88043 -0.27882,0.13381 -0.60061,0.31384 -0.71508,0.40008 -0.40869,0.30789 -1.03076,1.13544 -1.41326,1.88008 -0.31452,0.61231 -0.30917,0.57999 -0.12858,0.77705 0.17736,0.19353 0.49015,0.6635 0.66663,1.00161 0.14068,0.26952 0.17682,0.27827 0.60767,0.14702 0.59926,-0.18257 1.00966,-0.47173 1.78153,-1.25523 0.59873,-0.60777 0.68281,-0.66088 0.90097,-0.56915 0.13852,0.0582 0.38948,0.32968 0.5563,0.6017 0.0949,0.15474 0.11858,0.24616 0.13596,0.5246 0.025,0.40003 -0.0216,0.54462 -0.21376,0.66336 -0.11999,0.0742 -0.21076,0.0843 -0.86798,0.0967 -0.78638,0.0149 -0.91391,0.0386 -1.56042,0.29081 -0.41631,0.16239 -0.93088,0.48573 -0.90656,0.56966 0.0103,0.0353 0.0658,0.22415 0.12346,0.41972 0.0577,0.19556 0.10488,0.39648 0.10488,0.44648 0,0.18182 0.0641,0.19343 0.9335,0.16908 1.26454,-0.0354 1.61771,-0.13973 2.56756,-0.75837 0.12263,-0.0799 0.25949,-0.13088 0.383,-0.14274 0.16673,-0.0161 0.20994,-0.004 0.32623,0.0943 0.17067,0.14362 0.24353,0.31928 0.24335,0.5867 -1.8e-4,0.25406 -0.0992,0.43908 -0.28708,0.53622 -0.12228,0.0632 -0.15812,0.063 -0.58474,-0.004 -0.90967,-0.14262 -1.64307,0.0134 -2.7994,0.59502 -0.19861,0.0999 -0.43508,0.24533 -0.52547,0.32312 l -0.16435,0.14143 -0.0274,0.39337 c -0.015,0.21635 -0.0533,0.51073 -0.085,0.65418 l -0.0576,0.2608 0.10894,0.0902 c 0.3179,0.26328 0.8388,0.45593 1.85995,0.68785 0.84207,0.19126 1.10342,0.21834 1.75985,0.18237 1.09024,-0.0598 1.2187,-0.0395 1.39282,0.21913 0.11445,0.17002 0.12178,0.47602 0.0169,0.70627 -0.094,0.20639 -0.3584,0.44427 -0.55425,0.49866 -0.19525,0.0542 -0.19417,0.0543 -0.44255,-0.0351 z m -14.33956,-12.31022 c -0.18861,-0.19309 -0.42774,-0.47747 -0.53139,-0.63195 -0.10366,-0.15448 -0.22882,-0.33185 -0.27816,-0.39416 -0.122607,-0.15483 -0.128237,-0.51619 -0.01,-0.60592 0.21596,-0.16313 0.71745,-0.24734 0.84459,-0.14183 0.16592,0.13771 0.19318,0.27491 0.19898,1.00147 0.004,0.49714 0.0235,0.76369 0.067,0.91283 0.0338,0.11585 0.0591,0.21065 0.0564,0.21065 -0.003,0 -0.15931,-0.158 -0.34792,-0.35109 z"
       id="path1" /><path
       d="m 46.803504,147.93792 h -1.511495 c -3.554647,0 -5.335476,-4.29741 -2.821693,-6.8112 l 1.068216,-1.06962 a 1.9947534,1.9947534 0 0 0 -2.819589,-2.81888 l -1.068918,1.06751 c -2.513781,2.51308 -6.811198,0.73296 -6.811198,-2.82169 v -1.51149 a 1.9954551,1.9954551 0 0 0 -3.99091,0 v 1.51219 c 0,3.55465 -4.297417,5.33478 -6.811199,2.82169 L 20.9678,137.23822 a 1.9947534,1.9947534 0 0 0 -2.819588,2.81888 l 1.069619,1.06962 c 2.513782,2.51379 0.732953,6.8112 -2.821692,6.8112 h -1.512898 a 1.9954548,1.9954548 0 1 0 0,3.99021 h 1.511496 c 3.554644,0 5.335474,4.29812 2.821692,6.8119 l -1.068217,1.06892 a 1.9954548,1.9954548 0 0 0 2.819588,2.81959 l 1.068918,-1.06962 c 2.513782,-2.51378 6.811199,-0.73295 6.811199,2.82169 v 1.51079 a 1.9954551,1.9954551 0 0 0 3.99091,0 v -1.50939 c 0,-3.55464 4.297417,-5.33547 6.811198,-2.82169 l 1.068918,1.06822 a 1.9954548,1.9954548 0 0 0 2.819589,-2.81959 l -1.069619,-1.06892 c -2.513783,-2.51378 -0.732953,-6.8119 2.821693,-6.8119 h 1.510793 a 1.9954548,1.9954548 0 1 0 0,-3.99021 z m -18.20458,3.11768 a 3.3666724,3.3666724 0 1 1 3.366672,-3.36667 3.3666724,3.3666724 0 0 1 -3.366672,3.36667 z m 5.611121,3.92779 a 1.6833362,1.6833362 0 1 1 1.683336,-1.68334 1.6833362,1.6833362 0 0 1 -1.683336,1.68334 z"
       id="path1-7"
       style="fill:#165016;stroke-width:0.070139" /><path
       style="fill:#550022;stroke-width:0.256749"
       d="m 179.78855,167.76454 c -0.23078,-0.23789 -0.24689,-0.45291 -0.0952,-1.27009 0.0552,-0.29733 0.10035,-0.58193 0.10035,-0.63244 0,-0.0505 -0.15807,-0.14549 -0.35126,-0.21104 -0.63616,-0.21587 -2.20806,-0.92404 -2.98619,-1.34535 -0.89569,-0.48496 -1.6973,-1.01272 -2.46782,-1.62477 -0.30418,-0.24162 -0.58071,-0.43931 -0.61451,-0.43931 -0.0338,0 -0.3079,0.32808 -0.60913,0.72906 -0.30899,0.41132 -0.62436,0.75981 -0.72364,0.79963 -0.41524,0.16654 -0.90525,-0.18858 -0.90525,-0.65607 0,-0.18251 0.12028,-0.39349 0.5821,-1.02101 0.32015,-0.43502 0.58209,-0.81634 0.58209,-0.84737 0,-0.031 -0.27851,-0.35568 -0.61889,-0.72144 -0.34039,-0.36576 -0.82399,-0.92822 -1.07466,-1.24991 -0.53942,-0.69224 -1.52665,-2.18519 -1.88417,-2.84936 -0.13951,-0.25916 -0.29004,-0.48561 -0.33452,-0.50321 -0.0445,-0.0176 -0.41505,0.10911 -0.82349,0.28155 -0.99427,0.41978 -1.29797,0.41147 -1.52533,-0.0417 -0.13363,-0.2664 -0.0812,-0.60553 0.12334,-0.79772 0.0822,-0.0773 0.47537,-0.2756 0.87363,-0.44073 0.62971,-0.26111 0.71979,-0.31841 0.69103,-0.43956 -0.0182,-0.0766 -0.19908,-0.57383 -0.40197,-1.1049 -0.2029,-0.53108 -0.47669,-1.3846 -0.60844,-1.89671 -0.23159,-0.90018 -0.572,-2.72928 -0.572,-3.07345 0,-0.19782 0.0484,-0.19371 -1.11111,-0.094 -0.59464,0.0511 -0.91873,0.0521 -1.04315,0.003 -0.5037,-0.19832 -0.54902,-1.02024 -0.0687,-1.24584 0.094,-0.0442 0.60258,-0.11467 1.13007,-0.15665 l 0.95908,-0.0763 2.3e-4,-1.69595 c 2.4e-4,-1.82991 0.0727,-2.90575 0.26524,-3.93752 0.0672,-0.36037 0.11059,-0.66784 0.0963,-0.68326 -0.0143,-0.0155 -0.44016,-0.0988 -0.94644,-0.18525 -0.85562,-0.1461 -0.93349,-0.17216 -1.10464,-0.36962 -0.25534,-0.29459 -0.25104,-0.63469 0.0115,-0.90528 0.24338,-0.25088 0.40049,-0.256 1.60685,-0.0524 0.76515,0.12918 0.90383,0.13709 0.93041,0.053 0.0171,-0.0543 0.16214,-0.35753 0.32215,-0.67375 1.16078,-2.29407 3.02783,-3.9712 5.15755,-4.63293 0.42917,-0.13335 0.48133,-0.16765 0.45503,-0.29919 -0.0163,-0.0817 -0.0642,-0.46249 -0.10644,-0.84616 -0.067,-0.60895 -0.0631,-0.72482 0.0307,-0.91183 0.13044,-0.26002 0.29101,-0.35626 0.59446,-0.35626 0.47707,0 0.65995,0.31171 0.74861,1.27597 0.0757,0.82343 0.0127,0.76193 0.75432,0.73635 2.06831,-0.0713 4.45289,0.98351 5.47793,2.42324 0.16717,0.2348 0.33126,0.43721 0.36463,0.44981 0.0334,0.0126 0.51043,-0.1655 1.06011,-0.39577 1.11598,-0.4675 1.29121,-0.48196 1.57831,-0.13023 0.23051,0.28239 0.22339,0.62758 -0.018,0.87377 -0.11068,0.11287 -0.57852,0.35122 -1.1741,0.59819 -0.87932,0.36462 -0.98562,0.426 -0.94998,0.5485 0.12129,0.41686 0.10857,1.915 -0.0265,3.12234 -0.24442,2.18458 -0.17043,4.27673 0.21802,6.16422 0.15256,0.74126 0.49245,1.99023 0.54162,1.99023 0.0125,0 0.47301,-0.2483 1.02334,-0.55177 1.13475,-0.62573 1.32105,-0.66582 1.62726,-0.35016 0.25172,0.25949 0.2717,0.67035 0.045,0.92627 -0.0828,0.0935 -0.58711,0.40923 -1.1207,0.70166 -0.53359,0.29243 -0.98448,0.5454 -1.002,0.56216 -0.0573,0.0548 0.35843,0.80413 0.73938,1.3326 0.49006,0.67982 1.3054,1.46136 2.07997,1.99374 0.34362,0.23619 1.21188,0.73657 1.92946,1.11199 0.71758,0.3754 1.48814,0.78938 1.71237,0.91993 l 0.40767,0.23739 0.89253,-0.78652 c 0.80271,-0.70737 0.91846,-0.7865 1.15027,-0.7865 0.33069,0 0.56156,0.15806 0.65439,0.44804 0.1209,0.37761 -0.0311,0.61495 -0.85975,1.34271 -0.70721,0.62109 -0.73837,0.65956 -0.64263,0.79318 0.31806,0.44394 0.56456,0.87891 0.70496,1.24396 0.14208,0.36945 0.15903,0.52107 0.15799,1.41391 -0.001,0.90827 -0.0178,1.04931 -0.18269,1.5363 -0.24413,0.72103 -0.63602,1.5096 -1.01042,2.03315 -0.16962,0.2372 -0.3084,0.45821 -0.3084,0.49114 0,0.0329 0.18241,0.29547 0.40536,0.58338 0.55783,0.72037 0.62266,1.03665 0.28406,1.38571 -0.13077,0.1348 -0.24057,0.17773 -0.4546,0.17773 -0.32454,0 -0.43441,-0.0874 -0.92977,-0.73996 -0.18653,-0.24569 -0.35819,-0.41043 -0.40103,-0.38484 -0.0412,0.0246 -0.20502,0.13557 -0.36406,0.24663 -1.55465,1.08548 -4.4337,1.6675 -6.69606,1.35365 -0.30247,-0.042 -0.56405,-0.0618 -0.58129,-0.044 -0.0173,0.0178 -0.0772,0.29263 -0.13315,0.61082 -0.17123,0.97298 -0.30032,1.16475 -0.78414,1.16475 -0.19582,0 -0.30496,-0.0486 -0.45346,-0.2016 z m 5.27694,-4.80458 c 1.13225,-0.58163 1.7471,-2.54081 1.19061,-3.79385 -0.33418,-0.75243 -0.91996,-1.18981 -1.79953,-1.3436 -0.83436,-0.14589 -1.843,0.1113 -2.39466,0.61061 -0.83226,0.75326 -0.8781,2.21987 -0.1033,3.30483 0.33865,0.47421 1.06578,1.06538 1.54844,1.25891 0.50202,0.20127 1.12342,0.18657 1.55844,-0.0369 z m -7.24556,-2.67539 c 0.78129,-0.21746 1.24525,-0.56469 1.51187,-1.13151 0.2103,-0.44708 0.2175,-1.28736 0.015,-1.74794 -0.48006,-1.09181 -1.51076,-1.47978 -2.54154,-0.95667 -0.53859,0.27332 -1.27153,0.99643 -1.4914,1.4714 -0.48146,1.04005 -0.0317,2.04903 1.06758,2.39498 0.27462,0.0864 1.08018,0.0695 1.43851,-0.0303 z m -1.4583,-6.21885 c 1.51229,-0.77686 1.97212,-3.26101 0.82291,-4.44567 -0.96949,-0.9994 -3.14963,-0.96098 -4.13196,0.0728 -0.79107,0.83252 -0.71505,2.28594 0.17341,3.31543 0.35059,0.40624 1.07503,0.91664 1.54967,1.09181 0.54115,0.19972 1.15619,0.18638 1.58597,-0.0344 z m -4.48563,-6.16558 c 0.38529,-0.18035 0.8058,-0.6348 1.01592,-1.09793 0.23616,-0.52056 0.24852,-1.27994 0.0278,-1.70983 -0.37301,-0.72656 -1.18563,-1.10308 -2.24945,-1.04227 -0.76593,0.0438 -1.23936,0.22358 -1.63062,0.61929 -0.97675,0.98786 -0.33719,2.56826 1.30762,3.23124 0.4272,0.17219 1.16025,0.17195 1.5287,-5.2e-4 z m 3.32666,-4.83872 c 0.36344,-0.10402 0.87236,-0.61904 1.11133,-1.12464 0.31206,-0.66027 0.42383,-1.22046 0.38475,-1.9286 -0.044,-0.79676 -0.3161,-1.39091 -0.81492,-1.77908 -0.9694,-0.75441 -2.56257,-0.56598 -3.25937,0.38549 -0.83312,1.13763 -0.45552,2.93761 0.83029,3.95793 0.63526,0.5041 1.17115,0.65398 1.74792,0.4889 z"
       id="path2" /></g></svg>
