<?xml version="1.0" encoding="UTF-8" standalone="no"?>
<!-- Uploaded to: SVG Repo, www.svgrepo.com, Generator: SVG Repo Mixer Tools -->

<svg
   fill="#000000"
   height="800px"
   width="800px"
   version="1.1"
   id="Layer_1"
   viewBox="0 0 511.117 511.117"
   xml:space="preserve"
   sodipodi:docname="syringe-logo.svg"
   inkscape:version="1.3.2 (091e20e, 2023-11-25, custom)"
   xmlns:inkscape="http://www.inkscape.org/namespaces/inkscape"
   xmlns:sodipodi="http://sodipodi.sourceforge.net/DTD/sodipodi-0.dtd"
   xmlns="http://www.w3.org/2000/svg"
   xmlns:svg="http://www.w3.org/2000/svg"><defs
   id="defs2" /><sodipodi:namedview
   id="namedview2"
   pagecolor="#ffffff"
   bordercolor="#000000"
   borderopacity="0.25"
   inkscape:showpageshadow="2"
   inkscape:pageopacity="0.0"
   inkscape:pagecheckerboard="0"
   inkscape:deskcolor="#d1d1d1"
   inkscape:zoom="0.508125"
   inkscape:cx="263.71464"
   inkscape:cy="664.20664"
   inkscape:window-width="1920"
   inkscape:window-height="1009"
   inkscape:window-x="-8"
   inkscape:window-y="-8"
   inkscape:window-maximized="1"
   inkscape:current-layer="Layer_1" />
<path
   style="fill:#c72b00;fill-opacity:1;stroke:#0000ff;stroke-width:0.169031;stroke-linejoin:bevel"
   d="M 160.31345,325.65634 184.83198,352.06091 123.85,411.15685 99.331468,389.78172 Z"
   id="path5" /><path
   style="fill:#ff7049;fill-opacity:1;stroke:#0000ff;stroke-width:0.169031;stroke-linejoin:bevel"
   d="m 358.97639,115.04848 -54.0665,54.06649 37.72082,37.09214 52.80913,-53.43782 z"
   id="path4" /><path
   style="fill:#ff7049;fill-opacity:1;stroke:#0000ff;stroke-width:0.169031;stroke-linejoin:bevel"
   d="M 450.13502,17.603046 386.63832,84.871828 423.73045,123.85 490.37056,55.952538 Z"
   id="path3" /><path
   style="fill:#ff49eb;fill-opacity:1;stroke:#0000ff;stroke-width:0.169031;stroke-linejoin:bevel"
   d="m 277.87665,145.22512 -131.39417,132.65153 5.02945,40.86421 44.00761,41.49289 37.72081,-0.62868 131.39417,-126.9934 z"
   id="path2" /><g
   transform="translate(1 1)"
   id="g2"
   style="fill:#000080;fill-opacity:1;stroke:#0000ff">
	<g
   id="g1"
   style="fill:#000080;fill-opacity:1;stroke:#0000ff">
		<path
   d="M507.469,64.324L444.793,1.648c-3.531-3.531-8.828-3.531-12.359,0c-3.531,3.531-3.531,8.828,0,12.359l6.179,6.179    l-56.938,56.938l-31.338-31.338c-3.531-3.531-8.828-3.531-12.359,0l-24.717,24.717c-1.766,1.766-2.648,3.531-2.648,6.179    c0,2.648,0.883,4.414,2.648,6.179l6.647,6.595l-49.902,49.902l-118.29,118.29c-18.354,19.152-20.112,48.402-5.282,68.841    L127,345.924c-0.934,0.934-1.613,1.872-2.053,2.936l-24.43,24.43c-7.685,7.685-9.282,18.685-4.803,27.754L1.648,495.11    c-3.531,3.531-3.531,8.828,0,12.359c1.766,1.766,3.531,2.648,6.179,2.648c2.648,0,4.414-0.883,6.179-2.648l93.421-93.421    c3.938,2.707,8.664,4.262,13.393,4.262c7.062,0,12.359-2.648,16.772-7.945l26.483-26.483c0.934-0.934,1.613-1.872,2.053-2.936    l17.283-17.283c8.671,6.407,19.113,9.626,30.098,9.626c14.124,0,27.366-5.297,37.959-15.89l118.29-118.29l50.293-50.293    l6.203,6.155c1.766,1.766,3.531,2.648,6.179,2.648c1.766,0,4.414-0.883,5.297-2.648l24.717-24.717    c1.766-1.766,2.648-3.531,2.648-6.179c0-2.648-0.883-4.414-2.648-6.179l-31.338-31.338l56.938-56.938l7.062,7.062    c1.766,1.766,3.531,2.648,6.179,2.648c1.766,0,4.414-0.883,6.179-2.648C511,73.152,511,67.855,507.469,64.324z M288.545,145.538    l44.138-43.255l12.8,12.8l-43.697,43.697L288.545,145.538z M313.262,170.255l43.697-43.697l24.717,24.717l-43.697,43.697    L313.262,170.255z M157.897,338.862l12.359,12.359l-12.359,12.359l-12.359-12.359L157.897,338.862z M125.234,398.007    c-1.766,2.648-6.179,2.648-8.828,0l-3.531-3.531c-2.648-1.766-2.648-6.179,0-8.828l20.303-20.303l12.359,12.359L125.234,398.007z     M238.228,344.159c-6.179,7.062-15.007,10.593-24.717,10.593c-8.828,0-17.655-3.531-24.717-10.593l-24.717-24.717    c-14.124-13.241-14.124-35.31,0-49.434l24.717-24.717l24.717,24.717c1.766,1.766,3.531,2.648,6.179,2.648    c2.648,0,5.297-0.883,6.179-2.648c3.531-3.531,3.531-8.828,0-12.359l-24.717-24.717l18.979-18.979l25.159,25.159    c1.766,1.766,3.531,2.648,6.179,2.648c1.766,0,4.414-0.883,6.179-2.648c3.531-3.531,3.531-8.828,0-12.359l-25.159-25.159    l18.538-18.538l25.159,25.159c1.766,1.766,3.531,2.648,6.179,2.648c2.648,0,4.414-0.883,6.179-2.648    c3.531-3.531,3.531-8.828,0-12.359l-25.159-25.159l12.8-12.8l19.421,19.421l37.076,37.076l17.655,17.655L238.228,344.159z     M363.579,220.572l-12.359-12.359l43.697-43.697l12.8,12.8L363.579,220.572z M432.434,176.435l-6.178-6.178    c0,0,0-0.001-0.001-0.001l-24.716-24.716c0,0-0.001-0.001-0.001-0.001l-37.076-37.076c0,0-0.001,0-0.001-0.001l-31.778-31.779    l12.359-12.359l30.897,30.897l37.959,37.959l30.897,30.897L432.434,176.435z M419.193,113.759l-24.717-24.717l56.497-55.614    l24.717,24.717L419.193,113.759z"
   id="path1"
   style="fill:#000080;fill-opacity:1;stroke:#0000ff" />
	</g>
</g>
</svg>
