<?xml version="1.0" encoding="UTF-8" standalone="no"?>
<!-- Created with Inkscape (http://www.inkscape.org/) -->

<svg
   width="205.25023mm"
   height="46.859215mm"
   viewBox="0 0 205.25023 46.859215"
   version="1.1"
   id="svg1"
   xml:space="preserve"
   inkscape:version="1.3.2 (091e20e, 2023-11-25, custom)"
   sodipodi:docname="transmission_risk_icon.svg"
   xmlns:inkscape="http://www.inkscape.org/namespaces/inkscape"
   xmlns:sodipodi="http://sodipodi.sourceforge.net/DTD/sodipodi-0.dtd"
   xmlns:xlink="http://www.w3.org/1999/xlink"
   xmlns="http://www.w3.org/2000/svg"
   xmlns:svg="http://www.w3.org/2000/svg"><sodipodi:namedview
     id="namedview1"
     pagecolor="#ffffff"
     bordercolor="#000000"
     borderopacity="0.25"
     inkscape:showpageshadow="2"
     inkscape:pageopacity="0.0"
     inkscape:pagecheckerboard="0"
     inkscape:deskcolor="#d1d1d1"
     inkscape:document-units="mm"
     inkscape:zoom="1.0242632"
     inkscape:cx="350.49585"
     inkscape:cy="-95.190377"
     inkscape:window-width="1920"
     inkscape:window-height="1009"
     inkscape:window-x="-8"
     inkscape:window-y="-8"
     inkscape:window-maximized="1"
     inkscape:current-layer="layer1" /><defs
     id="defs1"><linearGradient
       id="linearGradient1"
       inkscape:collect="always"><stop
         style="stop-color:#af0011;stop-opacity:1;"
         offset="0"
         id="stop1" /><stop
         style="stop-color:#610d0d;stop-opacity:0.08411215;"
         offset="1"
         id="stop2" /></linearGradient><linearGradient
       inkscape:collect="always"
       xlink:href="#linearGradient1"
       id="linearGradient2"
       x1="2.3558578"
       y1="150.24913"
       x2="207.57587"
       y2="150.24913"
       gradientUnits="userSpaceOnUse"
       gradientTransform="translate(-209.83443,-300.5662)" /></defs><g
     inkscape:label="Capa 1"
     inkscape:groupmode="layer"
     id="layer1"
     transform="translate(-2.3407494,-126.81952)"><rect
       style="fill:url(#linearGradient2);stroke:#002255;stroke-width:0.692108;stroke-opacity:1"
       id="rect10-1"
       width="204.52791"
       height="46.034233"
       x="-207.13251"
       y="-173.33418"
       transform="rotate(179.9629)" /><path
       style="fill:#550022;stroke-width:0.292967"
       d="m 30.089595,170.64792 c -0.263335,-0.27145 -0.281718,-0.5168 -0.10863,-1.44926 0.06299,-0.33927 0.114506,-0.66402 0.114506,-0.72165 0,-0.0576 -0.180368,-0.16601 -0.40081,-0.24081 -0.7259,-0.24632 -2.51954,-1.05439 -3.407437,-1.53513 -1.02204,-0.55337 -1.93673,-1.15558 -2.815943,-1.85397 -0.347089,-0.27571 -0.662628,-0.50128 -0.701196,-0.50128 -0.03857,0 -0.351334,0.37436 -0.695057,0.8319 -0.352577,0.46935 -0.712435,0.867 -0.82572,0.91243 -0.473816,0.19004 -1.032949,-0.21518 -1.032949,-0.74862 0,-0.20825 0.137247,-0.44899 0.664214,-1.16503 0.365312,-0.49639 0.664203,-0.9315 0.664203,-0.96691 0,-0.0354 -0.317798,-0.40585 -0.706194,-0.82321 -0.388407,-0.41735 -0.940226,-1.05916 -1.226257,-1.42623 -0.615513,-0.78989 -1.742007,-2.49344 -2.14996,-3.2513 -0.15919,-0.29572 -0.330955,-0.55411 -0.381709,-0.5742 -0.05078,-0.0201 -0.473599,0.1245 -0.939656,0.32127 -1.134526,0.479 -1.481068,0.46951 -1.7405,-0.0476 -0.152481,-0.30398 -0.09265,-0.69095 0.140739,-0.91025 0.0938,-0.0882 0.542428,-0.31448 0.996868,-0.5029 0.71854,-0.29795 0.821327,-0.36333 0.78851,-0.50157 -0.02077,-0.0874 -0.227163,-0.65478 -0.458674,-1.26076 -0.231522,-0.606 -0.543934,-1.57992 -0.694269,-2.16427 -0.264259,-1.02717 -0.652689,-3.11429 -0.652689,-3.50701 0,-0.22572 0.05523,-0.22103 -1.267849,-0.10726 -0.678523,0.0583 -1.048331,0.0594 -1.190302,0.003 -0.574754,-0.22629 -0.626467,-1.16416 -0.07839,-1.42158 0.10726,-0.0504 0.687583,-0.13085 1.289483,-0.17875 l 1.094373,-0.0871 2.62e-4,-1.93519 c 2.74e-4,-2.08805 0.08296,-3.31565 0.302656,-4.49297 0.07668,-0.4112 0.126191,-0.76205 0.109885,-0.77964 -0.01632,-0.0177 -0.502251,-0.11274 -1.07995,-0.21138 -0.976318,-0.16671 -1.065172,-0.19645 -1.260466,-0.42176 -0.291359,-0.33615 -0.286453,-0.72423 0.01312,-1.03299 0.277712,-0.28627 0.456985,-0.29211 1.83352,-0.0598 0.873086,0.1474 1.031328,0.15643 1.061658,0.0605 0.01951,-0.062 0.185012,-0.40797 0.367594,-0.76879 1.324525,-2.61769 3.454951,-4.5314 5.885099,-5.28648 0.489711,-0.15216 0.549229,-0.1913 0.519219,-0.34139 -0.0186,-0.0932 -0.07326,-0.52773 -0.121455,-0.96553 -0.07645,-0.69485 -0.072,-0.82706 0.03503,-1.04045 0.14884,-0.2967 0.332061,-0.40652 0.678317,-0.40652 0.544368,0 0.753046,0.35568 0.854213,1.45596 0.08638,0.93959 0.01449,0.86942 0.860728,0.84023 2.360076,-0.0814 5.081037,1.12225 6.250674,2.76507 0.190752,0.26792 0.377989,0.49889 0.416066,0.51326 0.03811,0.0144 0.582434,-0.18884 1.209655,-0.45159 1.273405,-0.53345 1.473354,-0.54995 1.800954,-0.14861 0.263027,0.32223 0.254902,0.71611 -0.02054,0.99703 -0.126293,0.12879 -0.660129,0.40077 -1.339725,0.68258 -1.003361,0.41605 -1.124656,0.48609 -1.083988,0.62587 0.138399,0.47566 0.123885,2.18514 -0.03024,3.56279 -0.278899,2.49275 -0.194471,4.88003 0.248775,7.03378 0.174081,0.84582 0.561918,2.27098 0.618024,2.27098 0.01426,0 0.539735,-0.28333 1.167697,-0.62961 1.294824,-0.71399 1.507404,-0.75974 1.85681,-0.39955 0.287228,0.29609 0.310027,0.76491 0.05135,1.05693 -0.09448,0.10669 -0.669931,0.46696 -1.278792,0.80064 -0.608861,0.33368 -1.123356,0.62234 -1.143347,0.64146 -0.06538,0.0625 0.408992,0.91757 0.843681,1.52059 0.55919,0.77572 1.489546,1.6675 2.37338,2.27498 0.392093,0.26951 1.382834,0.84048 2.20164,1.26886 0.818805,0.42835 1.698064,0.90073 1.953925,1.0497 l 0.465178,0.27087 1.018435,-0.89747 c 0.915944,-0.80715 1.048022,-0.89744 1.312532,-0.89744 0.377339,0 0.640777,0.18035 0.746702,0.51124 0.137955,0.43088 -0.03549,0.7017 -0.981031,1.53212 -0.806972,0.7087 -0.842528,0.7526 -0.733282,0.90507 0.362927,0.50656 0.644199,1.00289 0.804405,1.41944 0.162122,0.42156 0.181463,0.59457 0.180277,1.61336 -0.0011,1.0364 -0.02031,1.19733 -0.208462,1.75302 -0.278568,0.82274 -0.72574,1.72255 -1.152954,2.31995 -0.193548,0.27066 -0.351905,0.52285 -0.351905,0.56043 0,0.0375 0.208142,0.33715 0.462542,0.66567 0.636521,0.82199 0.710496,1.18289 0.324131,1.58119 -0.149217,0.15381 -0.274506,0.2028 -0.518728,0.2028 -0.370321,0 -0.49569,-0.0997 -1.060928,-0.84434 -0.212843,-0.28035 -0.408718,-0.46833 -0.457601,-0.43913 -0.04701,0.0281 -0.233941,0.15469 -0.415416,0.28142 -1.773957,1.2386 -5.05914,1.90272 -7.640639,1.5446 -0.345138,-0.0479 -0.643618,-0.0705 -0.66329,-0.0502 -0.01974,0.0203 -0.08809,0.33391 -0.151933,0.69699 -0.195384,1.11023 -0.342684,1.32906 -0.894755,1.32906 -0.223443,0 -0.347979,-0.0555 -0.517427,-0.23004 z m 6.021331,-5.48234 c 1.291971,-0.66368 1.993554,-2.89923 1.358563,-4.32903 -0.381321,-0.85857 -1.049734,-1.35765 -2.05338,-1.53313 -0.952059,-0.16647 -2.102983,0.127 -2.732463,0.69674 -0.949663,0.85952 -1.001969,2.53302 -0.117872,3.77103 0.386422,0.5411 1.216124,1.21567 1.766871,1.4365 0.572837,0.22966 1.281895,0.21289 1.778281,-0.0421 z m -8.267655,-3.05279 c 0.891503,-0.24814 1.420911,-0.64435 1.725142,-1.29113 0.239966,-0.51015 0.248182,-1.46896 0.01712,-1.99451 -0.547779,-1.24583 -1.723875,-1.68853 -2.900062,-1.09162 -0.614566,0.31187 -1.450898,1.13699 -1.701784,1.67896 -0.549377,1.18676 -0.03617,2.33808 1.218178,2.73283 0.313359,0.0986 1.232555,0.0793 1.641433,-0.0346 z m -1.664015,-7.09611 c 1.725621,-0.88645 2.250317,-3.72103 0.938994,-5.0728 -1.106251,-1.14038 -3.593932,-1.09654 -4.714835,0.0831 -0.902662,0.94996 -0.815918,2.6084 0.197873,3.78312 0.400046,0.46354 1.226679,1.04594 1.768274,1.24582 0.617487,0.2279 1.319288,0.21268 1.809694,-0.0393 z m -5.118395,-7.03533 c 0.439641,-0.20579 0.91947,-0.72435 1.159231,-1.25281 0.269474,-0.59399 0.283577,-1.46049 0.03172,-1.95103 -0.425629,-0.82905 -1.352881,-1.25868 -2.566769,-1.18929 -0.873976,0.05 -1.41419,0.25511 -1.860643,0.70665 -1.114535,1.12721 -0.384756,2.93055 1.492079,3.68705 0.487463,0.19648 1.323921,0.19621 1.744346,-5.9e-4 z m 3.795935,-5.52129 c 0.414709,-0.1187 0.99542,-0.70637 1.2681,-1.28329 0.356081,-0.75341 0.483618,-1.39263 0.439025,-2.20066 -0.05021,-0.90915 -0.360691,-1.58712 -0.929877,-2.03005 -1.106148,-0.86083 -2.924059,-0.64582 -3.719153,0.43987 -0.950644,1.29811 -0.519778,3.35201 0.947415,4.51626 0.724873,0.57521 1.336358,0.74623 1.99449,0.55787 z"
       id="path2" /></g></svg>
