<?xml version="1.0" encoding="UTF-8" standalone="no"?>
<svg
   version="1.0"
   width="1300.3855pt"
   height="1155.8041pt"
   viewBox="0 0 1300.3855 1155.8041"
   preserveAspectRatio="xMidYMid"
   id="svg5"
   sodipodi:docname="unit_inactive_icon.svg"
   inkscape:version="1.3.2 (091e20e, 2023-11-25, custom)"
   xmlns:inkscape="http://www.inkscape.org/namespaces/inkscape"
   xmlns:sodipodi="http://sodipodi.sourceforge.net/DTD/sodipodi-0.dtd"
   xmlns="http://www.w3.org/2000/svg"
   xmlns:svg="http://www.w3.org/2000/svg">
  <defs
     id="defs5" />
  <sodipodi:namedview
     id="namedview5"
     pagecolor="#ffffff"
     bordercolor="#000000"
     borderopacity="0.25"
     inkscape:showpageshadow="2"
     inkscape:pageopacity="0.0"
     inkscape:pagecheckerboard="0"
     inkscape:deskcolor="#d1d1d1"
     inkscape:document-units="pt"
     inkscape:zoom="0.35355339"
     inkscape:cx="579.82756"
     inkscape:cy="162.63456"
     inkscape:window-width="1920"
     inkscape:window-height="1009"
     inkscape:window-x="-8"
     inkscape:window-y="-8"
     inkscape:window-maximized="1"
     inkscape:current-layer="svg5" />
  <metadata
     id="metadata1">
Created by potrace 1.15, written by Peter Selinger 2001-2017
</metadata>
  <g
     transform="matrix(0.10002965,0,0,-0.09623606,10.002965,1146.1805)"
     fill="#000000"
     stroke="none"
     id="g5"
     style="fill:#ff8080;stroke:#ff0000">
    <path
       d="m 6315,11785 c -38,-13 -275,-87 -525,-165 -420,-131 -735,-229 -1525,-475 -165,-51 -475,-148 -690,-215 -214,-67 -525,-164 -690,-215 -329,-103 -825,-257 -1525,-475 -250,-78 -538,-168 -640,-200 -102,-31 -305,-95 -452,-140 L 0,9816 v -452 -452 l 183,58 c 100,31 192,60 205,64 l 22,7 V 4521 0 h 130 130 l 2,4562 3,4561 265,83 c 311,96 1488,463 1940,604 173,54 621,193 995,310 374,117 822,256 995,310 628,196 1226,382 1376,429 l 153,48 168,-53 c 92,-29 373,-116 623,-194 250,-78 591,-184 758,-236 166,-52 439,-137 607,-189 168,-52 441,-137 608,-189 1007,-314 2301,-717 2790,-869 l 197,-62 V 4558 0 h 130 130 v 4515 c 0,2483 3,4515 8,4515 4,0 91,-27 195,-59 l 187,-59 v 452 452 l -67,21 c -38,12 -273,85 -523,163 -250,78 -628,196 -840,262 -699,217 -986,307 -1295,403 -168,52 -441,137 -607,189 -167,52 -512,160 -768,239 -1176,367 -1404,438 -1837,573 -254,79 -466,144 -470,143 -4,0 -39,-11 -78,-24 z"
       id="path1"
       style="fill:#ff8080;fill-opacity:1;stroke:#ff0000;stroke-width:200;stroke-dasharray:none;stroke-opacity:1" />
    <path
       d="m 2357,5981 c -142,-47 -237,-147 -295,-310 -15,-42 -17,-273 -19,-2858 L 2040,0 h 460 460 v 710 710 H 6450 9940 V 715 10 h 450 450 l -2,2188 c -3,2103 -4,2189 -22,2242 -23,69 -61,145 -95,189 -41,54 -136,119 -208,141 -215,66 -429,-36 -529,-254 -52,-114 -53,-140 -54,-1083 V 2560 H 6435 2941 l -3,1523 c -3,1446 -4,1525 -22,1577 -48,144 -133,246 -252,302 -87,41 -217,49 -307,19 z"
       id="path2"
       style="fill:#ffaacc;stroke:#ff0000;stroke-width:200;stroke-dasharray:none" />
    <path
       d="m 3803.3081,5029.6686 c -321.21,-25.4718 -555.8871,-300.5678 -521.9662,-610.0507 31.8441,-292.9262 290.0582,-506.2529 594.6539,-491.6066 83.7637,3.8208 143.9906,19.1039 222.2163,56.0381 108.6853,51.5805 189.68,129.9064 248.5224,238.1617 76.1489,140.0952 87.2251,290.3791 33.9208,440.0262 -59.5346,164.9302 -200.0639,294.8366 -373.8219,345.7803 -36.6899,10.8255 -159.9127,28.6558 -172.3734,24.835 -2.0768,-0.6368 -15.9221,-1.9104 -31.1519,-3.184 z"
       id="path3"
       style="fill:#ff5555;stroke:#ff0000;stroke-width:168.235;stroke-dasharray:none" />
    <path
       d="m 4984.3673,4704.338 c -114.8229,-41.5034 -194.6606,-136.2393 -229.6457,-271.5762 -10.7646,-41.5034 -13.4558,-124.51 -13.4558,-433.0783 v -381.6503 h -593.8491 c -636.0108,0 -652.1578,-0.9022 -748.1425,-46.0146 -64.5878,-30.6763 -133.6609,-100.1492 -166.8519,-168.72 -27.8086,-56.8416 -29.6027,-64.9617 -29.6027,-159.6976 0,-92.9314 1.7941,-102.8561 28.7057,-159.6976 49.338,-105.5629 147.1167,-180.4494 266.4248,-205.7122 30.4998,-6.3157 315.7627,-9.0225 862.0681,-7.218 l 816.3185,2.7067 51.132,24.3607 c 63.6908,29.7741 130.9697,92.0291 162.3666,149.7729 51.132,93.8336 51.132,98.3449 51.132,733.5264 0,359.0941 -3.5882,601.7983 -8.9705,631.5725 -22.4263,117.292 -93.2936,218.3436 -190.1753,270.6739 -50.235,26.1651 -65.4848,29.7741 -137.2491,32.4808 -57.4114,1.8046 -92.3965,-0.9022 -120.2051,-11.7291 z"
       id="path4"
       style="fill:#e9afaf;stroke:#ff0000;stroke-width:185.893;stroke-dasharray:none" />
    <path
       d="m 5767.5175,3803.0335 v -921.8734 h 1905.0982 1906.039 l -2.8224,650.7879 c -3.7632,642.5731 -3.7632,650.7879 -24.4605,716.5056 -65.8553,208.1061 -196.625,350.4944 -390.4276,425.3396 -138.296,52.9393 -65.8552,51.1138 -1799.7298,51.1138 H 5767.5175 Z"
       id="path5"
       style="fill:#d35f5f;fill-opacity:1;stroke:#ff0000;stroke-width:185.332;stroke-dasharray:none;stroke-opacity:1" />
  </g>
  <path
     id="rect6-6"
     style="fill:#ffaacc;fill-opacity:1;stroke:#ff0000;stroke-width:20;stroke-dasharray:none;stroke-opacity:1"
     d="m 753.79825,240.91353 c -11.0684,-11.36657 -29.12933,-11.60677 -40.49591,-0.53837 l -77.01871,74.99784 -73.304,-75.27972 c -11.06841,-11.36659 -29.12931,-11.60679 -40.4959,-0.53838 -11.36658,11.06842 -11.60678,29.12932 -0.53837,40.49591 l 73.304,75.27972 -74.96184,72.99621 c -11.36658,11.0684 -11.60678,29.12932 -0.53838,40.49589 11.06841,11.36658 29.13037,11.6078 40.49694,0.5394 l 74.96289,-72.99724 74.68796,76.70085 c 11.06841,11.36658 29.13036,11.6078 40.49694,0.5394 11.36658,-11.06841 11.60574,-29.13035 0.53734,-40.49693 l -74.68798,-76.70085 77.01769,-74.9968 c 11.36657,-11.0684 11.60573,-29.13036 0.53733,-40.49693 z" />
</svg>
